<?xml version="1.0" encoding="UTF-8"?>
<svg version="1.1" xmlns="http://www.w3.org/2000/svg" width="800" height="600">
<path d="M0 0 C32.79771362 -0.1209091 32.79771362 -0.1209091 46.65625 -0.14648438 C56.18429469 -0.16421032 65.71225916 -0.18492392 75.24023438 -0.22631836 C82.18276165 -0.25646559 89.12522318 -0.27563225 96.06781411 -0.28226548 C99.73500743 -0.28613547 103.40201285 -0.2950594 107.0691452 -0.31719017 C126.61594318 -0.43056631 145.42967712 0.35661838 164.4375 5.375 C165.26475586 5.58922607 166.09201172 5.80345215 166.94433594 6.02416992 C196.88399693 13.99932523 223.12005339 31.06198635 238.96728516 58.12353516 C252.99061683 83.60422717 256.23714491 115.66765705 256.0625 144.1875 C256.05747088 145.63085781 256.05291049 147.07421733 256.04882812 148.51757812 C256.0379438 152.01175505 256.0207585 155.50586612 256 159 C256.65062755 158.99539104 257.30125509 158.99078207 257.97159863 158.98603344 C273.90155723 158.87496215 289.83137865 158.79255886 305.76163006 158.74093914 C313.46582247 158.7153041 321.16975431 158.68044032 328.8737793 158.62280273 C335.59914071 158.57251157 342.32431317 158.54060262 349.04985744 158.52955753 C352.60154302 158.52311477 356.15268871 158.50829284 359.70419884 158.47134972 C382.85598927 158.24024994 402.76529428 160.22368166 423 172 C424.30324219 172.75796875 424.30324219 172.75796875 425.6328125 173.53125 C445.80923217 186.18545049 455.92951131 205.79029108 461.2734375 228.28125 C463.03942722 237.32007909 463.24221324 246.19256685 463.25 255.375 C463.25101212 256.44547073 463.25101212 256.44547073 463.25204468 257.53756714 C463.21385598 282.97516563 458.42155743 307.90035238 440.20703125 326.890625 C428.2643145 338.30490296 414.81251343 342.8547024 398.625 343.875 C381.06213817 345.18946499 359.0478475 347.73153672 346 361 C339.44104665 369.6518857 339.08927378 378.47576989 340 389 C341.51436699 395.79640607 345.23723565 400.22690587 351 404 C358.31464344 407.78794035 365.52464707 408.14985461 373.58158875 408.13371277 C374.42031472 408.13597833 375.25904069 408.13824388 376.12318259 408.14057809 C378.92027069 408.14688406 381.7173099 408.14609091 384.5144043 408.14526367 C386.52549807 408.14825733 388.53659127 408.15166033 390.54768372 408.15544128 C396.0024495 408.16426549 401.45719958 408.16661876 406.91197181 408.16725707 C410.32344014 408.16796859 413.7349045 408.17010486 417.14637184 408.17275429 C429.0581144 408.18200321 440.96984577 408.18608983 452.8815918 408.18530273 C463.96790209 408.18470239 475.05416366 408.19524682 486.14046162 408.2110464 C495.67192395 408.22414382 505.20337039 408.22948569 514.73484164 408.22884732 C520.42152388 408.22859294 526.10816281 408.23141106 531.79483604 408.24202538 C537.14727251 408.25174317 542.49962461 408.25176036 547.85206413 408.24450874 C549.80951308 408.2434674 551.76696738 408.24579887 553.7244072 408.2518692 C578.57746697 408.42614778 578.57746697 408.42614778 600 397 C605.67335576 389.79330485 606.78954097 382.95217996 606 374 C604.25714446 365.13306341 600.7757504 358.66535623 593.3359375 353.3828125 C583.96357328 347.83462365 572.85737887 345.97563633 562.15234375 345.10546875 C560.47715088 344.95316155 558.80202253 344.80014349 557.12695312 344.64648438 C554.54359646 344.41535347 551.96015806 344.18936748 549.37524414 343.97631836 C528.70142418 342.24903805 510.71322028 337.65605733 496 322 C478.71224336 300.12499705 475.64463394 266.81097098 478.5 239.9765625 C481.40595587 215.7983937 489.28394519 194.53891581 508.17578125 178.1640625 C526.68653467 163.98016569 548.98863326 158.80207616 571.93579102 158.88647461 C572.99049088 158.88632858 574.04519073 158.88618256 575.1318512 158.8860321 C578.58922441 158.88672416 582.04654254 158.89448323 585.50390625 158.90234375 C587.91242951 158.90421044 590.32095315 158.90563316 592.72947693 158.90663147 C599.04722149 158.91043684 605.3649428 158.92025013 611.68267822 158.93133545 C619.27443207 158.9433978 626.86619371 158.94796124 634.45795441 158.95378876 C645.97198574 158.96346301 657.48596613 158.98263343 669 159 C669 180.12 669 201.24 669 223 C661.36875 223.02578125 653.7375 223.0515625 645.875 223.078125 C641.03512282 223.10329694 636.19530791 223.12963264 631.35546875 223.16015625 C623.67659278 223.20847422 615.99786098 223.25252546 608.31884766 223.27099609 C602.1265474 223.28616053 595.93462474 223.3206033 589.74249268 223.36830902 C587.3822966 223.38312483 585.02204662 223.39104113 582.6618042 223.39188385 C579.35095146 223.39425453 576.04114133 223.42134443 572.73046875 223.45410156 C571.75870193 223.4490712 570.78693512 223.44404083 569.78572083 223.43885803 C562.74721183 223.54631351 557.48490141 225.12444285 552.01171875 229.640625 C544.65609886 238.58019844 543.22489759 248.65028616 544 260 C545.57755374 268.95493739 548.46610367 275.503223 555.92578125 280.921875 C561.73056107 283.93904869 567.80244068 284.34738824 574.1875 284.8125 C589.34499128 286.13710533 604.06497624 289.84783525 618 296 C618.99 296.42796875 619.98 296.8559375 621 297.296875 C639.63930999 305.93697182 654.88980499 321.1248519 662.94140625 340.09765625 C666.4852148 349.813707 669.13027432 359.4090345 669.23828125 369.765625 C669.246353 370.51728943 669.25442474 371.26895386 669.26274109 372.043396 C669.27654134 373.63698048 669.28728156 375.23059402 669.29516602 376.82421875 C669.30656913 378.42001291 669.32683053 380.01577259 669.35668945 381.61132812 C669.62713674 396.1036764 668.30370758 410.57263462 661.125 423.5 C660.77405273 424.16032227 660.42310547 424.82064453 660.06152344 425.50097656 C659.06523143 427.34889353 658.03981702 429.17632091 657 431 C656.52820313 431.85078125 656.05640625 432.7015625 655.5703125 433.578125 C642.95834876 454.32443221 620.70915616 464.84631257 598.01513672 470.44042969 C590.13894231 472.30307506 582.58612673 473.14889021 574.50296021 473.14717102 C573.09702978 473.15268605 573.09702978 473.15268605 571.66269672 473.1583125 C568.53179869 473.16929775 565.4009339 473.17318443 562.27001953 473.17700195 C560.02073564 473.18327063 557.77145277 473.18991778 555.52217102 473.19691467 C548.14239212 473.21791396 540.76261312 473.228315 533.3828125 473.23828125 C530.83646509 473.24233071 528.29011779 473.24644769 525.7437706 473.25063133 C515.14581911 473.26749556 504.54786974 473.28212868 493.9499073 473.28938007 C491.20390954 473.29128963 488.45791179 473.29321001 485.71191406 473.29516602 C485.02949984 473.29564976 484.34708561 473.2961335 483.64399217 473.2966319 C472.60780926 473.30491898 461.57173519 473.33023594 450.53559972 473.36274669 C439.1775351 473.39593004 427.81954502 473.41350709 416.46142471 473.41702431 C410.0954478 473.41936718 403.72964304 473.42822777 397.36371231 473.45348549 C391.36689502 473.47689454 385.37036164 473.48094803 379.37351036 473.47072411 C377.18433242 473.47023171 374.99513988 473.47646374 372.80600548 473.49028015 C346.59196869 473.64633801 321.9319239 467.64670955 302.1875 449.27734375 C280.29598165 426.48670947 277.20477716 398.06706322 277.76753235 367.97737122 C277.990199 359.80434431 279.20938246 352.69483889 282 345 C282.24137695 344.32775391 282.48275391 343.65550781 282.73144531 342.96289062 C286.34623898 333.16884589 291.1506463 324.95408816 298 317 C298.68707031 316.20078125 299.37414062 315.4015625 300.08203125 314.578125 C319.08794583 294.1264915 349.62909289 285.90201204 376.61987305 284.66601562 C387.89839357 284.38991451 387.89839357 284.38991451 397.3125 278.75 C404.09739666 267.69313137 404.52274778 254.33802686 402.46875 241.7421875 C400.74648601 235.62066225 398.34327962 230.10429354 392.6875 226.75 C378.50142247 220.77991227 360.94059345 222.74102944 345.94140625 222.8046875 C343.33967702 222.80842419 340.73794636 222.81126806 338.13621521 222.81326294 C332.02742178 222.82007578 325.91871269 222.83578049 319.80995077 222.85596192 C312.84481232 222.87846375 305.87967003 222.88934993 298.91450417 222.89935279 C284.60963045 222.92015182 270.30481784 222.95523768 256 223 C256.01379637 223.75171762 256.02759274 224.50343523 256.04180717 225.27793217 C256.30337614 239.56909499 256.56280903 253.86010131 256.7578125 268.15234375 C256.76767307 268.87364912 256.77753365 269.59495449 256.78769302 270.3381176 C256.82874703 273.35118941 256.86964907 276.36426294 256.90979576 279.37734699 C256.96746482 283.68971128 257.02990824 288.00196879 257.09636307 292.31420612 C257.20798029 299.58893475 257.28960072 306.86331094 257.34204102 314.13876343 C257.36365631 316.58907684 257.3941111 319.03933167 257.43432617 321.4894104 C257.81479292 345.48103687 254.0808542 367.74002126 245 390 C244.70254883 390.7312207 244.40509766 391.46244141 244.09863281 392.21582031 C230.32433305 425.25924861 204.95560624 452.12203718 172.04296875 466.40625 C131.12988632 483.11131643 80.50660622 483.18840695 39.60791016 466.53881836 C23.03060116 459.42171956 7.3325582 449.22821885 -5 436 C-5.78375 435.236875 -6.5675 434.47375 -7.375 433.6875 C-8.24125 432.800625 -9.1075 431.91375 -10 431 C-10.63421875 430.36191406 -11.2684375 429.72382813 -11.921875 429.06640625 C-37.66082094 402.00400387 -56.10743964 357.79336085 -56.16796875 320.5234375 C-56.17224884 319.72429932 -56.17652893 318.92516113 -56.18093872 318.10180664 C-56.19089552 315.5261469 -56.19099802 312.95067528 -56.1875 310.375 C-56.18656342 309.49596008 -56.18562683 308.61692017 -56.18466187 307.71124268 C-56.09311541 268.20195682 -49.21585533 233.69418763 -23 203 C-22.52433594 202.37867188 -22.04867187 201.75734375 -21.55859375 201.1171875 C-2.40483375 176.53176422 35.99637906 163.35337389 65.80146885 159.2102499 C70.51827056 158.75917278 75.26009173 158.87121916 79.99389648 158.88647461 C81.18485428 158.88632858 82.37581207 158.88618256 83.6028595 158.8860321 C86.85029274 158.88660722 90.09768226 158.89160429 93.34510684 158.89860606 C96.74569936 158.90487972 100.14629284 158.90544657 103.54689026 158.90663147 C109.97820501 158.90973299 116.40950265 158.91793042 122.84080988 158.92798096 C130.16610253 158.9391788 137.49139601 158.94466178 144.81669509 158.94967639 C159.87780624 158.96011407 174.93890141 158.97769058 190 159 C190.01718095 155.04047611 190.02955939 151.08096709 190.0377655 147.12141418 C190.04286347 145.12329342 190.05160572 143.12518301 190.0604248 141.1270752 C190.09179598 123.02590809 189.19922975 102.53960956 177 88 C176.47277344 87.32839844 175.94554687 86.65679687 175.40234375 85.96484375 C162.54022365 71.29354632 139.46303211 66.81826114 121 65 C111.57058297 64.44848243 102.11795021 64.51083785 92.67578125 64.48828125 C89.99006978 64.47140001 87.30438939 64.4533856 84.61869812 64.43388367 C78.32593921 64.39062757 72.03320534 64.36183207 65.74034423 64.33856028 C57.85480959 64.30859804 49.96941464 64.25874747 42.08398438 64.20898438 C28.0560329 64.12054301 14.02815197 64.06159219 0 64 C0 42.88 0 21.76 0 0 Z M60.375 231.125 C59.17725952 231.70423218 59.17725952 231.70423218 57.95532227 232.29516602 C50.5161013 236.02263088 44.24000331 240.49411473 38 246 C37.10925781 246.77988281 36.21851563 247.55976563 35.30078125 248.36328125 C16.32338686 266.12007753 8.20436011 291.58742541 7 317 C6.75564557 344.4219966 19.68655108 371.85037144 38.1875 391.6875 C53.58509275 406.46811604 74.7565212 414.22462171 96 414 C120.44607022 413.22045184 144.07967478 408.38461153 163 392 C163.825 391.36191406 164.65 390.72382813 165.5 390.06640625 C179.51931915 378.47856277 187.42831058 358.55990239 190 341 C190.32025398 336.0504608 190.37268546 331.10276215 190.4140625 326.14453125 C190.4328965 324.67957115 190.45247744 323.21462049 190.4727478 321.74967957 C190.51355002 318.66412966 190.54829419 315.57859513 190.578125 312.49291992 C190.61484338 308.69803068 190.6614933 304.90336618 190.71246719 301.10864449 C191.05980138 275.07304751 191.04171516 249.03742921 191 223 C177.43843646 222.90695687 163.87694998 222.83606153 150.31513119 222.79275131 C144.01653128 222.77195531 137.71815118 222.74378444 131.41967773 222.69824219 C125.33124724 222.65449862 119.243027 222.63080296 113.15445137 222.62049103 C110.84184018 222.61315058 108.52923934 222.5988177 106.21671867 222.57707977 C89.55213399 222.42678685 75.5548468 223.69349687 60.375 231.125 Z " fill="#000000" transform="translate(93,61)"/>
</svg>
