<?xml version="1.0" standalone="no"?>
<!DOCTYPE svg PUBLIC "-//W3C//DTD SVG 20010904//EN"
 "http://www.w3.org/TR/2001/REC-SVG-20010904/DTD/svg10.dtd">
<svg version="1.0" xmlns="http://www.w3.org/2000/svg"
 width="600.000000pt" height="600.000000pt" viewBox="0 0 600.000000 600.000000"
 preserveAspectRatio="xMidYMid meet">
<g transform="translate(0.000000,600.000000) scale(0.100000,-0.100000)"
fill="#000000" stroke="none">
<path d="M2695 5939 c-60 -4 -126 -13 -145 -19 -19 -5 -60 -14 -90 -19 -72
-12 -247 -50 -285 -61 -65 -20 -274 -90 -301 -101 -99 -40 -385 -188 -404
-208 -4 -5 -32 -21 -95 -55 -28 -15 -229 -166 -295 -221 -209 -176 -425 -423
-565 -650 -33 -53 -69 -111 -80 -128 -12 -18 -32 -52 -45 -77 -13 -25 -29 -52
-36 -60 -6 -8 -18 -34 -27 -57 -9 -23 -25 -61 -35 -85 -36 -82 -44 -104 -91
-248 -26 -80 -55 -179 -65 -220 -9 -41 -22 -93 -27 -115 -26 -103 -42 -197
-49 -275 -4 -47 -13 -148 -20 -225 -11 -111 -11 -161 -1 -245 6 -58 15 -152
20 -210 5 -58 14 -118 20 -133 6 -16 11 -41 11 -57 0 -16 9 -66 21 -112 11
-46 23 -94 26 -108 8 -42 63 -224 74 -242 5 -10 9 -25 9 -33 0 -9 11 -40 24
-68 13 -29 29 -68 36 -87 21 -54 91 -204 98 -210 4 -3 16 -23 27 -45 57 -112
234 -367 348 -501 85 -101 277 -291 322 -319 17 -10 56 -43 87 -72 31 -29 61
-53 67 -53 5 0 16 -6 23 -13 31 -30 157 -116 207 -141 30 -16 66 -36 80 -45
50 -32 67 -42 171 -93 280 -136 611 -229 920 -259 58 -5 118 -14 134 -19 39
-13 429 -13 442 0 6 6 59 14 120 20 118 10 203 22 274 38 25 6 70 16 100 23
50 11 358 108 405 127 29 12 137 62 158 73 10 6 37 20 60 31 69 35 259 148
310 184 26 19 50 34 53 34 9 0 128 95 239 191 391 339 681 774 845 1269 65
197 88 300 141 630 15 89 8 698 -8 725 -6 12 -14 48 -18 80 -7 69 -20 138 -41
211 -8 28 -14 58 -14 68 0 17 -24 99 -60 206 -76 223 -167 416 -270 575 -21
33 -48 76 -59 95 -56 99 -265 356 -391 479 -126 123 -359 306 -500 393 -80 49
-332 185 -390 211 -62 27 -175 67 -191 67 -8 0 -19 4 -24 9 -14 12 -164 56
-260 76 -44 9 -96 21 -115 26 -36 9 -121 23 -245 40 -96 13 -495 18 -630 8z
m570 -159 c574 -64 1079 -278 1507 -638 522 -440 858 -1040 969 -1732 21 -126
24 -180 23 -420 0 -296 -12 -405 -71 -645 -138 -562 -433 -1057 -855 -1432
-430 -382 -912 -606 -1488 -690 -175 -25 -546 -25 -720 0 -637 93 -1157 349
-1600 787 -473 468 -763 1087 -821 1745 -14 166 -7 483 15 630 157 1059 880
1928 1886 2268 186 63 345 96 615 130 67 9 456 6 540 -3z"/>
<path d="M3014 5662 c-46 -29 -72 -68 -80 -119 -19 -127 73 -213 202 -188 46
8 94 54 94 90 0 43 -47 45 -54 3 -3 -26 -33 -48 -64 -48 -45 0 -65 31 -70 105
-4 63 -3 66 30 99 44 44 69 39 104 -20 33 -56 51 -56 59 0 10 68 5 81 -35 83
-19 2 -62 5 -95 8 -49 5 -66 3 -91 -13z"/>
<path d="M2440 5621 c-69 -15 -131 -30 -137 -34 -21 -13 -15 -27 16 -38 35
-12 48 -39 62 -132 11 -68 10 -72 -10 -85 -11 -8 -21 -23 -21 -34 0 -16 5 -19
23 -14 12 3 76 16 142 27 154 27 164 33 155 94 -4 25 -12 51 -18 57 -16 16
-42 2 -42 -24 0 -37 -27 -67 -67 -74 -31 -6 -39 -3 -55 16 -39 48 -7 92 37 50
22 -21 25 -21 31 -6 9 23 -1 93 -16 112 -15 17 -40 2 -40 -26 0 -26 -12 -32
-32 -13 -20 18 -24 63 -6 81 7 7 31 12 53 12 34 0 47 -6 69 -31 45 -50 57 -33
41 59 -7 39 -11 39 -185 3z"/>
<path d="M3385 5625 c-22 -8 -41 -15 -42 -15 -1 0 -15 -21 -30 -47 -35 -60
-38 -138 -7 -180 41 -55 80 -73 160 -73 63 0 76 3 103 25 39 34 54 82 49 163
-4 59 -7 68 -38 93 -18 15 -55 33 -82 38 -61 14 -64 13 -113 -4z m133 -63 c16
-21 15 -56 -3 -116 -29 -95 -62 -119 -106 -75 -19 19 -21 28 -15 87 7 69 29
118 55 125 24 7 54 -3 69 -21z"/>
<path d="M3715 5553 c1 -10 5 -27 10 -37 5 -13 -1 -46 -18 -100 -15 -45 -27
-95 -27 -110 0 -38 48 -81 114 -102 87 -28 115 -3 173 150 15 41 24 51 51 58
17 5 32 12 32 17 0 23 -70 58 -125 63 -16 2 -33 7 -36 12 -8 10 -112 53 -149
61 -22 5 -27 3 -25 -12z m186 -84 c27 -27 22 -80 -15 -161 -22 -50 -30 -58
-53 -58 -28 0 -63 25 -63 45 0 34 44 150 65 171 30 29 39 30 66 3z m96 -36
c-4 -3 -10 -3 -14 0 -3 4 0 7 7 7 7 0 10 -3 7 -7z"/>
<path d="M2143 5541 c-24 -9 -48 -22 -54 -28 -14 -14 -3 -33 20 -33 23 0 35
-14 60 -73 28 -64 11 -61 -75 13 -41 36 -78 59 -93 60 -34 0 -141 -50 -141
-66 0 -8 10 -14 23 -14 36 0 49 -15 75 -82 34 -91 36 -103 16 -132 -28 -44 -6
-53 65 -26 77 28 93 46 56 60 -14 5 -30 10 -35 10 -10 0 -52 108 -47 123 1 5
31 -15 66 -44 110 -94 102 -90 141 -79 67 19 67 17 20 141 -41 110 -42 115
-26 142 9 16 16 33 16 38 0 14 -39 9 -87 -10z"/>
<path d="M4113 5403 c-10 -4 -10 -10 2 -26 22 -32 19 -48 -26 -126 -31 -53
-47 -73 -67 -77 -47 -10 -54 -14 -50 -27 5 -13 115 -76 136 -77 16 0 16 25 0
50 -11 17 -9 28 16 75 16 30 32 55 36 55 13 0 20 -73 13 -142 -6 -75 -1 -88
50 -113 16 -8 31 -15 33 -15 1 0 31 48 66 106 35 59 68 108 73 109 6 2 23 6
39 10 27 6 27 7 11 25 -22 25 -122 76 -131 68 -4 -4 -1 -21 6 -37 19 -47 -14
-136 -47 -124 -12 5 -14 21 -8 98 l7 93 -43 29 c-38 25 -96 55 -102 52 -1 0
-8 -3 -14 -6z"/>
<path d="M1664 5334 c-17 -8 -46 -30 -64 -49 -92 -95 -8 -275 127 -275 49 0
138 50 158 90 35 68 8 174 -58 224 -40 31 -113 35 -163 10z m61 -50 c21 -8 69
-80 84 -125 26 -79 -25 -116 -88 -64 -38 33 -84 125 -75 151 15 42 38 53 79
38z"/>
<path d="M2720 5228 c-260 -31 -560 -123 -778 -239 -272 -144 -539 -368 -726
-609 -63 -81 -194 -294 -234 -380 -77 -168 -142 -351 -177 -505 -48 -206 -55
-272 -55 -487 0 -322 45 -560 163 -858 139 -353 397 -698 682 -910 33 -25 71
-55 86 -68 45 -39 197 -132 307 -186 142 -71 412 -162 552 -186 36 -6 84 -15
107 -20 141 -31 475 -37 618 -10 28 5 83 14 124 20 83 11 181 36 316 81 114
38 142 50 295 126 202 100 346 203 523 373 281 270 443 524 576 904 74 212
121 490 121 723 0 125 -23 360 -44 443 -8 30 -20 82 -26 115 -7 33 -18 73 -25
90 -7 16 -25 68 -40 115 -90 279 -277 575 -517 820 -353 361 -798 581 -1308
645 -126 16 -417 18 -540 3z m460 -39 c174 -16 418 -72 585 -136 124 -47 306
-136 379 -185 306 -206 517 -414 681 -668 125 -195 262 -525 300 -725 8 -42
17 -81 20 -86 15 -24 35 -243 35 -389 0 -310 -46 -540 -166 -835 -28 -69 -149
-309 -165 -329 -13 -15 -79 -117 -79 -121 0 -4 -51 -63 -151 -174 -315 -350
-687 -574 -1132 -680 -198 -47 -242 -53 -448 -58 -150 -4 -224 -1 -315 11
-586 81 -1049 338 -1438 799 -154 183 -297 445 -387 709 -95 281 -131 644 -94
928 38 289 92 470 215 717 280 565 798 994 1390 1151 277 73 505 94 770 71z"/>
<path d="M2830 5075 c-8 -2 -62 -9 -120 -15 -120 -14 -265 -47 -395 -92 -112
-38 -225 -88 -225 -99 0 -5 -7 -9 -15 -9 -19 0 -160 -74 -230 -120 -70 -47
-208 -154 -225 -176 -9 -11 -10 -15 -2 -10 21 13 13 -4 -15 -30 -17 -15 -29
-21 -33 -14 -4 7 -12 5 -21 -6 -12 -15 -12 -17 0 -9 10 5 12 4 7 -4 -4 -6 -11
-9 -16 -6 -17 10 -234 -250 -267 -320 -7 -16 -29 -50 -48 -75 -19 -25 -39 -56
-45 -70 -5 -14 -15 -34 -22 -45 -104 -175 -205 -505 -228 -745 -13 -127 -12
-345 0 -471 14 -137 79 -403 130 -532 43 -108 110 -237 174 -333 22 -33 59
-89 83 -126 231 -349 688 -662 1134 -777 216 -56 284 -64 539 -64 224 0 242 1
385 31 344 71 637 207 895 412 101 81 263 245 347 352 56 71 173 257 221 353
83 165 154 397 189 610 24 152 24 478 0 629 -50 316 -154 584 -325 841 -321
482 -845 818 -1402 900 -97 14 -435 29 -470 20z m385 -50 c296 -38 505 -106
760 -249 256 -143 500 -364 667 -606 69 -100 173 -287 203 -365 14 -38 32 -84
40 -102 26 -59 84 -297 101 -413 24 -165 16 -522 -15 -670 -63 -299 -144 -498
-297 -726 -91 -136 -180 -242 -302 -359 l-94 -90 -36 23 c-75 46 -161 83 -233
99 -72 17 -188 19 -541 10 -68 -2 -80 1 -99 20 -22 21 -22 23 -6 60 20 49 30
236 16 328 -6 39 -22 108 -37 155 -24 81 -26 95 -23 273 2 145 6 198 19 230
13 35 15 80 13 273 -1 140 1 234 7 238 5 3 27 -8 47 -24 46 -37 56 -31 96 56
18 41 42 74 72 99 62 52 71 77 62 180 -7 83 -6 84 17 90 28 6 389 60 543 80
61 8 130 19 155 24 25 6 81 13 125 17 97 8 148 26 143 51 -6 33 17 35 -648
-48 -135 -16 -266 -33 -291 -36 -55 -7 -52 -13 -74 135 -36 245 -47 261 -210
337 -137 63 -171 113 -165 240 7 147 5 253 -8 330 -13 86 -35 124 -47 86 -8
-25 -27 -27 -45 -6 -35 42 -76 60 -145 65 -61 4 -70 8 -73 26 -2 11 4 27 13
34 21 17 19 30 -5 30 -39 0 -87 -72 -129 -190 -14 -39 -21 -98 -26 -205 -11
-215 -12 -203 25 -236 l33 -30 -27 -28 c-34 -35 -33 -52 5 -85 26 -24 30 -33
26 -60 -3 -21 2 -49 14 -75 10 -24 19 -49 19 -57 0 -41 -54 17 -70 75 -21 78
-82 103 -145 61 -16 -12 -62 -36 -102 -55 -88 -41 -95 -58 -63 -145 12 -32 19
-64 15 -69 -11 -19 -34 -12 -51 14 -9 14 -23 25 -30 25 -16 0 -19 -26 -4 -35
24 -15 9 -35 -25 -35 -51 0 -80 -19 -165 -105 -96 -99 -253 -205 -301 -205
-23 0 -58 -14 -104 -43 -58 -35 -71 -48 -80 -79 -5 -20 -13 -39 -17 -43 -3 -4
-89 -40 -189 -81 -101 -40 -190 -81 -199 -89 -13 -14 -13 -20 8 -55 12 -21 22
-47 22 -58 0 -10 9 -27 20 -37 28 -25 70 -14 162 43 42 26 108 66 146 90 38
23 85 44 105 46 19 2 61 17 94 34 32 16 71 35 86 41 15 6 37 26 47 45 19 32
24 34 93 40 39 4 99 13 132 21 70 17 145 19 145 5 0 -5 -10 -10 -22 -11 -49
-1 -107 -9 -133 -19 -14 -5 -45 -10 -68 -10 -52 0 -111 -16 -126 -34 -8 -9 -7
-27 5 -67 9 -30 17 -55 18 -57 2 -1 34 12 72 29 38 18 113 46 167 63 91 30 99
31 108 15 15 -28 11 -383 -6 -474 -20 -114 -19 -236 4 -316 16 -56 18 -94 16
-245 -2 -131 1 -190 11 -219 20 -58 17 -110 -8 -158 -19 -36 -22 -61 -25 -182
-4 -166 -14 -204 -64 -250 -83 -74 -220 -86 -416 -36 -67 17 -140 31 -163 31
-36 0 -49 8 -131 82 -342 307 -562 710 -646 1183 -22 127 -25 487 -4 615 76
470 263 835 593 1155 128 126 181 169 305 251 391 260 882 377 1338 319z
m-160 -284 c57 -26 94 -70 111 -132 42 -146 42 -169 4 -169 -13 0 -24 10 -30
26 -6 14 -14 23 -19 19 -5 -3 -29 -9 -53 -14 -24 -5 -53 -13 -65 -16 -22 -7
-23 -6 -19 64 1 39 6 74 9 77 3 4 0 19 -8 34 -8 15 -11 30 -8 34 4 3 -4 17
-16 30 l-23 24 21 21 c26 26 44 26 96 2z m-129 -92 c10 -17 -23 -46 -37 -32
-7 7 -9 19 -6 27 7 18 33 21 43 5z m-1279 -86 c-4 -3 -10 -3 -14 0 -3 4 0 7 7
7 7 0 10 -3 7 -7z m1474 -258 c7 -96 25 -169 39 -160 10 6 75 -17 130 -45 19
-10 52 -23 72 -29 60 -20 118 -67 118 -97 0 -23 -3 -25 -22 -19 -13 3 -40 10
-61 14 -21 5 -46 19 -57 34 -26 33 -100 61 -140 54 -23 -5 -33 -2 -42 13 -10
16 -24 20 -63 20 -48 -1 -51 -3 -77 -43 -15 -23 -40 -60 -57 -82 -34 -46 -52
-115 -29 -115 7 0 31 12 52 26 25 17 41 23 48 16 15 -15 -3 -41 -74 -110 l-63
-61 -7 82 c-4 45 -4 96 1 112 5 19 3 41 -5 60 -7 17 -13 42 -14 57 0 22 6 29
28 34 66 14 64 12 41 44 -26 34 -20 80 11 80 22 0 31 -12 39 -54 10 -45 44
-47 71 -4 35 57 37 79 6 103 -28 22 -28 23 -16 81 18 85 18 86 42 82 21 -3 23
-9 29 -93z m199 -379 c0 -2 -7 -20 -16 -41 -17 -43 -12 -76 30 -188 27 -70 33
-107 17 -107 -16 0 -28 24 -35 68 -4 24 -15 61 -26 83 -20 38 -29 167 -13 182
7 7 43 10 43 3z m-700 -150 c0 -7 -7 -30 -15 -49 -8 -20 -15 -50 -15 -66 0
-19 -10 -40 -28 -58 -15 -15 -34 -43 -41 -61 -8 -18 -19 -31 -25 -29 -19 7 -7
48 34 114 23 35 43 78 47 96 7 40 21 67 33 67 6 0 10 -6 10 -14z m308 -139 c2
-8 -7 -37 -19 -64 -18 -37 -22 -63 -21 -113 4 -133 3 -168 -6 -285 -12 -136
-20 -185 -33 -185 -16 0 -31 54 -24 90 12 73 24 199 27 293 3 105 -2 117 -49
117 -13 0 -23 4 -23 8 0 15 34 41 68 53 24 8 34 19 42 47 5 21 10 43 10 50 0
19 24 9 28 -11z m520 -137 c-26 -5 -52 -12 -59 -16 -14 -8 -152 -33 -158 -28
-2 2 -1 10 2 19 4 10 20 15 44 16 21 0 47 4 58 9 11 5 52 8 90 8 68 0 69 -1
23 -8z m-1510 -82 c18 -18 15 -48 -6 -48 -23 0 -42 19 -42 42 0 21 30 24 48 6z
m-304 -261 l30 -13 -35 -25 c-107 -76 -188 -109 -208 -85 -37 44 -15 108 42
125 46 13 137 12 171 -2z m1286 -816 c5 -9 20 -59 35 -109 14 -51 41 -122 60
-157 26 -50 33 -72 28 -99 -6 -36 5 -92 38 -208 19 -66 19 -68 0 -140 -28
-106 -28 -105 -79 -117 -69 -15 -222 -23 -257 -13 -28 8 -30 12 -33 63 -2 43
4 72 28 134 30 73 31 83 25 157 -6 65 -4 83 10 104 30 46 55 155 64 271 4 61
13 118 20 126 14 18 48 11 61 -12z"/>
<path d="M3052 4890 c20 -11 40 -24 43 -30 8 -13 45 -13 45 0 0 17 -63 50 -95
50 l-30 -1 37 -19z"/>
<path d="M3657 2420 c-74 -14 -126 -90 -107 -159 13 -48 43 -75 102 -91 37
-10 58 -10 92 -1 25 6 47 11 50 11 12 0 5 -72 -9 -99 -27 -53 -113 -64 -100
-14 7 29 -8 51 -43 64 -61 23 -99 -62 -49 -109 52 -49 199 -50 268 -1 97 69
105 278 14 358 -53 47 -123 60 -218 41z m119 -61 c22 -24 27 -110 7 -130 -18
-18 -71 -15 -91 5 -27 27 -23 103 7 127 30 25 53 24 77 -2z"/>
<path d="M4141 2421 c-44 -6 -59 -13 -87 -44 -40 -43 -45 -90 -14 -130 27 -34
25 -44 -10 -77 -24 -22 -30 -36 -30 -69 0 -79 69 -116 215 -116 136 0 185 37
185 139 0 40 -4 49 -35 73 -42 33 -43 39 -10 65 40 31 35 87 -10 127 -22 19
-47 31 -64 31 -16 0 -41 2 -57 4 -16 2 -53 1 -83 -3z m124 -57 c28 -11 38 -53
19 -81 -17 -27 -26 -27 -99 0 -53 20 -65 40 -41 66 19 21 84 29 121 15z m-51
-218 c76 -31 94 -57 60 -90 -10 -11 -34 -16 -69 -16 -88 0 -143 63 -98 112 21
24 36 23 107 -6z"/>
<path d="M1549 2404 c-8 -10 -33 -26 -57 -36 -24 -11 -46 -27 -49 -35 -8 -20
22 -43 54 -43 24 0 24 0 21 -111 -3 -95 -6 -113 -20 -120 -10 -5 -26 -13 -35
-18 -10 -4 -18 -17 -18 -27 0 -18 9 -19 140 -19 l140 0 0 25 c0 21 -5 26 -32
28 -18 2 -34 4 -35 5 -1 1 -4 83 -7 182 l-6 180 -41 3 c-29 2 -45 -2 -55 -14z"/>
<path d="M1736 2405 c-3 -9 -6 -54 -6 -100 0 -75 2 -84 20 -90 29 -9 39 1 46
46 10 61 36 74 113 56 34 -8 65 -17 68 -21 3 -3 -20 -30 -51 -60 -74 -71 -113
-158 -107 -233 1 -9 21 -13 66 -13 l64 0 7 38 c14 84 37 142 94 236 79 131 78
172 -5 134 -21 -9 -35 -8 -76 6 -33 12 -63 16 -92 12 -62 -9 -69 -9 -103 -1
-24 5 -33 3 -38 -10z"/>
<path d="M3017 4694 c-8 -8 13 -64 25 -64 19 0 48 21 48 35 0 23 -56 46 -73
29z"/>
<path d="M4480 5129 c-23 -32 -27 -45 -19 -56 10 -11 17 -10 44 7 83 51 85 8
5 -94 -59 -74 -62 -76 -94 -70 -19 3 -36 1 -40 -4 -8 -13 141 -135 154 -127 6
4 8 21 4 41 -5 30 -1 41 34 87 89 114 107 121 107 39 0 -27 4 -54 8 -58 9 -9
76 63 77 82 0 20 -210 194 -235 194 -8 0 -28 -19 -45 -41z"/>
<path d="M1365 5121 c-116 -53 -155 -159 -92 -253 39 -56 84 -80 144 -76 98 8
184 100 169 180 -10 55 -61 124 -110 147 -51 25 -60 26 -111 2z m49 -75 c38
-29 81 -91 90 -128 5 -20 1 -33 -14 -48 -34 -34 -80 -10 -141 74 -35 47 -38
89 -7 110 30 21 36 20 72 -8z"/>
<path d="M4813 4887 c6 -40 -31 -161 -61 -194 -19 -21 -28 -24 -61 -18 -21 3
-41 2 -44 -2 -10 -16 104 -138 129 -139 20 -1 21 2 13 24 -22 58 86 110 208
100 30 -3 56 -1 59 4 3 4 -21 36 -53 71 -33 34 -83 90 -112 125 -60 71 -87 81
-78 29z m127 -133 c14 -37 2 -54 -36 -54 -44 0 -52 20 -25 59 24 34 47 32 61
-5z"/>
<path d="M1003 4783 c-52 -54 -92 -105 -91 -113 2 -10 14 -14 38 -12 31 2 43
-5 102 -60 65 -61 67 -65 61 -101 -4 -29 -2 -37 9 -37 17 0 141 134 183 197
25 39 26 46 15 73 -15 36 -37 50 -80 50 -24 0 -35 7 -48 31 -27 48 -35 56 -67
64 -27 6 -36 0 -122 -92z m115 -5 c26 -26 7 -78 -28 -78 -9 0 -25 9 -35 20
-37 41 24 97 63 58z m106 -84 c21 -21 20 -57 -2 -77 -14 -13 -22 -14 -41 -4
-13 7 -30 22 -38 34 -13 19 -12 24 6 42 25 25 54 27 75 5z"/>
<path d="M720 4305 c4 -65 1 -75 -25 -87 -34 -15 -32 -35 4 -43 39 -8 49 -22
53 -75 l4 -45 18 40 c23 50 33 57 73 50 39 -7 49 6 23 30 -24 21 -26 67 -5 85
8 7 15 19 15 26 0 12 -5 12 -30 -1 -41 -21 -49 -20 -93 23 l-39 37 2 -40z"/>
<path d="M5225 4304 c-28 -37 -32 -37 -94 -18 -22 6 -23 5 -17 -17 18 -58 17
-66 -9 -97 l-27 -32 50 0 c51 0 82 -17 82 -44 0 -8 7 -19 15 -26 13 -11 15 -6
15 32 0 46 13 68 40 68 9 0 24 6 34 13 17 13 16 15 -20 34 -41 21 -47 44 -29
101 11 34 -9 27 -40 -14z"/>
<path d="M475 3791 c-63 -26 -106 -151 -74 -214 6 -12 21 -30 33 -39 49 -41
74 -3 27 41 -37 35 -39 64 -6 96 29 29 77 33 132 10 53 -23 73 -44 73 -79 0
-43 -9 -52 -57 -65 -68 -18 -66 -40 6 -66 46 -16 61 -13 61 11 0 8 12 42 26
76 20 48 24 71 19 105 -7 51 -45 100 -92 119 -35 15 -116 18 -148 5z"/>
<path d="M5220 3736 c0 -60 45 -132 63 -100 9 15 72 20 81 6 3 -5 -8 -21 -23
-36 -18 -18 -31 -24 -35 -17 -4 6 -16 11 -27 11 -25 0 -25 -26 1 -109 29 -93
41 -103 57 -49 17 60 107 149 152 150 20 1 40 -7 55 -21 22 -21 25 -21 34 -5
7 12 5 32 -8 68 -9 28 -20 68 -24 89 -9 46 -23 47 -41 2 -12 -27 -22 -35 -49
-41 -42 -7 -155 27 -181 56 -25 28 -55 26 -55 -4z"/>
<path d="M415 3436 c-57 -25 -95 -93 -95 -168 0 -99 75 -163 183 -156 98 7
147 64 147 171 0 78 -18 109 -82 141 -57 28 -107 32 -153 12z m150 -111 c42
-17 52 -37 36 -71 -17 -38 -55 -48 -133 -34 -89 16 -121 50 -87 94 18 23 27
26 85 26 36 0 80 -7 99 -15z"/>
<path d="M5568 3405 c-12 -26 -123 -115 -143 -115 -14 0 -70 59 -79 83 -9 28
-41 17 -40 -13 1 -14 8 -98 15 -187 14 -171 23 -193 53 -134 13 25 22 29 77
35 112 11 131 9 155 -21 12 -16 25 -25 29 -21 8 8 -11 374 -21 389 -10 17 -34
9 -46 -16z m30 -177 c-3 -41 -4 -43 -39 -46 -24 -2 -40 2 -50 14 -12 14 -9 20
19 45 18 16 42 29 53 29 18 0 20 -5 17 -42z m-178 -10 c24 -26 25 -41 6 -57
-26 -22 -92 31 -80 63 9 23 50 20 74 -6z"/>
<path d="M583 3053 c-26 -28 -35 -31 -120 -38 l-93 -6 -10 25 c-11 30 -36 35
-42 9 -2 -10 -2 -46 0 -80 4 -67 20 -83 40 -39 6 14 22 26 42 30 45 8 110 8
110 -2 0 -14 -58 -42 -116 -55 -48 -11 -59 -18 -65 -38 -12 -48 4 -67 68 -75
123 -15 146 -19 145 -29 -2 -26 -142 -34 -162 -10 -7 8 -21 15 -32 15 -18 0
-19 -5 -13 -82 10 -124 18 -134 54 -73 l20 35 94 0 c87 0 95 -2 117 -25 33
-35 39 -18 31 83 -7 92 -14 102 -71 102 -90 1 -107 35 -30 59 101 31 94 21 86
119 -3 47 -11 91 -16 96 -5 5 -20 -3 -37 -21z"/>
<path d="M5330 2928 c0 -24 -2 -69 -6 -101 -5 -51 -3 -63 19 -96 58 -87 194
-96 267 -17 19 21 25 40 28 91 5 81 -9 119 -54 140 -41 19 -56 16 -60 -12 -3
-17 3 -23 29 -29 38 -8 47 -19 47 -60 0 -43 -19 -64 -68 -75 -84 -18 -167 27
-160 87 2 22 13 34 43 50 26 13 40 27 40 40 0 16 -8 19 -63 22 l-62 3 0 -43z"/>
<path d="M5305 2638 c-23 -105 -26 -123 -15 -126 7 -3 5 -11 -7 -24 -15 -17
-40 -115 -42 -170 -1 -25 24 -22 41 4 l15 22 87 -22 c114 -29 129 -28 160 8
32 39 48 93 44 150 -2 37 -8 48 -35 66 -17 11 -60 26 -95 33 -92 18 -108 26
-108 56 0 33 -37 35 -45 3z m197 -122 c30 -5 38 -12 43 -35 3 -16 3 -40 -1
-55 -5 -22 -11 -26 -43 -26 -68 1 -165 27 -183 50 -24 29 -23 40 7 72 24 26
25 26 82 13 32 -7 75 -16 95 -19z"/>
<path d="M626 2537 c-14 -34 -45 -51 -139 -76 -40 -10 -87 0 -87 19 0 5 -7 10
-15 10 -22 0 -19 -56 6 -110 19 -43 21 -44 35 -26 8 11 14 23 14 27 0 11 96
49 125 49 42 0 16 -32 -57 -67 -101 -50 -103 -52 -84 -97 16 -37 17 -38 54
-32 79 15 192 19 192 8 0 -31 -158 -69 -202 -48 -24 11 -23 -3 4 -91 17 -54
28 -73 41 -73 10 0 17 8 17 19 0 26 17 38 100 66 89 30 107 31 115 5 4 -11 15
-20 27 -20 18 0 19 4 13 43 -4 23 -15 65 -24 92 l-17 50 -77 3 c-42 2 -77 7
-77 13 0 8 30 30 106 75 17 10 17 15 5 69 -15 65 -40 125 -53 125 -4 0 -14
-15 -22 -33z"/>
<path d="M5195 2206 c-15 -39 -41 -106 -58 -149 -16 -42 -28 -78 -26 -80 2 -1
27 -10 54 -19 47 -17 51 -17 63 -1 10 15 8 21 -18 41 -34 27 -40 62 -11 62 20
0 158 -56 177 -71 7 -6 10 -17 8 -27 -2 -9 0 -23 5 -31 16 -24 35 1 71 90 35
88 31 120 -10 79 -25 -25 -36 -24 -130 15 -84 35 -100 49 -79 70 16 16 41 21
69 14 10 -3 15 4 15 19 0 19 -9 27 -51 42 l-51 18 -28 -72z"/>
<path d="M649 2017 c-99 -67 -105 -184 -13 -276 43 -43 44 -43 103 -39 45 3
68 11 96 32 78 60 94 129 50 215 -36 72 -65 91 -140 91 -48 0 -70 -5 -96 -23z
m185 -73 c38 -38 4 -94 -81 -134 -60 -28 -105 -24 -117 12 -13 37 6 69 58 99
72 42 115 49 140 23z"/>
<path d="M5072 1923 c-58 -83 -62 -126 -9 -102 14 6 36 9 49 6 26 -7 68 -42
68 -57 0 -6 -44 -10 -103 -10 l-103 0 -37 -62 c-31 -53 -35 -64 -23 -76 11
-12 17 -12 35 0 19 12 30 9 96 -27 71 -38 90 -58 97 -99 6 -36 27 -28 58 21
31 49 47 90 37 99 -3 3 -18 -1 -34 -9 -31 -16 -56 -11 -104 24 -51 36 -38 43
76 36 l104 -7 26 37 c14 21 25 43 25 50 0 6 -39 35 -87 64 -96 57 -134 87
-132 103 5 44 -12 47 -39 9z"/>
<path d="M946 1761 c-4 -6 -4 -21 0 -35 4 -19 1 -27 -18 -37 -12 -7 -46 -30
-75 -51 -48 -37 -55 -39 -97 -33 -59 9 -59 -2 -3 -74 54 -70 67 -74 67 -22 0
36 4 43 46 72 69 47 75 28 25 -76 -22 -47 -41 -92 -41 -100 0 -15 47 -75 60
-75 4 0 52 32 106 71 90 66 100 71 126 61 51 -19 46 14 -15 91 -34 44 -53 44
-49 0 3 -24 -5 -37 -37 -66 -23 -20 -46 -37 -51 -37 -19 0 -10 42 25 107 19
36 35 75 35 87 0 22 -67 117 -87 123 -6 2 -14 0 -17 -6z"/>
<path d="M4862 1583 c-46 -41 -192 -225 -192 -243 0 -23 1 -24 33 -9 30 14 51
3 124 -59 44 -38 52 -51 55 -84 2 -21 7 -39 13 -40 9 -2 89 86 184 201 l36 44
-49 43 c-26 24 -52 41 -58 38 -9 -6 -7 -39 7 -94 8 -33 -27 -80 -59 -80 -29 0
-60 34 -52 55 4 12 13 15 35 10 48 -10 47 13 -4 62 -52 49 -65 46 -65 -14 0
-37 -13 -42 -48 -17 -30 21 -28 50 8 86 31 30 55 34 102 13 12 -5 20 -2 24 10
5 12 -5 29 -33 56 -39 38 -41 38 -61 22z"/>
<path d="M1189 1438 c-1 -7 0 -29 1 -49 1 -25 -14 -65 -49 -137 -28 -55 -51
-107 -51 -113 0 -16 50 -69 65 -69 6 0 26 11 45 25 44 33 60 19 37 -30 -9 -20
-17 -41 -17 -48 0 -15 51 -67 66 -67 5 0 61 31 124 70 84 52 120 68 137 64 46
-12 22 23 -83 122 -59 54 -138 128 -176 164 -79 74 -98 87 -99 68z m135 -160
c8 -31 6 -41 -8 -57 -22 -24 -96 -62 -108 -55 -10 6 15 66 48 117 31 48 56 46
68 -5z m136 -102 c23 -28 7 -60 -50 -98 -79 -53 -93 -33 -40 60 32 55 64 68
90 38z"/>
<path d="M4585 1280 c-28 -23 -57 -49 -65 -58 -8 -9 -50 -43 -93 -76 -51 -38
-77 -65 -77 -78 0 -17 5 -20 36 -16 34 4 40 0 96 -65 52 -61 59 -73 54 -101
-12 -66 6 -61 105 24 52 45 118 102 147 126 63 55 67 74 15 73 -47 -2 -148 27
-169 48 -18 18 -13 63 11 110 34 65 10 70 -60 13z m-27 -139 c4 -54 -10 -71
-38 -46 -22 20 -25 46 -9 76 18 35 44 19 47 -30z m108 -97 c19 -9 34 -22 34
-30 0 -21 -46 -47 -70 -39 -29 9 -47 50 -30 70 16 19 24 19 66 -1z"/>
<path d="M1597 1074 c-3 -4 -2 -17 4 -31 14 -38 12 -45 -42 -127 -47 -70 -54
-76 -85 -76 -23 0 -34 -5 -34 -14 0 -8 62 -53 137 -100 l137 -85 28 42 c15 23
28 50 28 59 0 27 -20 32 -44 9 -37 -34 -103 -24 -126 19 -12 23 9 74 34 83 17
7 38 -23 34 -45 -2 -6 5 -13 14 -15 10 -3 26 10 42 34 38 56 35 66 -19 57 -25
-3 -45 -3 -45 0 0 23 32 76 45 76 52 0 109 -66 85 -96 -12 -14 3 -54 20 -54 5
0 23 21 41 47 l32 46 -29 24 c-26 21 -177 114 -230 141 -12 6 -24 9 -27 6z"/>
<path d="M4000 880 c-110 -55 -141 -74 -138 -88 2 -10 11 -16 22 -14 27 5 48
-19 91 -108 l39 -80 -22 -16 c-27 -18 -29 -44 -4 -44 10 0 55 18 101 40 86 42
99 63 43 68 -24 2 -36 11 -47 32 -27 53 -21 57 53 35 28 -9 29 7 2 69 -15 32
-27 46 -40 46 -16 0 -20 -7 -20 -31 0 -26 -3 -30 -22 -27 -12 2 -29 15 -37 30
-14 24 -14 28 3 47 29 32 82 38 116 12 55 -40 70 -22 39 49 -12 27 -25 50 -29
50 -4 0 -71 -32 -150 -70z"/>
<path d="M1931 746 c-58 -67 -90 -96 -111 -101 -63 -14 -44 -44 44 -70 58 -17
80 -7 53 23 -42 47 28 72 79 29 25 -22 25 -24 10 -40 -10 -9 -24 -17 -32 -17
-8 0 -14 -9 -14 -19 0 -14 19 -27 74 -50 41 -17 79 -31 85 -31 14 0 14 37 1
45 -11 7 -12 145 -1 222 4 29 4 59 -1 67 -8 14 -66 36 -95 36 -6 0 -48 -42
-92 -94z m99 -11 c20 -24 -3 -67 -32 -63 -29 4 -35 34 -12 59 21 23 28 24 44
4z"/>
<path d="M3668 755 c-56 -21 -85 -43 -99 -77 -30 -74 -2 -184 57 -223 66 -43
172 -27 228 36 57 63 57 139 -1 217 -45 60 -107 76 -185 47z m94 -82 c18 -30
23 -52 23 -108 l0 -70 -31 -3 c-25 -2 -37 3 -57 28 -27 31 -47 87 -47 128 0
42 18 62 55 62 28 0 37 -6 57 -37z"/>
<path d="M2260 725 c0 -9 7 -18 15 -21 21 -8 19 -54 -5 -135 -17 -56 -26 -72
-50 -84 -57 -29 -40 -41 115 -81 162 -42 152 -43 165 6 13 48 10 92 -6 97 -7
2 -22 -12 -34 -32 -19 -30 -27 -35 -61 -35 -50 0 -55 13 -39 93 19 90 36 127
58 127 11 0 25 6 31 14 16 19 0 29 -75 49 -77 21 -114 22 -114 2z"/>
<path d="M2553 668 c-6 -7 -14 -37 -18 -65 -6 -47 -5 -53 12 -53 10 0 28 16
41 35 22 34 45 45 56 26 6 -9 -7 -120 -20 -183 -3 -17 -14 -28 -30 -32 -17 -5
-24 -12 -22 -24 3 -17 35 -25 136 -34 65 -6 79 11 38 49 -21 19 -26 31 -22 51
3 15 8 52 12 83 3 31 10 62 15 70 13 21 43 -2 49 -37 4 -20 12 -30 28 -32 18
-3 22 1 22 26 0 16 3 43 6 60 7 37 7 37 -146 52 -63 6 -122 13 -131 16 -9 2
-21 -1 -26 -8z"/>
<path d="M3238 655 c-3 -3 -237 -14 -315 -15 -52 0 -58 -22 -13 -45 29 -15 30
-19 32 -83 2 -104 -2 -126 -23 -141 -19 -14 -25 -36 -11 -44 8 -6 382 10 388
16 10 9 -10 39 -31 47 -21 8 -24 18 -30 93 -8 96 -3 123 25 130 26 7 26 33 1
40 -11 3 -21 3 -23 2z m-100 -98 c-3 -30 -6 -32 -45 -35 -34 -3 -44 1 -53 18
-26 48 22 90 73 63 23 -12 28 -20 25 -46z m-14 -83 c20 -8 22 -72 3 -98 -11
-14 -17 -15 -42 -6 -35 13 -45 26 -45 61 0 42 37 61 84 43z"/>
</g>
</svg>
