<svg xmlns="http://www.w3.org/2000/svg" version="1.0" preserveAspectRatio="xMidYMid meet" viewBox="39 32 148 161">
<g transform="translate(0.000000,225.000000) scale(0.100000,-0.100000)" fill="#000000" stroke="none">
<path d="M390 1125 l0 -805 740 0 740 0 0 805 0 805 -740 0 -740 0 0 -805z m1430 0 l0 -755 -690 0 -690 0 0 755 0 755 690 0 690 0 0 -755z"/>
<path d="M1359 1711 c-62 -20 -91 -44 -132 -111 -19 -30 -22 -49 -22 -145 0 -122 17 -171 72 -215 70 -55 190 -68 270 -29 44 21 93 79 93 109 0 13 -69 58 -74 48 -30 -70 -78 -102 -140 -94 -83 10 -126 71 -126 178 0 37 5 79 11 95 36 97 165 120 230 42 l26 -32 36 25 37 25 -22 33 c-33 48 -90 74 -168 77 -36 1 -77 -1 -91 -6z"/>
<path d="M640 1450 l0 -260 175 0 175 0 0 45 0 45 -125 0 -125 0 0 70 0 70 105 0 105 0 0 40 0 39 -102 3 -103 3 -3 63 -3 62 121 0 120 0 0 40 0 40 -170 0 -170 0 0 -260z"/>
<path d="M757 1025 c-62 -24 -114 -71 -144 -133 -88 -180 37 -382 236 -382 201 0 332 207 242 381 -29 57 -56 85 -110 117 -54 31 -165 40 -224 17z m133 -6 c0 -7 9 -9 22 -6 15 4 33 -2 56 -20 29 -22 33 -30 28 -55 -5 -27 -3 -30 14 -25 10 3 24 -1 31 -9 6 -8 18 -14 25 -14 8 0 14 -4 14 -10 0 -15 -21 -12 -40 5 -14 13 -19 13 -38 -1 -12 -8 -22 -24 -22 -34 0 -10 -4 -21 -10 -25 -18 -11 11 -54 39 -57 21 -2 26 -9 28 -37 2 -19 -4 -45 -13 -59 -8 -13 -13 -26 -10 -30 3 -3 -1 -14 -11 -24 -28 -31 -5 -33 27 -3 41 39 38 15 -2 -26 -64 -63 -164 -85 -261 -58 -60 16 -141 101 -161 168 -20 67 -20 84 -1 148 16 55 86 143 113 143 15 -1 15 -2 2 -13 -23 -19 -48 -53 -31 -43 10 7 12 4 7 -12 -4 -12 1 -33 14 -54 17 -28 20 -30 20 -11 0 12 -8 26 -17 32 -17 9 -16 11 4 32 18 19 24 20 37 9 12 -9 16 -9 16 -1 0 14 61 42 74 34 5 -4 6 -1 2 5 -4 7 -1 12 10 12 14 0 14 3 4 15 -9 11 -16 12 -25 5 -6 -5 -15 -7 -19 -3 -4 4 8 13 26 19 43 16 48 16 48 3z"/>
<path d="M738 816 c-12 -17 -15 -34 -11 -60 3 -20 9 -36 14 -36 4 0 6 -31 3 -69 -3 -48 -1 -72 7 -77 8 -5 10 -2 6 8 -4 11 8 29 36 55 40 36 87 95 87 108 0 3 -14 11 -31 17 -19 7 -28 15 -25 24 8 20 -24 54 -49 54 -11 0 -28 -11 -37 -24z"/>
<path d="M1323 1010 c-97 -44 -113 -180 -28 -243 5 -4 42 -17 80 -28 104 -31 125 -40 136 -60 16 -32 0 -70 -38 -85 -55 -23 -124 -5 -171 46 -18 20 -18 20 -46 -9 -34 -36 -31 -59 13 -88 100 -68 285 -53 325 26 47 90 18 189 -64 223 -14 6 -54 17 -90 25 -74 16 -100 35 -100 73 0 36 20 51 73 57 32 4 53 -1 89 -21 l47 -25 25 33 c25 33 25 34 6 51 -51 46 -183 59 -257 25z"/>
</g>
</svg>