<?xml version="1.0" standalone="no"?>
<!DOCTYPE svg PUBLIC "-//W3C//DTD SVG 20010904//EN"
 "http://www.w3.org/TR/2001/REC-SVG-20010904/DTD/svg10.dtd">
<svg version="1.0" xmlns="http://www.w3.org/2000/svg"
 width="600.000000pt" height="450.000000pt" viewBox="0 0 600.000000 450.000000"
 preserveAspectRatio="xMidYMid meet">
<g transform="translate(0.000000,450.000000) scale(0.100000,-0.100000)"
fill="#000000" stroke="none">
<path d="M1696 4335 c-32 -32 -580 -831 -584 -851 -3 -15 17 -49 64 -110 131
-172 182 -320 191 -549 9 -223 -22 -397 -172 -965 -94 -355 -98 -554 -13 -757
45 -110 101 -189 207 -293 119 -118 228 -179 391 -219 68 -16 359 -62 655
-102 166 -22 236 -39 309 -76 55 -28 138 -108 162 -156 36 -70 79 -94 116 -65
9 7 28 33 43 58 65 108 155 171 297 210 40 10 188 35 328 55 289 40 488 76
587 106 300 91 533 358 588 674 30 175 16 279 -97 715 -129 498 -155 646 -145
857 8 204 66 356 194 509 35 42 63 84 63 95 0 18 -34 71 -383 584 -185 271
-203 295 -226 295 -9 0 -52 -14 -96 -30 -97 -37 -340 -101 -490 -130 -269 -52
-664 -72 -951 -50 -288 22 -609 85 -849 166 -142 48 -166 52 -189 29z m297
-190 c276 -81 588 -125 932 -132 450 -9 832 43 1224 169 52 16 96 26 100 21
24 -35 214 -316 339 -501 l151 -224 -50 -66 c-28 -37 -71 -107 -95 -157 -65
-131 -86 -222 -91 -392 -8 -232 15 -380 127 -803 68 -258 115 -468 125 -555
13 -119 -28 -314 -88 -415 -98 -169 -251 -297 -414 -349 -90 -29 -290 -65
-608 -111 -390 -55 -482 -88 -599 -210 l-58 -60 -44 49 c-102 113 -239 170
-484 201 -243 30 -585 85 -675 107 -255 63 -474 295 -531 563 -34 160 -17 262
145 880 68 261 85 377 85 605 1 190 -1 219 -23 300 -38 147 -117 307 -193 392
-13 13 -17 27 -12 35 10 17 484 699 496 715 7 9 23 7 66 -8 31 -11 110 -35
175 -54z"/>
<path d="M3055 3825 c-50 -49 -22 -106 56 -119 83 -13 112 -53 69 -96 -30 -30
-83 -27 -109 6 -29 37 -69 17 -43 -22 13 -21 77 -54 104 -54 60 0 108 47 108
108 0 46 -32 77 -100 96 -47 13 -60 21 -60 36 0 30 45 37 78 13 29 -21 52 -20
52 3 0 21 -60 54 -98 54 -22 0 -41 -8 -57 -25z"/>
<path d="M2765 3831 c-82 -6 -90 -8 -93 -27 -3 -20 0 -21 42 -17 l46 6 0 -128
c0 -112 2 -126 16 -121 9 3 20 6 25 6 6 0 9 6 8 13 -1 6 -1 60 0 120 l1 107
35 0 c31 0 35 3 35 25 0 14 -5 24 -12 23 -7 -1 -53 -4 -103 -7z"/>
<path d="M2513 3810 c-43 -17 -58 -84 -25 -113 10 -9 44 -19 76 -23 61 -7 86
-23 86 -55 0 -56 -92 -80 -128 -34 -18 23 -22 24 -36 9 -12 -11 -13 -20 -6
-33 10 -20 78 -51 111 -51 44 0 95 46 100 90 7 69 -26 105 -106 115 -68 8 -87
27 -50 51 26 17 28 17 60 0 34 -19 55 -15 55 8 0 17 -60 46 -92 45 -12 0 -33
-4 -45 -9z"/>
<path d="M3285 3685 l0 -135 69 -15 c52 -12 71 -13 82 -4 22 18 17 39 -10 39
-13 0 -38 3 -55 6 -30 6 -31 9 -31 56 l0 50 30 -7 c26 -6 30 -4 30 14 0 14 -8
21 -27 23 -22 2 -29 9 -31 32 l-4 29 61 -6 c59 -7 60 -6 52 16 -8 23 -51 35
-131 36 l-35 1 0 -135z"/>
<path d="M3495 3656 l0 -144 28 -5 c27 -4 27 -3 27 55 0 51 2 59 17 56 12 -2
24 -24 37 -70 16 -55 24 -68 44 -73 13 -3 26 -4 28 -2 3 2 -4 24 -14 48 -31
72 -34 104 -12 124 10 9 22 30 25 45 13 58 -29 91 -130 104 l-50 7 0 -145z
m120 81 c13 -10 16 -21 11 -40 -5 -23 -12 -27 -41 -27 -34 0 -35 1 -35 40 0
35 3 40 23 40 13 0 31 -6 42 -13z"/>
<path d="M2357 3771 l-68 -17 -2 -142 -2 -143 40 7 c85 14 120 29 123 52 4 26
0 26 -62 8 -54 -17 -59 -12 -54 50 3 34 7 39 38 47 43 11 42 10 34 31 -5 14
-14 16 -40 11 -31 -5 -34 -4 -34 19 0 29 25 46 69 46 26 0 31 4 31 25 0 14 -1
24 -2 24 -2 -1 -34 -9 -71 -18z"/>
<path d="M3737 3595 c49 -147 57 -165 77 -165 20 0 26 13 60 132 29 104 34
133 24 139 -21 14 -38 10 -38 -7 0 -22 -41 -134 -49 -134 -3 0 -19 37 -35 83
-32 89 -50 117 -77 117 -15 0 -10 -21 38 -165z"/>
<path d="M2082 3703 c-25 -9 -39 -19 -35 -25 3 -6 5 -74 4 -150 l-2 -140 23 4
c21 3 23 9 28 83 4 64 8 80 21 83 12 2 25 -14 45 -55 15 -32 29 -60 30 -61 1
-2 12 -1 23 3 19 6 19 8 -9 67 l-29 61 24 29 c14 16 25 42 25 57 0 58 -60 75
-148 44z m96 -47 c5 -23 -23 -46 -55 -46 -18 0 -23 6 -23 25 0 42 71 60 78 21z"/>
<path d="M3931 3535 c0 -85 4 -155 9 -155 5 0 16 -3 25 -6 15 -6 16 6 11 146
-5 148 -10 169 -39 170 -4 0 -7 -70 -6 -155z"/>
<path d="M1855 3618 c-39 -30 -55 -77 -55 -158 0 -103 30 -150 94 -150 35 0
81 42 94 88 17 55 15 147 -3 182 -31 60 -83 75 -130 38z m78 -46 c37 -41 30
-168 -12 -206 -47 -43 -87 20 -79 125 6 86 51 126 91 81z"/>
<path d="M4051 3604 c-41 -38 -61 -122 -43 -183 25 -81 86 -124 146 -102 34
14 43 38 22 59 -16 16 -18 16 -27 0 -14 -25 -42 -22 -70 8 -20 21 -24 36 -24
89 0 48 5 68 19 84 24 27 52 27 66 0 9 -16 14 -18 26 -8 34 28 9 66 -49 76
-28 4 -40 0 -66 -23z"/>
<path d="M1697 3544 c-50 -26 -67 -39 -63 -50 3 -9 6 -83 6 -165 0 -147 0
-149 20 -139 18 10 20 21 20 105 l0 94 40 12 c26 8 40 18 40 29 0 27 -10 30
-41 15 -38 -20 -39 -19 -39 15 0 26 7 33 50 55 35 18 50 31 50 45 0 26 -3 25
-83 -16z"/>
<path d="M4207 3423 l2 -158 70 -38 71 -39 0 29 c-1 23 -8 32 -43 48 -41 19
-42 22 -45 73 -3 56 1 61 36 36 21 -14 22 -14 22 10 0 17 -8 29 -27 38 -21 10
-29 22 -31 46 -2 17 0 32 4 32 4 0 27 -11 51 -25 41 -25 43 -25 43 -6 0 27
-22 47 -91 81 -32 17 -60 30 -61 30 -2 0 -2 -71 -1 -157z"/>
<path d="M2938 3378 c-30 -62 -74 -138 -97 -168 -23 -30 -37 -56 -31 -58 5 -2
10 -15 10 -28 0 -27 21 -32 40 -9 7 9 15 14 17 12 5 -6 -93 -186 -113 -208
-14 -16 -10 -49 7 -49 4 0 -7 -29 -26 -64 -29 -55 -32 -66 -20 -76 12 -10 20
-9 40 4 14 9 25 13 25 9 0 -16 -89 -125 -134 -165 -55 -49 -58 -63 -12 -55 34
5 35 5 25 -21 -6 -14 -14 -31 -18 -37 -11 -13 -23 -65 -16 -65 3 0 24 12 46
26 23 14 42 24 44 22 4 -4 -137 -192 -162 -217 -22 -22 0 -37 33 -22 15 6 29
9 32 7 2 -3 13 -1 24 5 17 9 18 8 9 -8 -5 -10 -28 -37 -51 -61 -22 -24 -40
-48 -40 -53 0 -6 -14 -24 -31 -40 -23 -21 -29 -34 -24 -49 4 -12 1 -27 -5 -35
-16 -19 6 -49 29 -40 9 4 36 8 61 11 25 2 56 6 70 10 14 3 39 7 57 8 20 1 41
12 58 30 20 21 29 26 35 17 9 -15 35 -4 64 28 11 12 23 21 28 21 4 0 8 -88 8
-195 0 -229 8 -213 -133 -270 -150 -61 -207 -87 -207 -95 0 -7 179 -9 445 -7
39 0 132 1 208 1 86 1 136 5 134 11 -3 10 -104 63 -227 120 l-65 30 -8 80 c-9
86 -3 308 9 339 6 16 9 15 24 -14 12 -24 30 -38 66 -51 27 -11 50 -15 52 -11
3 9 74 3 82 -7 3 -4 18 -17 34 -29 32 -25 58 -29 50 -8 -3 9 5 15 27 20 25 5
35 2 46 -14 20 -29 26 -25 41 21 12 38 11 43 -11 73 -24 31 -57 90 -57 101 0
3 9 1 19 -5 11 -5 27 -10 36 -10 13 0 14 4 4 23 -7 12 -25 39 -41 60 -22 27
-27 41 -20 50 8 9 6 16 -7 24 -21 13 -115 152 -108 160 3 2 15 -2 26 -9 18
-11 23 -11 30 0 5 9 17 11 34 6 37 -9 34 8 -7 40 -19 14 -57 56 -85 93 -51 69
-66 100 -33 70 17 -16 62 -13 62 3 0 5 -10 21 -23 37 -42 51 -68 92 -72 114
-2 12 -12 28 -22 36 -17 13 -16 14 5 8 33 -9 27 9 -23 65 -53 60 -56 74 -15
65 35 -8 37 -3 12 33 -26 38 -112 208 -112 221 0 7 10 9 27 5 l27 -7 -22 31
c-12 16 -39 68 -60 114 -60 128 -60 128 -124 -4z"/>
<path d="M2368 3043 l-98 -4 0 -44 c0 -45 0 -45 35 -45 28 0 36 -4 41 -24 3
-13 4 -212 2 -442 -3 -376 -5 -423 -21 -459 -24 -54 -52 -82 -103 -101 -79
-30 -173 8 -216 89 -23 42 -23 47 -26 474 -3 424 -3 432 18 453 13 13 20 33
20 60 l0 40 -92 0 c-51 0 -110 -3 -130 -6 -36 -6 -38 -9 -38 -44 0 -24 5 -40
15 -44 13 -5 15 -63 15 -444 0 -373 2 -446 16 -492 49 -165 204 -253 390 -221
117 21 181 69 228 171 l26 55 0 462 c0 447 1 463 19 473 11 5 29 10 40 10 18
0 21 6 21 45 0 45 0 45 -32 43 -18 -1 -77 -4 -130 -5z"/>
<path d="M3790 3036 c-87 -25 -166 -91 -197 -163 -18 -44 -17 -132 3 -178 22
-53 105 -132 266 -253 257 -193 326 -303 269 -427 -29 -65 -88 -111 -152 -119
-59 -7 -143 5 -186 28 -55 28 -97 91 -106 156 -3 22 -9 25 -51 28 l-47 3 3
-158 3 -158 48 -3 c47 -3 48 -3 45 25 -4 36 13 35 102 -3 55 -24 79 -29 155
-29 77 0 98 4 147 27 159 74 261 266 222 416 -29 112 -103 194 -312 346 -215
156 -256 212 -215 293 25 51 60 73 124 79 44 4 63 1 99 -18 53 -27 90 -78 90
-124 0 -40 4 -43 53 -37 l37 5 0 129 0 129 -49 0 c-27 0 -51 -4 -53 -10 -2 -6
-23 -4 -53 6 -70 21 -190 26 -245 10z"/>
<path d="M4273 1773 c-8 -3 -13 -26 -13 -63 0 -87 2 -89 63 -78 28 6 93 8 144
6 l93 -3 0 56 c0 56 -12 79 -40 79 -12 0 -15 -9 -12 -39 3 -33 1 -39 -20 -44
-12 -4 -35 -7 -50 -7 -25 0 -28 4 -28 31 0 26 -3 30 -22 27 -17 -2 -23 -10
-23 -28 0 -19 -6 -26 -26 -28 -22 -3 -27 2 -32 26 -3 16 -3 39 0 51 5 21 -6
26 -34 14z"/>
<path d="M1430 1724 c0 -46 50 -99 103 -109 52 -10 120 2 159 28 28 20 33 29
36 70 l3 47 -150 0 -151 0 0 -36z m240 -13 l24 -7 -21 -21 c-31 -31 -104 -40
-153 -18 -21 9 -40 26 -43 36 -5 18 1 19 81 18 48 -1 98 -4 112 -8z"/>
<path d="M4296 1599 c-23 -18 -26 -27 -26 -84 l0 -63 88 -6 c48 -4 111 -9 140
-13 50 -5 52 -4 52 19 0 23 -5 26 -56 31 -87 9 -88 22 -2 42 46 10 53 15 56
38 2 15 2 27 0 27 -2 0 -27 -7 -57 -15 l-54 -14 -27 30 c-34 35 -75 38 -114 8z
m86 -43 c4 -6 8 -23 8 -38 0 -26 -3 -28 -40 -28 -39 0 -40 1 -40 35 0 48 47
68 72 31z"/>
<path d="M1573 1597 l-143 -10 0 -69 c0 -65 1 -68 24 -68 22 0 23 3 18 45 -5
45 -4 45 26 45 17 0 37 3 46 6 12 5 16 0 16 -20 0 -21 5 -26 25 -26 20 0 25 5
25 25 0 22 4 25 35 25 33 0 35 -2 35 -35 0 -31 3 -35 25 -35 24 0 25 2 25 65
0 36 -3 64 -7 63 -5 -1 -72 -6 -150 -11z"/>
<path d="M1615 1444 c-55 -7 -119 -13 -142 -13 -43 -1 -51 -10 -37 -44 4 -11
13 -13 42 -6 61 14 71 11 86 -25 16 -39 51 -66 84 -66 31 0 81 30 88 53 7 22
-5 118 -14 116 -4 -1 -52 -8 -107 -15z m75 -63 c0 -41 -52 -54 -74 -18 -14 22
5 37 47 37 20 0 27 -5 27 -19z"/>
<path d="M4267 1423 c-4 -3 -7 -14 -7 -23 0 -13 22 -22 98 -39 118 -26 148
-47 103 -71 -15 -8 -39 -3 -103 21 -46 18 -88 36 -95 41 -8 6 -15 2 -23 -12
-6 -12 -10 -23 -8 -24 2 -2 49 -22 105 -44 108 -45 146 -47 178 -12 24 26 16
79 -16 102 -14 11 -68 30 -120 43 -107 28 -103 27 -112 18z"/>
<path d="M1748 1304 c-10 -9 -242 -63 -250 -58 -14 9 -9 -33 5 -44 7 -6 22 -9
33 -6 14 3 25 -5 42 -32 22 -34 23 -37 6 -55 -16 -18 -16 -20 1 -39 17 -19 18
-18 63 38 25 31 68 81 96 110 41 43 49 55 40 69 -12 19 -27 26 -36 17z m-73
-104 l-40 -41 -17 22 c-25 30 -23 34 20 46 74 21 80 17 37 -27z"/>
<path d="M4186 1263 c-28 -36 -33 -49 -24 -60 9 -11 14 -11 28 2 9 8 20 15 23
15 10 0 139 -109 164 -139 22 -25 23 -25 37 -6 9 11 15 22 15 25 0 3 -21 19
-47 37 -26 18 -69 52 -97 76 -43 38 -48 46 -37 60 11 13 10 17 -6 26 -17 9
-25 4 -56 -36z"/>
<path d="M1793 1212 c-11 -21 -48 -74 -81 -119 -44 -59 -57 -84 -49 -92 19
-19 31 -12 60 35 38 63 52 54 52 -34 0 -52 4 -73 14 -77 20 -8 23 -2 28 69 3
36 9 66 14 66 4 0 21 12 38 26 46 38 43 84 -6 129 -21 19 -40 35 -43 35 -3 0
-15 -17 -27 -38z m56 -46 c18 -22 -3 -56 -34 -56 -29 0 -32 16 -9 48 18 26 27
27 43 8z"/>
<path d="M4113 1199 c-8 -8 -1 -25 24 -62 19 -29 53 -85 75 -125 l40 -72 26
19 c79 58 85 66 73 89 l-12 22 -27 -25 c-15 -14 -32 -25 -38 -25 -7 0 -38 43
-70 95 -59 94 -70 105 -91 84z"/>
<path d="M1927 1174 c-12 -12 -8 -34 6 -34 37 -1 39 -14 19 -121 -11 -57 -22
-111 -24 -119 -2 -8 5 -16 17 -18 19 -3 23 8 45 113 24 113 25 115 52 115 21
0 28 5 28 20 0 14 -10 22 -37 29 -71 18 -99 22 -106 15z"/>
<path d="M4047 1174 c-3 -4 0 -18 7 -33 18 -35 56 -158 56 -182 0 -12 -7 -19
-19 -19 -21 0 -40 44 -67 153 -17 68 -20 72 -48 61 -11 -4 -13 -11 -6 -27 5
-12 19 -60 30 -106 26 -109 40 -131 85 -131 24 0 39 7 54 26 24 30 23 36 -21
172 -22 70 -34 92 -47 92 -10 0 -20 -3 -24 -6z"/>
<path d="M2085 1130 c3 -5 -3 -66 -15 -135 -11 -69 -20 -127 -20 -129 0 -2 11
-6 25 -8 23 -5 25 -2 26 31 0 20 4 45 9 56 7 17 9 16 10 -10 1 -16 5 -41 9
-55 7 -23 10 -21 34 30 20 43 26 50 26 30 1 -14 -3 -41 -9 -59 -11 -40 -13
-37 23 -46 27 -7 27 -7 27 43 0 51 16 191 26 225 4 14 -1 17 -26 17 -27 0 -33
-6 -54 -52 l-23 -53 -7 50 c-11 71 -13 75 -41 75 -15 0 -23 -4 -20 -10z"/>
<path d="M3836 1118 c-36 -51 -8 -198 45 -242 37 -31 58 -33 87 -6 27 26 28
56 2 70 -18 9 -20 8 -20 -15 0 -18 -5 -25 -20 -25 -40 0 -82 112 -66 175 7 26
34 33 53 14 8 -8 13 -5 18 11 9 27 -7 40 -52 40 -22 0 -37 -7 -47 -22z"/>
<path d="M3744 1122 c-9 -5 -5 -46 13 -153 25 -143 26 -146 50 -141 13 2 22
10 20 16 -3 6 -15 73 -28 149 -22 131 -29 146 -55 129z"/>
<path d="M2305 1024 c-4 -49 -11 -113 -16 -143 -5 -30 -8 -56 -6 -57 1 -1 30
-5 65 -9 57 -6 62 -6 62 13 0 15 -9 21 -41 26 -36 6 -40 9 -35 29 3 12 6 30 6
39 0 11 10 18 27 20 37 4 43 33 9 42 -22 5 -26 12 -26 42 l0 37 45 -5 c39 -5
45 -3 45 13 0 24 -7 27 -72 35 l-55 6 -8 -88z"/>
<path d="M3587 1104 c-14 -4 -16 -13 -12 -37 14 -82 25 -176 25 -220 0 -47 1
-48 28 -45 18 2 26 8 24 18 -2 8 -6 37 -9 64 -8 65 14 59 42 -12 17 -45 24
-52 47 -52 l27 0 -28 68 c-25 61 -27 71 -15 93 35 62 4 119 -66 124 -25 2 -53
1 -63 -1z m81 -46 c25 -25 1 -91 -26 -74 -14 8 -20 75 -7 80 17 7 20 7 33 -6z"/>
<path d="M3432 1075 c-26 -33 -35 -98 -22 -163 11 -60 14 -67 43 -99 27 -30
58 -29 92 2 19 19 25 32 21 48 -3 12 -6 41 -6 65 0 38 -2 42 -24 42 -39 0 -56
-11 -56 -35 0 -18 4 -22 21 -18 18 5 20 2 17 -33 -4 -47 -29 -57 -46 -19 -16
34 -26 127 -18 159 8 33 39 34 53 4 l11 -23 12 27 c11 24 11 31 -5 48 -25 28
-69 26 -93 -5z"/>
<path d="M2457 968 c-4 -68 -10 -133 -13 -145 -5 -20 -2 -23 20 -23 24 0 26 4
27 43 1 80 13 84 38 13 13 -36 27 -66 31 -66 5 0 15 -3 23 -6 17 -6 21 21 33
199 l6 97 -26 0 c-25 0 -25 -1 -28 -87 l-3 -88 -14 40 c-43 124 -53 145 -70
145 -16 0 -19 -14 -24 -122z"/>
<path d="M2640 1060 c0 -11 5 -21 10 -21 6 -1 15 -3 20 -4 6 -1 15 -3 20 -4 7
-1 8 -44 4 -126 l-7 -125 24 0 c21 0 24 5 24 37 1 21 2 78 3 127 l2 88 30 -4
c26 -4 30 -1 30 17 0 19 -7 23 -52 29 -91 10 -108 8 -108 -14z"/>
<path d="M2901 1064 c-47 -33 -65 -130 -40 -217 22 -82 84 -101 125 -39 46 68
43 195 -6 244 -33 32 -47 34 -79 12z m67 -124 c7 -92 -29 -154 -58 -101 -16
31 -12 143 6 170 15 21 18 21 32 7 9 -9 17 -39 20 -76z"/>
<path d="M3266 978 c-10 -57 -24 -124 -31 -150 -12 -47 -12 -48 11 -48 14 0
25 8 29 20 9 28 70 29 78 1 3 -14 11 -18 26 -14 12 3 21 8 21 12 -1 3 -18 67
-39 141 -31 109 -41 136 -57 138 -17 2 -21 -10 -38 -100z m62 -75 c10 -31 10
-33 -14 -33 -22 0 -24 3 -18 28 13 52 16 52 32 5z"/>
<path d="M3043 988 c4 -46 7 -113 7 -150 0 -64 1 -68 23 -68 22 0 22 3 19 75
l-4 75 31 0 c24 0 31 4 31 20 0 16 -7 20 -30 20 -27 0 -30 3 -30 30 0 29 2 30
46 30 41 0 45 2 42 23 -3 20 -9 22 -72 25 l-69 3 6 -83z"/>
</g>
</svg>
