<?xml version="1.0" standalone="no"?>
<!DOCTYPE svg PUBLIC "-//W3C//DTD SVG 20010904//EN"
 "http://www.w3.org/TR/2001/REC-SVG-20010904/DTD/svg10.dtd">
<svg version="1.0" xmlns="http://www.w3.org/2000/svg"
 width="600.000000pt" height="178.000000pt" viewBox="0 0 600.000000 178.000000"
 preserveAspectRatio="xMidYMid meet">
<g transform="translate(0.000000,178.000000) scale(0.100000,-0.100000)"
fill="#000000" stroke="none">
<path d="M0 890 l0 -890 3000 0 3000 0 0 890 0 890 -3000 0 -3000 0 0 -890z
m1010 240 l0 -560 -460 0 -460 0 0 560 0 560 460 0 460 0 0 -560z m980 0 l0
-560 -460 0 -460 0 0 560 0 560 460 0 460 0 0 -560z m967 547 c4 -5 10 -256
11 -558 l4 -549 -466 0 -466 0 0 541 c0 371 3 547 11 561 11 20 17 20 454 17
244 -2 447 -8 452 -12z m979 0 c4 -4 10 -255 12 -557 l5 -550 -467 0 -466 0 0
561 0 561 454 -4 c250 -1 458 -7 462 -11z m984 -547 l0 -560 -460 0 -460 0 0
560 0 560 460 0 460 0 0 -560z m980 0 l0 -560 -465 0 -465 0 0 560 0 560 465
0 465 0 0 -560z m-372 -722 c6 -6 12 -19 12 -29 0 -17 -8 -19 -65 -19 -57 0
-66 -3 -80 -24 -18 -27 -7 -69 20 -80 25 -9 55 -7 55 4 0 6 -5 10 -11 10 -6 0
-9 10 -7 23 3 19 9 22 48 22 42 0 45 -2 48 -29 6 -48 -6 -73 -43 -91 -62 -29
-139 0 -179 67 -23 39 -24 44 -10 77 19 47 33 59 80 76 41 15 109 11 132 -7z
m-5038 -78 l0 -90 60 0 c57 0 60 -1 60 -25 0 -25 -1 -25 -90 -25 l-90 0 0 115
0 115 30 0 30 0 0 -90z m1030 -25 l0 -115 -30 0 -30 0 0 115 0 115 30 0 30 0
0 -115z m937 54 l27 -61 29 61 c23 50 33 61 53 61 16 0 24 -6 24 -17 0 -26
-92 -213 -104 -213 -6 0 -37 52 -69 115 l-57 115 35 0 c34 0 37 -3 62 -61z
m1051 -51 l-3 -113 -27 -3 -28 -3 0 115 0 116 30 0 31 0 -3 -112z m975 53 l57
-60 0 37 c0 64 9 82 41 82 l29 0 0 -115 c0 -115 0 -115 -24 -115 -17 0 -41 19
-80 62 -31 34 -59 58 -63 54 -4 -4 -8 -31 -8 -59 0 -49 -1 -52 -27 -55 l-28
-3 0 115 c0 115 0 116 23 116 16 0 43 -20 80 -59z"/>
<path d="M525 1440 c-91 -18 -159 -64 -200 -135 -32 -54 -45 -180 -25 -250 16
-56 76 -127 133 -154 62 -30 242 -30 322 0 l55 20 0 94 c0 51 3 100 6 109 5
14 -6 16 -88 16 -93 0 -118 -8 -118 -37 0 -9 16 -13 50 -13 l50 0 0 -75 c0
-90 -6 -95 -108 -95 -81 0 -118 20 -167 89 -29 41 -30 47 -30 149 1 117 10
146 62 193 42 38 74 48 150 46 60 -2 75 -6 108 -31 36 -28 38 -28 51 -11 27
37 17 54 -38 69 -69 19 -163 25 -213 16z"/>
<path d="M1502 1428 c-7 -7 -12 -15 -12 -19 0 -9 -143 -346 -167 -394 -8 -16
-23 -51 -33 -77 -17 -45 -17 -48 0 -53 32 -10 45 5 76 88 l31 82 103 0 103 0
29 -70 c31 -77 57 -105 97 -105 60 1 59 4 -39 236 -135 322 -136 324 -157 324
-11 0 -24 -5 -31 -12z m41 -227 c31 -81 27 -101 -23 -101 -42 0 -90 11 -90 21
0 24 64 159 74 156 6 -2 24 -36 39 -76z"/>
<path d="M2320 1160 l0 -280 50 0 50 0 0 130 c0 99 3 130 13 130 7 0 50 -56
97 -125 52 -78 90 -125 100 -125 10 0 38 -3 64 -6 30 -5 46 -3 46 4 0 6 -41
68 -92 138 -51 70 -88 129 -82 131 5 2 25 12 44 22 82 43 107 150 52 212 -34
38 -80 47 -239 48 l-103 1 0 -280z m202 230 c46 -13 58 -34 58 -100 0 -71 -31
-100 -106 -100 l-54 0 0 93 c0 120 11 132 102 107z"/>
<path d="M3416 1343 c-25 -60 -79 -184 -120 -278 -41 -93 -72 -173 -70 -177 3
-4 18 -8 34 -8 30 0 30 0 81 143 l13 37 102 0 101 0 35 -92 35 -93 54 4 c30 1
55 4 57 6 2 2 -19 56 -46 122 -27 65 -77 186 -112 268 -59 143 -79 175 -106
175 -7 0 -33 -48 -58 -107z m83 -144 c27 -67 28 -75 13 -86 -19 -15 -71 -17
-106 -3 l-26 9 19 48 c59 148 56 146 100 32z"/>
<path d="M4385 1428 c-130 -46 -211 -187 -186 -322 27 -146 135 -236 281 -236
59 0 153 17 202 37 l38 15 0 110 0 109 -97 -3 c-93 -3 -98 -4 -101 -25 -3 -21
0 -23 47 -23 l51 0 0 -68 c0 -91 -15 -106 -104 -105 -67 1 -95 11 -139 52 -39
35 -53 66 -66 136 -8 45 -7 75 2 122 24 114 86 168 198 172 62 2 103 -10 137
-42 25 -23 37 -17 47 25 6 25 4 28 -46 42 -60 18 -217 20 -264 4z"/>
<path d="M5290 1160 l0 -280 130 -2 c72 -1 138 -2 147 -2 13 -1 18 8 19 31 l2
32 -99 -6 -99 -6 0 111 0 112 90 0 c89 0 90 0 90 25 0 25 -1 25 -90 25 l-90 0
0 95 0 95 99 0 98 0 -5 25 -4 25 -144 0 -144 0 0 -280z"/>
</g>
</svg>
