<svg xmlns="http://www.w3.org/2000/svg" id="linkedin-circle" viewBox="0 0 99.59 99.59">
  <path fill="currentColor" d="M56.82,7.025a49.795,49.795,0,1,0,49.8,49.795A49.795,49.795,0,0,0,56.82,7.025ZM43.534,80.893H32.6V45.572H43.534ZM38.016,40.946a6.518,6.518,0,1,1,6.465-6.517A6.492,6.492,0,0,1,38.016,40.946Zm46.49,39.947H73.626V62.353c0-5.085-1.932-7.924-5.953-7.924-4.376,0-6.662,2.956-6.662,7.924V80.893H50.525V45.572H61.011v4.757a12.319,12.319,0,0,1,10.644-5.835c7.49,0,12.851,4.573,12.851,14.034V80.893Z" transform="translate(-7.025 -7.025)"/>
</svg>