<?xml version="1.0" standalone="no"?>
<!DOCTYPE svg PUBLIC "-//W3C//DTD SVG 20010904//EN"
 "http://www.w3.org/TR/2001/REC-SVG-20010904/DTD/svg10.dtd">
<svg version="1.0" xmlns="http://www.w3.org/2000/svg"
 width="600.000000pt" height="450.000000pt" viewBox="0 0 600.000000 450.000000"
 preserveAspectRatio="xMidYMid meet">
<g transform="translate(0.000000,450.000000) scale(0.100000,-0.100000)"
fill="#000000" stroke="none">
<path d="M4707 3694 c23 -50 27 -73 27 -144 0 -107 -20 -175 -118 -398 -92
-209 -126 -315 -133 -417 -10 -143 34 -302 126 -459 44 -74 144 -196 161 -196
4 0 -3 34 -16 76 -54 171 -41 300 56 524 61 142 91 233 111 338 6 34 15 62 20
62 27 0 107 -151 139 -264 42 -148 46 -272 14 -470 l-5 -31 16 27 c25 44 71
176 96 278 33 137 34 377 1 500 -28 102 -84 224 -142 311 -88 130 -272 294
-353 314 l-27 7 27 -58z"/>
<path d="M278 2248 c-3 -964 -4 -1014 -21 -1043 -28 -46 -80 -77 -137 -83 -47
-4 -50 -6 -50 -33 l0 -29 321 0 320 0 -3 28 c-3 25 -7 28 -63 34 -71 9 -128
45 -156 98 -18 33 -19 74 -19 788 0 435 4 752 9 750 5 -1 160 -163 344 -358
470 -498 658 -687 1051 -1055 82 -77 183 -172 225 -212 66 -63 81 -72 114 -73
l37 0 0 1008 0 1007 23 40 c28 50 88 85 145 85 40 0 42 1 42 30 l0 30 -312 -2
c-310 -3 -313 -3 -316 -24 -3 -18 3 -22 43 -27 81 -12 151 -60 174 -120 12
-30 16 -1577 5 -1577 -3 0 -11 6 -17 13 -7 7 -59 62 -117 122 -58 61 -175 184
-260 275 -248 263 -427 447 -885 908 -391 393 -432 432 -462 432 l-33 0 -2
-1012z"/>
<path d="M3130 3244 c0 -8 14 -27 30 -41 54 -45 46 -62 -107 -210 -76 -73
-267 -253 -425 -400 l-288 -268 0 -57 0 -56 158 -144 c144 -132 412 -369 557
-494 33 -28 94 -80 135 -115 187 -161 476 -403 547 -457 170 -128 220 -144
473 -146 171 -1 175 -1 178 20 3 19 -3 23 -45 29 -72 10 -190 59 -267 110 -88
57 -167 123 -396 325 -747 660 -944 835 -1010 897 l-75 71 130 133 c259 266
631 631 690 676 33 25 85 58 115 72 50 24 66 26 180 26 138 0 171 -11 214 -68
21 -28 21 -38 27 -680 6 -538 10 -669 23 -747 52 -298 173 -479 391 -585 268
-130 643 -139 892 -21 264 125 389 303 449 636 14 80 18 194 23 732 l6 636 25
27 c35 37 92 65 135 65 31 0 35 3 35 25 l0 25 -302 -2 c-295 -3 -303 -3 -303
-23 0 -17 9 -21 52 -26 65 -8 111 -35 138 -79 19 -34 20 -53 23 -570 2 -336
-1 -594 -8 -694 -27 -375 -120 -548 -358 -665 -93 -47 -197 -65 -326 -58 -194
11 -308 57 -421 171 -86 86 -128 163 -161 293 -37 148 -46 333 -42 943 3 527
4 546 23 580 27 45 72 70 140 77 50 5 55 8 55 29 l0 24 -655 0 c-588 0 -655
-2 -655 -16z"/>
</g>
</svg>
