<?xml version="1.0" encoding="UTF-8"?>
<svg version="1.1" xmlns="http://www.w3.org/2000/svg" width="622" height="849">
<path d="M0 0 C2.44713853 1.22555881 4.88151258 2.47319245 7.3125 3.73046875 C10.26148903 5.12352316 13.2277201 6.19142576 16.3125 7.25 C22.57166752 9.40715292 28.61662713 11.92396619 34.6875 14.5625 C45.92509694 19.41368689 56.68421523 23.27795459 68.62597656 26.00268555 C74.04777475 27.25083856 79.37037444 28.66603583 84.69238281 30.28613281 C96.21565266 33.78403259 107.73073356 35.8190798 119.64111328 37.51464844 C123.20112391 38.02906195 126.75469282 38.57782361 130.30859375 39.1328125 C132.72648495 39.50571149 135.14445197 39.8781193 137.5625 40.25 C138.6860791 40.42547363 139.8096582 40.60094727 140.96728516 40.78173828 C151.43309221 42.35248109 159.22137351 41.88330837 169.4375 39 C183.91210434 35.18230381 195.14572846 34.3862512 209.54296875 39.125 C213.34114802 40.08634707 216.52912539 40.1298733 220.4375 40 C236.40213265 39.58769027 251.20591938 46.60799167 264.87890625 54.25 C275.85900911 60.38549548 286.44176479 65.8676988 298.4375 69.75 C322.6044307 77.58874933 342.6354371 90.51914377 360 109 C363.25609563 112.40226711 366.50151523 115.20018673 370.375 117.875 C380.02097721 124.82010359 386.92099793 133.55422008 394 143 C394.72711182 143.93158936 395.45422363 144.86317871 396.20336914 145.82299805 C403.97051252 156.00652085 409.33377213 167.15772923 414.8125 178.6875 C415.77794941 180.69625006 416.74451136 182.70446576 417.7121582 184.7121582 C419.61439286 188.6631102 421.50967877 192.61727421 423.39941406 196.57421875 C425.6410339 201.26185647 427.91586789 205.93209692 430.2109375 210.59375 C430.81689953 211.82971187 431.42262365 213.06579041 432.02807617 214.30200195 C433.09167043 216.47190949 434.15918857 218.63990074 435.23168945 220.80541992 C438.12817689 226.77102646 440.32653106 232.58747517 442 239 C442.49004517 240.85782104 442.49004517 240.85782104 442.98999023 242.75317383 C444.14634495 247.18264026 445.2641423 251.62143629 446.375 256.0625 C446.67230515 257.24662979 446.67230515 257.24662979 446.97561646 258.4546814 C450.23506579 271.47290394 453.04729358 284.51817118 455.51293945 297.71166992 C455.99859495 300.20017557 455.99859495 300.20017557 457.1015625 303.3203125 C458.4929612 309.01899762 458.34659563 314.71685476 458.4375 320.5625 C458.65473165 329.7945554 459.16098669 338.80701726 460.5625 347.9375 C462.17507026 358.48548326 462.49806158 368.3842483 461.2109375 379.01171875 C460.97791783 382.31283072 461.02403364 385.55532318 461.08325195 388.86206055 C461.32757047 403.93408444 461.13605806 426.82914918 450.54296875 438.76953125 C443.54747617 444.90536268 436.92652039 445.77999379 427.78515625 445.37890625 C422.97852248 444.89774683 419.78228106 443.98132742 416 441 C415.40058594 440.53722656 414.80117188 440.07445312 414.18359375 439.59765625 C405.19943183 431.66132315 401.35089124 419.70291235 400.25 408.125 C399.90519068 402.28787075 400.33641195 397.56441521 402 392 C402.55429465 390.00346294 403.09519318 388.00317436 403.625 386 C404.01558594 384.6078125 404.01558594 384.6078125 404.4140625 383.1875 C405.76189835 375.85527298 404.87752925 369.18008822 403.06640625 362.01953125 C402.86901352 361.20304611 402.67162079 360.38656097 402.46824646 359.54533386 C401.84260702 356.96526368 401.20315111 354.38887927 400.5625 351.8125 C399.92829634 349.22478501 399.29700212 346.6363852 398.66746521 344.04753113 C398.27680729 342.44508091 397.88298936 340.8433966 397.48548889 339.24263 C395.56687398 331.45268552 394.79087797 324.05231402 394.53515625 316.0390625 C394.4565503 313.85285846 394.37776845 311.66666074 394.29882812 309.48046875 C394.18003643 306.06697591 394.06344129 302.65343564 393.95043945 299.23974609 C393.06999399 273.00972874 391.30232829 253.99796948 375.63671875 232.28173828 C374.16833933 230.23468069 372.73293682 228.17030877 371.3125 226.08984375 C365.81131977 218.08585474 359.68100458 211.03414339 353 204 C351.24471288 202.08817411 349.49454021 200.17163747 347.75 198.25 C346.93402344 197.35152344 346.11804688 196.45304688 345.27734375 195.52734375 C342.74028025 192.71176899 340.23095881 189.8748138 337.75219727 187.0078125 C336.64081091 185.73429412 335.51808977 184.47050895 334.38037109 183.22045898 C329.8485097 178.20015333 326.04064325 172.88422835 322.3125 167.25 C315.64995199 156.88971388 315.64995199 156.88971388 304.8125 151.625 C291.70922665 147.53395406 282.30470986 138.70185914 272.98828125 128.87890625 C262.36702904 118.16218211 243.1563319 115.82705774 228.91796875 114.34106445 C219.87999742 113.38520826 212.11636945 110.87164111 203.88671875 107.0078125 C197.6875191 104.12126721 192.99214753 104.67369128 186.5625 106.4375 C181.12083148 107.89086488 175.95835459 108.35286262 170.34155273 108.58349609 C165.16342268 108.8331766 160.21495645 109.60392282 155.125 110.5625 C140.52062108 113.18160889 128.26448929 114.10618489 115.6640625 105.3828125 C112.414727 103.69620727 109.82980909 103.48346228 106.1875 103.1875 C97.52774504 102.23662495 89.96418543 99.38628086 82 96 C81.13310547 95.63310059 80.26621094 95.26620117 79.37304688 94.88818359 C73.49856906 92.38917006 67.65122499 89.83194789 61.81494141 87.24511719 C59.25956052 86.11480994 56.69911968 84.99708389 54.13671875 83.8828125 C43.73515385 79.32254178 33.53969026 74.37354249 23.375 69.3125 C22.7335202 68.99439362 22.09204041 68.67628723 21.43112183 68.34854126 C14.50637564 64.90822221 7.69696947 61.37063457 1.12768555 57.28125 C-5.54851781 53.26097287 -11.29011846 51.67805423 -19 51 C-19.05422119 51.91249512 -19.10844238 52.82499023 -19.16430664 53.76513672 C-20.5315382 75.5349389 -23.3587442 96.40386469 -28.29150391 117.65551758 C-29.76731774 124.62215222 -30.11456002 131.17484942 -30.02734375 138.26171875 C-30.01467585 140.2897117 -30.00231655 142.3177066 -29.99023438 144.34570312 C-29.96568855 147.49558828 -29.93795347 150.6453672 -29.90405273 153.79516602 C-29.72974077 171.12067757 -30.08906241 188.30395815 -34.0625 205.25 C-36.65086056 217.31159389 -37.30924033 228.67225362 -36.2734375 241.00390625 C-35.00727546 257.87879004 -36.49838314 273.50125751 -40 290 C-40.74670757 293.66331253 -41.47279894 297.33031681 -42.1875 301 C-42.35918701 301.87406494 -42.53087402 302.74812988 -42.70776367 303.64868164 C-43.86610218 309.74547485 -44.42075497 315.65154117 -44.72265625 321.8515625 C-45.09782702 326.11054339 -46.11368302 330.07959581 -47.28125 334.18359375 C-49.06395727 341.16909342 -49.0557323 347.85194568 -48.9375 355 C-48.85407981 363.14801833 -49.22411836 370.80944653 -50.66015625 378.84375 C-51.32545963 385.02265954 -49.66305808 390.6026407 -47.62890625 396.3828125 C-47.27244522 397.4148455 -47.27244522 397.4148455 -46.90878296 398.46772766 C-46.13604112 400.69023142 -45.35111152 402.90808061 -44.5625 405.125 C-44.29333771 405.88499298 -44.02417542 406.64498596 -43.74685669 407.42800903 C-39.26629991 420.02280855 -34.33221423 432.20503326 -28 444 C-27.55269531 444.8357959 -27.10539062 445.6715918 -26.64453125 446.53271484 C-18.91445326 460.79384262 -10.77655933 472.12497557 2.03442383 482.21386719 C8.65781909 487.4335823 15.28891072 492.93336608 20 500 C22.46894225 501.09892707 24.91856123 502.09518598 27.4375 503.0625 C34.27854082 505.8582713 38.94778203 509.25330952 44.26171875 514.45703125 C51.94186988 521.58938272 61.25116608 526.35828765 70.6875 530.75 C71.42734131 531.10263916 72.16718262 531.45527832 72.92944336 531.81860352 C86.98069143 538.08893436 102.14495966 540.63909028 117.3309021 542.2862854 C121.69672074 542.76028557 126.05740857 543.27698907 130.41796875 543.796875 C131.26126236 543.89692337 132.10455597 543.99697174 132.97340393 544.10005188 C140.28057578 544.98875648 147.4553917 546.30687429 154.65405273 547.83666992 C159.03885536 548.73672551 162.93417683 549.10930996 167.4375 548.875 C173.57576185 548.62089343 178.79534873 550.16292032 184.625 551.875 C203.69032251 557.42857213 224.03259848 558.75273626 243.74682617 556.07788086 C247.86701969 555.93546654 250.85787382 557.43347883 254 560 C259.8009762 566.48581367 263.99934841 575.5677855 264.5 584.3125 C263.73928911 589.92274283 261.29321907 593.18021257 256.9375 596.625 C247.008897 603.27266075 236.13256393 604.19321281 224.5625 604.1875 C223.39775146 604.18886963 222.23300293 604.19023926 221.03295898 604.19165039 C213.66625993 604.15004803 206.68570462 603.72704982 199.44140625 602.33984375 C196.86772906 601.79742172 196.86772906 601.79742172 194 603 C186.76111319 603.39264179 180.40251462 602.22329935 173.375 600.5625 C159.71513487 597.41225979 147.48500837 596.44366454 133.49609375 597.78125 C123.84834489 598.38490803 115.00493501 597.56089476 105.52978516 595.65625 C103.50546205 595.2510932 101.47796437 594.86669478 99.44921875 594.484375 C87.92250561 592.258027 77.96786737 588.79479334 67.75 583.0625 C61.95212645 579.89897773 56.32255392 577.1776079 50 575.25 C37.55677698 571.38143387 28.56202306 564.55113477 18.6640625 556.36425781 C16.60302586 554.67454643 14.49572243 553.05143214 12.375 551.4375 C9.35226044 549.11706982 6.475641 546.67248104 3.61376953 544.15673828 C-7.14467284 534.77850153 -18.14645923 526.65436415 -32.08203125 522.984375 C-37.39826338 521.19094729 -41.0438055 517.88035691 -45 514 C-46.27230469 512.78183594 -46.27230469 512.78183594 -47.5703125 511.5390625 C-62.96046958 495.16178164 -71.20145736 471.87360546 -79.76269531 451.39404297 C-80.05595703 450.69254623 -80.34921875 449.9910495 -80.65136719 449.26829529 C-81.23173109 447.87934642 -81.81133083 446.49007798 -82.39013672 445.10047913 C-84.39356579 440.3296574 -86.55946992 435.65507755 -88.79296875 430.98828125 C-91.23076441 425.86499946 -93.13497263 420.98349395 -94.375 415.4375 C-94.81972656 413.51744141 -94.81972656 413.51744141 -95.2734375 411.55859375 C-95.51320313 410.38425781 -95.75296875 409.20992188 -96 408 C-96.17724609 407.13906738 -96.35449219 406.27813477 -96.53710938 405.39111328 C-97.14040123 400.97142771 -97.14290125 396.63887962 -97.1328125 392.18359375 C-97.13376923 391.24951187 -97.13472595 390.31542999 -97.13571167 389.3530426 C-97.13638993 387.38550753 -97.13456041 385.41797018 -97.13037109 383.45043945 C-97.1250118 380.44412199 -97.13033123 377.43795351 -97.13671875 374.43164062 C-97.13605802 372.51562467 -97.13477698 370.59960881 -97.1328125 368.68359375 C-97.13483673 367.78764999 -97.13686096 366.89170624 -97.13894653 365.96861267 C-97.12340373 361.82104257 -96.92595913 358.05935466 -96 354 C-95.89243256 352.30273236 -95.82374666 350.6026629 -95.7890625 348.90234375 C-95.48034582 337.61051037 -94.78444935 327.47196809 -91.23779297 316.6809082 C-88.43920147 307.51263447 -88.00182198 298.17639929 -87.34326172 288.67651367 C-86.0200359 270.04007181 -86.0200359 270.04007181 -82 262 C-81.9619977 259.95603224 -81.98772525 257.91076195 -82.04296875 255.8671875 C-82.40225966 237.06708159 -80.90980245 219.7747167 -76.7265625 201.3671875 C-70.57977389 173.78806856 -69.40268586 145.36104228 -70.11010742 117.17871094 C-70.28551302 108.6669453 -69.46034933 101.20277882 -67 93 C-66.56900529 90.85699852 -66.14956402 88.71158362 -65.75 86.5625 C-64.50270247 80.53719498 -62.61974952 74.91765382 -60.5625 69.125 C-56.17595001 56.61593173 -54.40414847 43.84541852 -52.53955078 30.77148438 C-52.37825684 29.71123047 -52.21696289 28.65097656 -52.05078125 27.55859375 C-51.90938721 26.59880615 -51.76799316 25.63901855 -51.62231445 24.65014648 C-50.79997185 21.14817359 -49.22208759 18.64181722 -47.16015625 15.73828125 C-45.79927995 13.86466252 -45.79927995 13.86466252 -44.9375 10.8125 C-42.49641305 3.48923916 -36.49846335 0.42823776 -30 -3 C-20.28572581 -6.2380914 -8.99847839 -4.33729475 0 0 Z " fill="black" transform="translate(97,4)"/>
<path d="M0 0 C12.90448765 11.1838893 13.59661318 31.50957626 14.99267578 47.38452148 C15.63270869 54.3256105 16.68287159 61.0567842 18.140625 67.87109375 C18.8125 71.4375 18.8125 71.4375 18.921875 74.59765625 C19.2871897 82.29970778 22.51942794 85.81302674 28 90.8125 C30.56343029 93.07191332 33.17644924 95.26354711 35.8125 97.4375 C40.3952919 101.25153919 44.37030597 105.06477417 48.13671875 109.703125 C49.90609273 111.5343652 51.48533334 112.44376435 53.8125 113.4375 C53.461875 112.40625 53.11125 111.375 52.75 110.3125 C50.38800003 100.52464399 52.92162805 89.7800663 54.5 80 C54.63615723 79.06462402 54.77231445 78.12924805 54.91259766 77.16552734 C56.01203861 70.84855406 57.8246259 66.59998502 62.8125 62.4375 C67.26396667 59.81776229 71.94455416 58.11171974 76.8125 56.4375 C77.97458984 56.02177734 77.97458984 56.02177734 79.16015625 55.59765625 C84.54527683 54.34216571 89.0738415 56.39172161 94 58.4375 C94.67788574 58.71553467 95.35577148 58.99356934 96.05419922 59.2800293 C101.77717093 61.89140738 106.19457191 65.53734767 108.65209961 71.46142578 C109.29280631 73.63202429 109.76944995 75.77601221 110.1875 78 C110.34686035 78.78358887 110.5062207 79.56717773 110.67041016 80.37451172 C112.56215132 90.37371501 112.52597428 99.60115572 109.8125 109.4375 C109.53346417 113.83231429 109.7045576 117.25141108 110.859375 121.47265625 C112.35259306 127.97321204 111.58352378 134.31909476 111.08984375 140.91015625 C110.52203247 149.98305558 111.08526008 157.37609236 117.01953125 164.55078125 C123.38712128 171.25131717 131.36285927 175.66174154 139.21777344 180.38330078 C144.74270423 183.7233412 149.86525875 187.28143606 154.8125 191.4375 C156.62067988 192.92194461 158.43328523 194.40101298 160.25 195.875 C161.07371094 196.55433594 161.89742187 197.23367188 162.74609375 197.93359375 C164.65605716 199.6336481 164.65605716 199.6336481 166.8125 199.4375 C169.84768045 190.901055 169.28997024 183.13772356 167.3125 174.375 C161.96983879 149.31537481 169.50033484 125.61858295 182.375 104 C188.76507507 94.80961231 197.40931917 88.44556604 208.37890625 85.82421875 C216.66730412 84.50712182 224.73760857 85.35470627 232.01171875 89.7734375 C238.97677413 95.21281409 243.9029395 104.25811477 245.19140625 113.01171875 C245.68373679 121.36038776 243.68063141 126.50934665 239.73974609 133.60717773 C237.06944683 138.52542692 235.9459402 142.52254473 236.04296875 148.203125 C235.7506263 151.03736025 234.55277814 152.23404706 232.8125 154.4375 C232.36744424 158.44300187 232.46930833 160.76541631 234.3125 164.375 C236.16926729 168.16589988 236.40579319 171.32737081 235.8125 175.4375 C235.34923327 176.77436507 234.85207162 178.09979304 234.328125 179.4140625 C232.32915326 185.22249646 232.28990937 190.90530672 232.1875 197 C232.12676189 199.33468192 232.06426966 201.66931888 232 204.00390625 C231.97164063 205.12039551 231.94328125 206.23688477 231.9140625 207.38720703 C231.79083816 211.08808432 231.50248002 214.74829655 231.1875 218.4375 C230.00558383 237.50841859 231.77932804 255.03035301 237.00830078 273.37841797 C237.84756752 276.57089284 238.50190965 279.76190224 239.12109375 283.00390625 C241.6871254 296.08785851 244.66410929 304.600222 254.29736328 313.89892578 C256.79752133 316.43775853 258.87878634 319.26911802 261 322.125 C261.82165544 323.20538743 262.64454867 324.28483476 263.46875 325.36328125 C264.2421875 326.37777344 265.015625 327.39226562 265.8125 328.4375 C275.45675497 341.01461609 286.28408543 352.29577849 299.24536133 361.4453125 C311.28403364 369.9472799 322.49909604 379.74546842 331.2265625 391.69921875 C336.17696967 398.47927432 340.86388794 403.25540234 347.80859375 408.16015625 C366.0260646 421.97132075 388.71778107 453.8180355 392.1484375 476.67578125 C392.25791734 482.48916065 391.33063285 487.66964235 387.8125 492.4375 C383.89114886 494.23478594 382.16061901 493.8725659 378.11328125 492.56640625 C374.94930293 491.30495084 371.88918526 489.89845361 368.8125 488.4375 C367.79285156 487.99019531 366.77320313 487.54289062 365.72265625 487.08203125 C359.35222981 484.15507856 354.40918269 480.74068919 349.359375 475.87890625 C347.30969902 473.91410949 345.23064265 472.06236817 343.078125 470.21484375 C337.61208776 465.46112904 332.59912212 460.2716754 327.5234375 455.109375 C324.02651014 451.57639684 320.52296209 448.12875404 316.74609375 444.89453125 C312.49288086 441.23704182 308.68486583 437.236366 304.875 433.125 C304.17624756 432.37589355 303.47749512 431.62678711 302.75756836 430.85498047 C300.77067074 428.7205718 298.79014663 426.58047873 296.8125 424.4375 C296.08933594 423.65608643 296.08933594 423.65608643 295.3515625 422.85888672 C291.21934799 418.38178629 287.26717646 413.80079917 283.4375 409.0625 C279.41523972 404.08723032 275.16493515 399.404283 270.78125 394.75 C268.26583734 392.01900594 265.9582937 389.14688935 263.63671875 386.25 C258.79586962 380.2988459 253.5614423 374.84390407 248.125 369.4375 C247.64649597 368.95882477 247.16799194 368.48014954 246.67498779 367.98696899 C240.52229046 361.84361837 234.25848363 356.06540409 227.26635742 350.88745117 C222.43506732 347.28732947 218.55197715 343.14087964 214.8125 338.4375 C213.85972168 338.89898437 212.90694336 339.36046875 211.92529297 339.8359375 C207.39136824 341.76747654 202.87236359 342.43983746 198.0078125 343.0625 C197.05391632 343.18802246 196.10002014 343.31354492 195.11721802 343.44287109 C184.47261799 344.74462891 173.81272331 345.06780326 163.10098267 345.3458252 C134.14827016 346.12339887 106.98404306 348.34387298 78.8125 355.4375 C67.60103708 358.2068844 54.96275616 361.00628727 43.8125 356.4375 C37.2553366 352.41619753 32.28071367 347.842141 29.8125 340.4375 C28.75352334 333.03979158 30.76692546 327.59544912 34.8125 321.4375 C47.89417163 304.30734199 66.1913097 298.97546137 86.71447754 296.01953125 C95.03287944 294.94403173 103.37372161 294.04475226 111.71411133 293.15844727 C127.39418963 291.47387004 142.06187407 289.68568684 155.8125 281.4375 C152.09894926 271.14250784 143.95351557 263.18802765 136.546875 255.3828125 C134.831281 253.57125558 133.30073935 251.78271878 131.7578125 249.80859375 C119.25778574 234.57261736 90.65855647 220.2436944 71.125 218.3125 C60.86751727 217.58722344 51.92354403 221.17822146 42.3984375 224.5625 C38.72990361 225.8038166 35.0186713 226.74377761 31.25 227.625 C26.41209497 228.77641151 21.67712112 230.05619434 16.9375 231.5625 C-4.70764861 238.32494495 -4.70764861 238.32494495 -13.80859375 234.26953125 C-19.24407399 230.79760709 -23.16308744 227.20341391 -25.4375 221.0625 C-27.2653289 212.22799367 -25.43654762 205.69071558 -20.75 198.11328125 C-13.95553746 188.75456242 -4.80106719 181.87563539 5.8125 177.4375 C7.00746094 176.921875 8.20242187 176.40625 9.43359375 175.875 C17.77584079 172.42670589 25.48879679 170.6119931 34.484375 169.859375 C37.46875167 169.48107373 39.28477003 168.99499019 41.8125 167.4375 C41.131875 167.1075 40.45125 166.7775 39.75 166.4375 C36.4773356 164.20930296 34.36822633 161.75394592 31.828125 158.75 C26.9544405 153.158486 21.65797759 147.90897526 15.9375 143.1875 C12.19101788 139.99241545 9.09880859 136.38079805 5.9375 132.625 C-4.27155762 119.26942268 -4.27155762 119.26942268 -18.609375 112.07421875 C-22.84038265 112.16650583 -26.74598175 112.48253571 -30.875 113.4375 C-43.85737518 116.28183885 -61.21176947 115.63921759 -73.1875 109.4375 C-77.82323464 105.24870839 -80.7058825 100.83660814 -81.59375 94.5703125 C-81.87822977 85.44325314 -81.87822977 85.44325314 -78.6875 81.4375 C-69.30982602 72.39002581 -56.9951367 72.11268626 -44.6875 71.8125 C-43.388125 71.77382812 -42.08875 71.73515625 -40.75 71.6953125 C-37.56263714 71.60156653 -34.3752721 71.51585651 -31.1875 71.4375 C-31.30867188 70.76807373 -31.42984375 70.09864746 -31.5546875 69.40893555 C-32.1087651 66.31595716 -32.64818669 63.22058554 -33.1875 60.125 C-33.37828125 59.07248047 -33.5690625 58.01996094 -33.765625 56.93554688 C-35.71879145 45.60020585 -35.26993422 35.07500483 -33.9375 23.6875 C-33.82792969 22.60339844 -33.71835938 21.51929688 -33.60546875 20.40234375 C-32.78484704 13.32772083 -31.75968869 7.7802119 -26.36328125 2.73046875 C-17.92100222 -2.27826284 -9.19472564 -4.50721845 0 0 Z " fill="black" transform="translate(168.1875,161.5625)"/>
<path d="M0 0 C10.20669034 9.42156031 13.86454657 20.90553985 14.51914787 34.47009277 C14.69561209 40.54465025 14.71976231 46.62032502 14.73396301 52.69711685 C14.74232964 56.16039979 14.76289887 59.62342874 14.78649902 63.0866394 C14.84258006 71.67320348 14.87823228 80.25982854 14.91412354 88.84649658 C14.94532849 96.13481111 14.98444352 103.42299731 15.03437805 110.71120834 C15.05445944 114.12528936 15.06276346 117.53927189 15.07067871 120.95339966 C15.08364301 123.03420376 15.09716211 125.11500451 15.11132812 127.19580078 C15.11034622 128.14641891 15.10936432 129.09703705 15.10835266 130.07646179 C15.11662582 130.94528488 15.12489899 131.81410797 15.13342285 132.70925903 C15.13782253 133.84124316 15.13782253 133.84124316 15.1423111 134.99609566 C15.2919085 137.28881904 15.2919085 137.28881904 17.3984375 139.96875 C22.56235579 141.6900561 27.99134986 141.02228552 33.3984375 140.96875 C33.3984375 148.22875 33.3984375 155.48875 33.3984375 162.96875 C21.91474173 166.64353265 9.5677045 168.07911107 -1.75390625 163.00390625 C-6.96494213 160.12182496 -10.34275199 156.5077462 -12.6015625 150.96875 C-13.22720027 147.96195356 -13.52344677 145.03656785 -13.6015625 141.96875 C-14.27960938 142.53722656 -14.95765625 143.10570312 -15.65625 143.69140625 C-33.99767765 158.90818625 -50.81146921 167.26124891 -74.9140625 167.40625 C-75.99888916 167.4163208 -77.08371582 167.4263916 -78.20141602 167.43676758 C-92.27782781 167.28538522 -106.39701904 162.85561968 -116.79296875 153 C-128.53347686 139.81411616 -130.78762876 125.56391177 -129.82910156 108.50634766 C-128.73069551 96.25652741 -122.75306531 85.16769561 -113.859375 76.78125 C-104.53732076 69.29780161 -93.20354179 65.40556099 -81.546875 63.51171875 C-80.37862938 63.31956787 -80.37862938 63.31956787 -79.18678284 63.12353516 C-68.77337972 61.4581022 -58.28833913 60.32662396 -47.80883789 59.16650391 C-45.1436485 58.86949491 -42.48005347 58.56049544 -39.81640625 58.25 C-39.02249985 58.16552612 -38.22859344 58.08105225 -37.41062927 57.99401855 C-30.86156126 57.2189123 -23.94664226 56.25520276 -19.1015625 51.53125 C-15.17247377 44.81905676 -15.53818538 35.66251014 -17.21484375 28.26171875 C-19.76421029 21.66930396 -24.31412954 18.16605939 -30.4765625 15.0078125 C-43.73166379 9.42962404 -60.84116392 8.9822637 -74.30078125 13.96875 C-82.70958964 17.78979298 -87.06801474 23.01972482 -90.7421875 31.3671875 C-91.9914688 35.14910271 -92.73754762 39.08068304 -93.6015625 42.96875 C-102.8415625 42.96875 -112.0815625 42.96875 -121.6015625 42.96875 C-120.35327874 26.74106112 -117.39587002 14.34931776 -106.6015625 1.96875 C-79.05832752 -20.94471044 -28.3563267 -22.1400749 0 0 Z M-18.515625 76.703125 C-30.82740337 81.31560681 -44.03213802 82.96458013 -57.0078125 84.7109375 C-78.50175556 87.48288274 -78.50175556 87.48288274 -95.6015625 99.96875 C-99.88355119 106.25792089 -100.04393854 113.19176902 -98.9765625 120.53125 C-97.28261254 128.60574482 -93.43875321 134.2765603 -86.6015625 138.96875 C-73.7418105 145.28582116 -59.49864547 143.07624643 -46.3046875 138.93359375 C-34.54976275 134.44175074 -24.61121768 127.22267974 -18.6015625 115.96875 C-15.01090558 107.6509117 -15.24614741 99.22529659 -15.4140625 90.34375 C-15.42914644 88.94402492 -15.44282825 87.544284 -15.45507812 86.14453125 C-15.49017129 82.75219156 -15.53933985 79.36068225 -15.6015625 75.96875 C-16.78764047 75.90904785 -16.78764047 75.90904785 -18.515625 76.703125 Z " fill="black" transform="translate(511.6015625,682.03125)"/>
<path d="M0 0 C12.03317834 11.23911074 16.03466943 23.89308252 17.49609375 39.96875 C7.92609375 39.96875 -1.64390625 39.96875 -11.50390625 39.96875 C-12.49390625 36.33875 -13.48390625 32.70875 -14.50390625 28.96875 C-17.94406949 21.77568141 -22.08847976 17.99718753 -29.50390625 14.96875 C-44.54842843 10.89226904 -60.98954194 9.87781815 -75.19921875 17.39453125 C-80.21854344 20.97844021 -83.21686429 24.88048194 -84.50390625 30.96875 C-85.03754289 36.61298368 -84.94310047 41.23985794 -81.50390625 45.96875 C-69.88526647 56.36930658 -48.69419786 58.57268624 -34.03222656 62.16650391 C7.84764588 72.46684482 7.84764588 72.46684482 17.8046875 88.01171875 C24.13610429 100.00198425 24.26983496 114.51038821 20.93359375 127.46875 C16.06866696 142.11474013 6.05486012 152.86901282 -7.50390625 159.96875 C-20.02400767 165.30426109 -31.56492009 167.32732123 -45.10620117 167.28442383 C-47.170957 167.28128113 -49.23425001 167.30474135 -51.29882812 167.33007812 C-70.40149124 167.42142124 -90.19321313 163.06119744 -104.75390625 149.94140625 C-116.41535389 137.72780674 -119.50390625 123.3925478 -119.50390625 106.96875 C-109.93390625 106.96875 -100.36390625 106.96875 -90.50390625 106.96875 C-89.84390625 110.59875 -89.18390625 114.22875 -88.50390625 117.96875 C-85.73697535 126.24809363 -80.85427252 132.26816955 -73.03515625 136.21484375 C-57.94184465 142.27436444 -39.39575161 143.01355955 -24.09375 137.19921875 C-17.59322498 134.11073401 -12.99849478 130.25900935 -9.50390625 123.96875 C-7.51324673 117.99677144 -7.48627552 111.30082042 -10.00390625 105.53125 C-15.22613202 100.17846858 -21.57102997 97.22290984 -28.62109375 94.9921875 C-29.38928436 94.74270355 -30.15747498 94.4932196 -30.94894409 94.23617554 C-41.62593826 90.8630691 -52.57621777 88.42909708 -63.48681641 85.94238281 C-79.72140832 82.2196949 -99.42509842 77.48690272 -109.08203125 62.5234375 C-115.75435315 49.98407393 -116.09480712 36.71335523 -112.54296875 23.0703125 C-107.89667971 9.20131439 -98.63154421 -0.97428328 -85.6171875 -7.47265625 C-58.87018743 -19.18539484 -23.41031683 -18.99120866 0 0 Z " fill="black" transform="translate(172.50390625,682.03125)"/>
<path d="M0 0 C19.84523658 -0.44332329 36.37901794 4.69934925 50.97265625 18.30859375 C62.62790469 30.51885402 68.28515625 47.45847741 68.28515625 64.12109375 C58.71515625 64.12109375 49.14515625 64.12109375 39.28515625 64.12109375 C38.29515625 60.16109375 37.30515625 56.20109375 36.28515625 52.12109375 C32.81767644 43.25275146 27.22371142 36.20233505 18.6953125 31.77734375 C6.88027765 26.80259223 -5.67464363 26.6984843 -17.71484375 31.12109375 C-29.13846077 36.68954115 -36.03893843 45.45559987 -40.71484375 57.12109375 C-48.34843993 80.38171511 -49.44775756 109.74994273 -39.0859375 132.44140625 C-33.52431055 143.31113869 -26.50772132 150.56190131 -14.671875 154.40234375 C-2.25794545 157.41973217 8.64565051 156.3960689 19.6796875 149.9375 C31.43946877 141.73915174 35.64837505 129.45595815 39.28515625 116.12109375 C48.85515625 116.12109375 58.42515625 116.12109375 68.28515625 116.12109375 C68.28515625 133.7840712 60.32706781 151.2907237 48.28515625 164.12109375 C47.71796875 164.74113281 47.15078125 165.36117187 46.56640625 166 C42.41833142 170.06620493 37.65838652 172.73328327 32.53515625 175.37109375 C31.90416016 175.70061035 31.27316406 176.03012695 30.62304688 176.36962891 C20.30060017 181.42990556 9.85552477 182.65764982 -1.52734375 182.55859375 C-2.75984863 182.55029541 -3.99235352 182.54199707 -5.26220703 182.53344727 C-25.37511382 182.16039599 -42.24353406 175.03812301 -56.82421875 161.10546875 C-65.07221744 152.47384222 -70.29763631 142.19388305 -74.08984375 130.99609375 C-74.32848145 130.29299072 -74.56711914 129.5898877 -74.81298828 128.86547852 C-78.24525144 118.05372548 -79.079887 107.28913897 -79.02734375 95.99609375 C-79.0217041 94.72145264 -79.01606445 93.44681152 -79.01025391 92.13354492 C-78.67283551 65.77649075 -71.91849227 40.12539644 -52.71484375 21.12109375 C-51.72097656 20.07695313 -51.72097656 20.07695313 -50.70703125 19.01171875 C-37.45998006 6.01651264 -18.08820702 0.80681211 0 0 Z " fill="black" transform="translate(294.71484375,666.87890625)"/>
</svg>
