<svg xmlns="http://www.w3.org/2000/svg" xmlns:xlink="http://www.w3.org/1999/xlink" version="1.1" id="Layer_1" x="0px" y="0px" enable-background="new 0 0 1200 1200" xml:space="preserve" viewBox="73.01 72.85 1055.96 1056.37">
<path fill="currentColor" opacity="1.000000" stroke="none" d=" M113.640030,804.353821   C95.217300,760.364624 82.900803,715.059021 77.226761,668.129883   C64.017914,558.881226 81.627998,454.868469 132.767639,357.172241   C186.859741,253.835785 266.930786,176.808640 371.512390,125.388977   C418.495453,102.288811 468.132751,87.175842 519.857544,79.162048   C563.012817,72.475945 606.417419,71.008659 649.891907,75.214203   C755.708801,85.450462 850.365967,123.588875 932.972778,190.569550   C1015.874329,257.789215 1073.346313,342.611786 1105.304932,444.488251   C1123.813477,503.489044 1131.295532,563.985901 1128.334106,625.770447   C1123.883667,718.621399 1097.093140,804.523254 1047.323730,882.996643   C994.458923,966.350708 923.615967,1030.045166 835.289673,1074.220703   C788.889709,1097.427124 740.024414,1113.143433 688.920105,1121.733521   C640.520508,1129.869019 591.801575,1131.622559 543.048340,1125.794800   C401.613953,1108.888184 285.068939,1045.505371 193.464554,936.590576   C160.065781,896.880371 133.736191,852.662720 113.640030,804.353821  M465.287537,966.171631   C484.334656,974.436523 504.327606,979.198547 524.816040,981.979553   C555.360718,986.125732 585.929932,985.969788 616.493591,982.059692   C652.320496,977.476257 686.459229,967.576050 717.459045,948.644226   C756.962646,924.518982 785.601501,891.685303 795.293091,845.296204   C803.002625,808.394409 796.825134,773.816040 773.866760,743.079102   C758.060730,721.917969 737.822449,705.315796 717.604004,688.705017   C706.672729,679.724121 695.252502,671.263428 684.947632,661.612671   C669.009155,646.685913 667.110352,625.432007 680.142822,607.904358   C686.243652,599.699280 693.794006,592.486084 701.209412,585.367126   C709.609192,577.303345 718.942871,570.205750 727.263611,562.067444   C761.575623,528.507812 773.894958,487.596039 767.248413,440.470062   C765.284058,426.542480 761.011902,413.363525 754.895508,400.585510   C783.488037,376.056305 811.935303,351.651703 840.983093,326.731903   C840.983093,356.110657 841.026123,384.431610 840.866089,412.751343   C840.857361,414.297333 839.518982,416.345764 838.184143,417.295441   C824.633301,426.936707 817.136719,439.933502 817.072144,456.577698   C816.885193,504.740875 816.879211,552.905640 817.052551,601.068909   C817.147827,627.542969 838.501587,648.813049 864.593567,648.984863   C890.998718,649.158691 912.793091,628.018433 912.921753,601.382812   C913.155212,553.053406 913.133728,504.721497 912.913940,456.391998   C912.840271,440.188416 905.744507,427.166199 892.332214,417.969696   C889.543274,416.057343 888.959412,414.085510 888.965454,411.055084   C889.039673,373.890747 889.421631,336.718475 888.727844,299.566833   C888.539185,289.460388 890.682007,282.237244 899.317383,276.700348   C903.999512,273.698242 907.819946,269.352112 912.719421,264.998901   C777.023376,264.998901 642.534729,264.989258 508.046234,265.096405   C506.150391,265.097931 503.856415,266.120422 502.417938,267.412170   C435.234253,327.740936 368.122742,388.150085 301.009399,448.557220   C289.309204,459.088287 277.637238,469.650696 264.919464,481.130920   C320.035919,481.130920 373.856445,481.130920 427.478546,481.130920   C427.983704,486.916443 428.213409,492.078796 428.914429,497.176361   C434.648865,538.872253 454.516968,571.985718 489.688232,595.344299   C516.545715,613.181335 546.600220,619.567810 578.502502,618.240784   C585.236816,617.960693 591.956177,617.320129 599.522644,616.786377   C581.444214,652.619019 592.334290,682.752930 616.518799,710.457886   C598.241821,712.333008 580.712341,713.846130 563.259460,715.984375   C531.785400,719.840332 501.049469,726.874023 472.159119,740.281921   C439.003693,755.669189 411.105591,777.249939 395.629364,811.482300   C377.132294,852.396729 381.043701,891.129578 409.555878,926.480225   C424.200165,944.636841 443.386017,956.756958 465.287537,966.171631  z"/>
<path fill="#FEFEFE" opacity="1.000000" stroke="none" d=" M464.914642,966.084778   C443.386017,956.756958 424.200165,944.636841 409.555878,926.480225   C381.043701,891.129578 377.132294,852.396729 395.629364,811.482300   C411.105591,777.249939 439.003693,755.669189 472.159119,740.281921   C501.049469,726.874023 531.785400,719.840332 563.259460,715.984375   C580.712341,713.846130 598.241821,712.333008 616.518799,710.457886   C592.334290,682.752930 581.444214,652.619019 599.522644,616.786377   C591.956177,617.320129 585.236816,617.960693 578.502502,618.240784   C546.600220,619.567810 516.545715,613.181335 489.688232,595.344299   C454.516968,571.985718 434.648865,538.872253 428.914429,497.176361   C428.213409,492.078796 427.983704,486.916443 427.478546,481.130920   C373.856445,481.130920 320.035919,481.130920 264.919464,481.130920   C277.637238,469.650696 289.309204,459.088287 301.009399,448.557220   C368.122742,388.150085 435.234253,327.740936 502.417938,267.412170   C503.856415,266.120422 506.150391,265.097931 508.046234,265.096405   C642.534729,264.989258 777.023376,264.998901 912.719421,264.998901   C907.819946,269.352112 903.999512,273.698242 899.317383,276.700348   C890.682007,282.237244 888.539185,289.460388 888.727844,299.566833   C889.421631,336.718475 889.039673,373.890747 888.965454,411.055084   C888.959412,414.085510 889.543274,416.057343 892.332214,417.969696   C905.744507,427.166199 912.840271,440.188416 912.913940,456.391998   C913.133728,504.721497 913.155212,553.053406 912.921753,601.382812   C912.793091,628.018433 890.998718,649.158691 864.593567,648.984863   C838.501587,648.813049 817.147827,627.542969 817.052551,601.068909   C816.879211,552.905640 816.885193,504.740875 817.072144,456.577698   C817.136719,439.933502 824.633301,426.936707 838.184143,417.295441   C839.518982,416.345764 840.857361,414.297333 840.866089,412.751343   C841.026123,384.431610 840.983093,356.110657 840.983093,326.731903   C811.935303,351.651703 783.488037,376.056305 754.895508,400.585510   C761.011902,413.363525 765.284058,426.542480 767.248413,440.470062   C773.894958,487.596039 761.575623,528.507812 727.263611,562.067444   C718.942871,570.205750 709.609192,577.303345 701.209412,585.367126   C693.794006,592.486084 686.243652,599.699280 680.142822,607.904358   C667.110352,625.432007 669.009155,646.685913 684.947632,661.612671   C695.252502,671.263428 706.672729,679.724121 717.604004,688.705017   C737.822449,705.315796 758.060730,721.917969 773.866760,743.079102   C796.825134,773.816040 803.002625,808.394409 795.293091,845.296204   C785.601501,891.685303 756.962646,924.518982 717.459045,948.644226   C686.459229,967.576050 652.320496,977.476257 616.493591,982.059692   C585.929932,985.969788 555.360718,986.125732 524.816040,981.979553   C504.327606,979.198547 484.334656,974.436523 464.914642,966.084778  M460.957489,838.540955   C460.547699,853.099731 463.362732,866.995728 469.797729,880.073792   C482.951447,906.806641 505.267242,923.111084 532.112549,933.919006   C560.838074,945.483826 590.970154,948.857422 621.669678,947.883850   C643.940063,947.177551 665.622375,943.384277 686.086426,934.043579   C725.535278,916.037476 745.043945,880.891724 738.998779,838.177307   C736.082153,817.568665 725.129700,800.980347 709.983459,787.752625   C690.840698,771.034668 670.526733,755.645020 650.467957,740.003113   C647.567444,737.741333 643.234985,736.054749 639.630310,736.168335   C620.854736,736.759888 602.015869,737.234497 583.358887,739.238403   C557.785706,741.985168 533.017700,748.256470 510.291840,760.989319   C480.296692,777.794861 462.052917,802.151123 460.957489,838.540955  M635.438232,590.030701   C662.027405,581.477722 680.936768,565.131592 688.633118,537.476257   C692.191406,524.690369 693.148865,511.612457 692.556030,498.410370   C691.557739,476.176544 687.326904,454.533081 679.948181,433.556915   C670.623962,407.050079 657.885986,382.540802 636.342102,363.698395   C616.510559,346.353699 593.590942,338.747375 567.464050,344.762299   C531.875183,352.955505 508.729614,380.742493 504.889313,417.980408   C501.718536,448.726593 506.508087,478.328857 516.645203,507.235626   C524.538696,529.744568 535.391968,550.667419 552.527710,567.610474   C575.566284,590.389893 602.681763,599.374023 635.438232,590.030701  z"/>
<path fill="#010101" opacity="1.000000" stroke="none" d=" M460.961884,838.054443   C462.052917,802.151123 480.296692,777.794861 510.291840,760.989319   C533.017700,748.256470 557.785706,741.985168 583.358887,739.238403   C602.015869,737.234497 620.854736,736.759888 639.630310,736.168335   C643.234985,736.054749 647.567444,737.741333 650.467957,740.003113   C670.526733,755.645020 690.840698,771.034668 709.983459,787.752625   C725.129700,800.980347 736.082153,817.568665 738.998779,838.177307   C745.043945,880.891724 725.535278,916.037476 686.086426,934.043579   C665.622375,943.384277 643.940063,947.177551 621.669678,947.883850   C590.970154,948.857422 560.838074,945.483826 532.112549,933.919006   C505.267242,923.111084 482.951447,906.806641 469.797729,880.073792   C463.362732,866.995728 460.547699,853.099731 460.961884,838.054443  z"/>
<path fill="#010101" opacity="1.000000" stroke="none" d=" M635.043945,590.122803   C602.681763,599.374023 575.566284,590.389893 552.527710,567.610474   C535.391968,550.667419 524.538696,529.744568 516.645203,507.235626   C506.508087,478.328857 501.718536,448.726593 504.889313,417.980408   C508.729614,380.742493 531.875183,352.955505 567.464050,344.762299   C593.590942,338.747375 616.510559,346.353699 636.342102,363.698395   C657.885986,382.540802 670.623962,407.050079 679.948181,433.556915   C687.326904,454.533081 691.557739,476.176544 692.556030,498.410370   C693.148865,511.612457 692.191406,524.690369 688.633118,537.476257   C680.936768,565.131592 662.027405,581.477722 635.043945,590.122803  z"/>
</svg>