<svg version="1.1" id="Layer_1" xmlns="http://www.w3.org/2000/svg" xmlns:xlink="http://www.w3.org/1999/xlink" x="0px" y="0px"
	 width="100%" viewBox="0 0 785 881" enable-background="new 0 0 785 881" xml:space="preserve">
<path fill="#334335" opacity="1.000000" stroke="none" 
	d="
M408.000000,882.000000 
	C398.645782,882.000000 389.291534,882.000000 379.424622,881.638916 
	C374.591339,879.299500 370.099060,877.624329 365.979218,875.291504 
	C346.053436,864.008301 326.246582,852.515442 306.361633,841.159729 
	C284.314178,828.568970 262.214294,816.070007 240.162048,803.487488 
	C217.535370,790.577148 194.944351,777.604309 172.327042,764.677612 
	C150.571472,752.243408 128.790192,739.854309 107.042328,727.406799 
	C84.864563,714.713196 62.959404,701.516541 40.471802,689.399597 
	C23.100527,680.039490 8.189758,669.027344 2.586070,648.930420 
	C2.467685,648.505859 1.546622,648.305115 1.000011,648.000000 
	C1.000000,510.645782 1.000000,373.291534 1.359622,235.431580 
	C2.369251,233.816635 3.251014,232.781738 3.634088,231.586945 
	C8.455570,216.548950 18.297245,205.910355 32.016178,198.440781 
	C42.071331,192.966019 51.947937,187.162292 61.883659,181.469482 
	C86.503998,167.362915 111.095695,153.206253 135.730972,139.125854 
	C157.774582,126.526741 179.873962,114.025177 201.925186,101.439323 
	C226.856628,87.209572 251.769791,72.947754 276.675903,58.673737 
	C296.543365,47.287457 316.273529,35.655510 336.282928,24.525082 
	C350.023193,16.881926 364.142151,9.920025 378.064453,2.601531 
	C378.528625,2.357518 378.694885,1.546643 379.000000,1.000000 
	C388.354218,1.000000 397.708466,1.000000 407.575256,1.361126 
	C412.408478,3.700924 416.897614,5.381319 421.020508,7.710008 
	C438.646637,17.665581 456.146912,27.843693 473.726715,37.881672 
	C495.775024,50.471127 517.870544,62.977886 539.919434,75.566185 
	C564.703979,89.716362 589.451538,103.931183 614.229675,118.092613 
	C636.129517,130.609024 658.061157,143.069626 679.956726,155.593460 
	C704.586670,169.681305 729.031738,184.102539 753.868958,197.814026 
	C768.385498,205.827942 778.714172,216.894455 784.012817,232.633194 
	C784.318848,233.542114 785.321533,234.216476 786.000000,235.000000 
	C786.000000,372.354218 786.000000,509.708466 785.640381,647.568420 
	C784.630737,649.183411 783.747314,650.218201 783.366272,651.413208 
	C778.505920,666.655457 768.406250,677.233032 754.561279,684.823425 
	C740.011597,692.800232 725.682312,701.179932 711.282898,709.429138 
	C688.965271,722.214722 666.690063,735.074524 644.359131,747.836670 
	C622.315002,760.434937 600.210449,772.927246 578.157471,785.509949 
	C555.530029,798.420349 532.925293,811.370544 510.324768,824.328064 
	C490.459076,835.717651 470.728119,847.348267 450.718567,858.478577 
	C436.978546,866.121460 422.859070,873.081726 408.936523,880.398926 
	C408.472137,880.643066 408.305481,881.453552 408.000000,882.000000 
M293.200287,776.791382 
	C293.957092,777.422607 294.639313,778.184021 295.481445,778.666260 
	C325.680176,795.958191 355.929108,813.162964 386.071930,830.551697 
	C391.287964,833.560730 395.925293,833.571899 401.035583,830.489990 
	C409.445038,825.418518 418.022461,820.624084 426.552734,815.754395 
	C483.807800,783.068909 541.075134,750.404907 598.303833,717.673340 
	C600.389160,716.480652 602.114929,714.659363 604.773560,713.139832 
	C607.436157,711.876648 610.197571,710.785461 612.745605,709.322693 
	C630.858887,698.924866 648.928528,688.451050 667.698730,677.860413 
	C688.260559,666.170776 708.725952,654.305969 729.443665,642.899353 
	C735.568359,639.527283 738.147888,635.470520 738.136902,628.290588 
	C737.945740,503.794189 737.999207,379.297424 737.998840,254.800766 
	C737.998840,253.634140 737.947510,252.465454 737.999023,251.301239 
	C738.179199,247.228867 736.477173,244.274643 732.922119,242.271896 
	C726.971130,238.919403 721.068176,235.481796 715.138000,232.092178 
	C662.488037,201.998138 609.837524,171.905029 557.185242,141.815063 
	C505.112000,112.056046 453.015717,82.337128 400.993927,52.488400 
	C395.788696,49.501759 391.203522,49.475239 386.021088,52.473820 
	C361.798126,66.489380 337.474518,80.331146 313.175995,94.215942 
	C270.074768,118.845070 226.965805,143.460648 183.859787,168.081390 
	C141.042343,192.537292 98.241051,217.021591 55.382809,241.405792 
	C50.815346,244.004456 48.925308,247.446548 48.929928,252.743118 
	C49.025379,362.240082 48.996468,471.737183 49.042725,581.234253 
	C49.043541,583.162781 49.663628,585.091125 49.815269,587.807739 
	C49.574188,590.832642 49.333111,593.857605 49.049515,597.833679 
	C49.033413,608.161560 49.378025,618.507080 48.874039,628.811096 
	C48.539585,635.649048 51.431854,639.400879 57.141411,642.635986 
	C100.895470,667.426758 144.493973,692.491943 188.193497,717.379211 
	C195.966217,721.805847 203.983871,725.802368 212.085953,730.670471 
	C212.596313,731.087280 213.059540,731.586548 213.623779,731.908997 
	C238.665131,746.221741 263.709106,760.529968 288.783203,774.785156 
	C290.031006,775.494568 291.549774,775.727417 293.200287,776.791382 
z"/>

<path fill="#516A54" opacity="1.000000" stroke="none" 
	d="
M211.888428,729.997437 
	C203.983871,725.802368 195.966217,721.805847 188.193497,717.379211 
	C144.493973,692.491943 100.895470,667.426758 57.141411,642.635986 
	C51.431854,639.400879 48.539585,635.649048 48.874039,628.811096 
	C49.378025,618.507080 49.033413,608.161560 49.531811,597.395996 
	C83.839722,596.958313 117.665344,596.958313 152.703262,596.958313 
	C149.484543,602.347290 146.841293,606.509277 144.493820,610.831909 
	C143.545181,612.578674 143.242935,614.676453 142.646545,616.614502 
	C144.667694,617.076294 146.680725,617.893433 148.711365,617.939880 
	C158.846512,618.171448 168.986313,618.200684 179.082184,618.648193 
	C178.075256,620.922791 177.143021,622.867310 176.139999,624.774658 
	C172.943832,630.852173 173.711441,632.318787 180.384857,633.000916 
	C181.430740,633.107849 182.440170,633.571472 183.932129,634.005798 
	C182.565628,636.646301 181.508652,638.877258 180.287704,641.014587 
	C175.581558,649.252930 170.782623,657.438416 166.097458,665.688538 
	C162.730011,671.618347 164.023865,673.917297 170.789398,673.968323 
	C180.780411,674.043701 190.777924,674.187073 200.761490,673.905334 
	C205.446304,673.773071 207.232971,675.139526 207.134491,680.069946 
	C206.830826,695.276550 205.787308,693.891724 221.667282,693.988892 
	C226.036560,694.015625 228.210678,692.321899 228.024002,687.786682 
	C227.887177,684.462341 227.786728,681.102234 228.141983,677.808899 
	C228.281906,676.511963 229.676086,674.314941 230.547012,674.291321 
	C239.957397,674.035706 249.377335,674.131775 259.159607,674.131775 
	C258.881683,675.402954 258.824890,676.049988 258.599915,676.632080 
	C256.155060,682.957886 256.755280,683.906006 263.429291,683.950562 
	C269.423950,683.990540 275.425140,684.125122 281.411896,683.904480 
	C285.348511,683.759277 287.456757,684.883667 287.050476,689.206970 
	C286.731934,692.596252 288.540497,694.082520 291.863586,693.956970 
	C293.526367,693.894165 295.197479,693.875916 296.858032,693.964539 
	C300.427856,694.154907 302.260590,692.580139 301.932434,688.953247 
	C301.562683,684.866821 303.620026,683.801819 307.322693,683.912903 
	C313.478546,684.097717 319.644409,683.999207 325.805450,683.947327 
	C332.281036,683.892822 333.395325,682.036011 330.329834,676.495422 
	C328.879669,673.874329 327.348114,671.298340 325.868195,668.693542 
	C323.530090,664.578247 321.204468,660.455811 318.836853,656.271484 
	C325.926300,653.241272 326.117279,652.496948 322.443176,646.201599 
	C319.179688,640.609924 315.987305,634.976807 312.476746,628.862427 
	C317.166809,627.526733 316.052124,624.816711 314.439056,621.923645 
	C313.797028,620.772156 313.406464,619.480469 313.370056,618.171387 
	C315.334412,618.060303 316.830017,618.005554 318.325714,618.004333 
	C330.296600,617.994324 342.269257,618.120300 354.237762,617.950439 
	C363.299866,617.821777 367.330933,611.402893 362.965454,604.160461 
	C341.171265,568.003601 319.301849,531.892029 297.712708,495.494873 
	C300.281708,494.055328 300.283905,492.605255 299.070099,490.394653 
	C288.656586,471.429382 278.469330,452.339294 267.977905,433.417664 
	C263.121521,424.658966 251.355698,424.731445 246.444824,433.490143 
	C237.981705,448.584412 229.727936,463.796967 221.542114,479.043518 
	C221.064697,479.932709 221.976273,481.567657 222.060471,483.165222 
	C216.840866,491.729797 211.802261,499.984650 206.212280,509.142853 
	C199.373001,497.022614 193.150406,485.995270 187.097260,474.685699 
	C190.515518,473.021881 189.282974,470.931763 188.226166,468.770569 
	C179.089920,450.086700 169.995148,431.382507 160.853271,412.701355 
	C158.876572,408.662018 155.689102,406.130859 151.072220,406.058502 
	C146.465088,405.986298 143.185699,408.299316 141.158478,412.402954 
	C133.716049,427.468475 126.236885,442.516296 118.928246,457.646454 
	C118.402679,458.734467 119.137352,460.431274 119.115891,462.169220 
	C100.990021,495.258118 83.071999,528.043518 65.053719,560.773682 
	C60.190197,569.608215 55.022709,578.275513 49.994747,587.019531 
	C49.663628,585.091125 49.043541,583.162781 49.042725,581.234253 
	C48.996468,471.737183 49.025379,362.240082 48.929928,252.743118 
	C48.925308,247.446548 50.815346,244.004456 55.382809,241.405792 
	C98.241051,217.021591 141.042343,192.537292 183.859787,168.081390 
	C226.965805,143.460648 270.074768,118.845070 313.175995,94.215942 
	C337.474518,80.331146 361.798126,66.489380 386.021088,52.473820 
	C391.203522,49.475239 395.788696,49.501759 400.993927,52.488400 
	C453.015717,82.337128 505.112000,112.056046 557.185242,141.815063 
	C609.837524,171.905029 662.488037,201.998138 715.138000,232.092178 
	C721.068176,235.481796 726.971130,238.919403 732.922119,242.271896 
	C736.477173,244.274643 738.179199,247.228867 737.999023,251.301239 
	C737.947510,252.465454 737.998840,253.634140 737.998840,254.800766 
	C737.999207,379.297424 737.945740,503.794189 738.136902,628.290588 
	C738.147888,635.470520 735.568359,639.527283 729.443665,642.899353 
	C708.725952,654.305969 688.260559,666.170776 667.042358,677.759521 
	C645.415100,668.684204 624.397339,660.076294 601.353027,657.565247 
	C585.563232,655.844727 570.408264,651.275269 556.141296,644.140869 
	C554.312134,643.226135 552.172424,641.778320 551.445923,640.045349 
	C549.771973,636.052063 546.658447,634.728760 542.945923,634.051758 
	C535.252808,632.648926 527.532410,631.394836 519.843201,629.971863 
	C505.298523,627.279968 490.854889,623.791077 476.201538,622.023743 
	C466.055878,620.800110 454.963867,619.658691 445.473816,622.466309 
	C428.500214,627.487671 412.093384,634.902649 401.678162,650.944397 
	C398.436584,655.937134 394.147034,660.252991 390.304382,664.851318 
	C379.111542,678.245117 366.550110,689.509338 348.251068,691.859924 
	C346.941528,692.028198 345.499725,692.229004 344.414764,692.895508 
	C340.271637,695.440552 336.145508,698.040344 332.224030,700.908203 
	C330.125824,702.442688 328.754242,705.097046 326.543732,706.329346 
	C317.974060,711.106689 309.224335,715.565430 300.475555,720.012756 
	C299.059601,720.732544 297.325897,720.984253 295.710052,721.129578 
	C277.143799,722.799316 258.555908,724.246094 240.008255,726.097473 
	C230.598969,727.036621 221.259476,728.675110 211.888428,729.997437 
M690.559631,552.489258 
	C695.143799,550.219360 694.496216,547.540894 692.019592,543.685791 
	C685.180237,533.039246 678.821228,522.084534 672.244751,511.268524 
	C668.815918,505.629333 666.980103,505.585571 663.563721,511.216553 
	C656.997375,522.039490 650.660278,533.003906 643.951172,543.736572 
	C641.629883,547.449951 640.081482,550.393555 646.066406,552.316345 
	C640.458069,561.646545 635.114380,570.536377 629.122314,580.504944 
	C623.992859,572.002075 619.544617,564.628357 614.366272,556.044312 
	C617.864563,556.044312 619.660889,556.068054 621.456421,556.040100 
	C628.261841,555.934204 629.345886,554.087646 625.920044,548.354858 
	C619.939148,538.346497 613.911865,528.365784 607.943665,518.349915 
	C607.075684,516.893433 606.426147,515.306824 605.600586,513.628113 
	C612.689026,512.087891 613.696594,511.029633 611.530151,507.405670 
	C600.932922,489.678558 590.284058,471.981293 579.496277,454.369751 
	C576.773621,449.924957 573.252563,449.909637 570.533447,454.344666 
	C559.738525,471.951965 549.137207,489.677887 538.449463,507.350952 
	C536.691772,510.257446 537.454102,512.056519 540.721497,512.834473 
	C541.797913,513.090759 542.889038,513.285522 544.599121,513.636963 
	C543.530090,515.613525 542.743591,517.206604 541.834351,518.726196 
	C535.762268,528.874756 529.626038,538.985046 523.591187,549.155579 
	C520.833191,553.803772 522.027710,555.812317 527.463501,556.043518 
	C529.698792,556.138550 531.931824,556.286621 535.400696,556.479126 
	C531.710449,562.539734 528.622375,567.611389 524.891602,573.738586 
	C520.689758,566.375549 517.239441,560.329407 513.706543,554.138489 
	C520.968384,551.447571 521.118896,550.886719 517.677856,544.933228 
	C514.279602,539.053894 510.978333,533.118469 507.634521,527.207642 
	C508.221252,527.097473 508.807983,526.987366 509.394714,526.877197 
	C509.581512,524.939819 510.595490,522.549561 509.822510,521.137695 
	C504.305603,511.060913 498.502930,501.136841 492.619843,491.266296 
	C490.302765,487.378754 488.560425,487.489746 486.217682,491.479523 
	C480.736420,500.814209 475.383667,510.224335 469.926270,519.573181 
	C468.223083,522.490845 466.308105,525.316406 471.571136,526.884766 
	C468.098022,533.030029 464.935303,538.683350 461.717316,544.305054 
	C457.737793,551.257202 457.746063,551.329651 465.435211,553.983765 
	C464.422058,555.615234 463.478943,557.134033 461.985657,559.538696 
	C456.339417,549.723267 451.273895,540.917419 445.929810,531.627258 
	C447.920959,531.291382 448.917938,530.870911 449.829620,531.009827 
	C456.301331,531.995911 457.235077,527.334595 454.331055,522.908569 
	C451.593719,518.736511 449.195770,514.338379 446.718292,509.999878 
	C443.778992,504.852661 440.914276,499.662842 437.838867,494.173065 
	C441.227264,492.765839 445.384369,492.612305 442.350555,487.522736 
	C433.653748,472.932678 425.321472,458.125824 416.755890,443.456787 
	C414.187836,439.058868 411.487823,438.839783 408.964844,443.103912 
	C399.975342,458.296997 391.230957,473.635040 382.382050,488.911407 
	C380.968811,491.351196 381.683441,492.638428 384.421387,493.013794 
	C385.346985,493.140747 386.247528,493.450439 387.532867,493.769165 
	C386.828918,495.274963 386.365601,496.484222 385.728729,497.593842 
	C380.920288,505.971283 376.080811,514.330994 371.244751,522.692566 
	C367.844116,528.572327 368.721863,530.355286 375.272797,530.991455 
	C376.351044,531.096191 377.401093,531.491272 379.127747,531.915100 
	C378.157074,533.780396 377.471436,535.220459 376.679626,536.599548 
	C371.538574,545.554443 366.365631,554.491028 361.220886,563.443848 
	C357.685425,569.596069 358.968964,571.927979 366.025116,571.971313 
	C376.188446,572.033813 386.355011,572.123047 396.514862,571.926453 
	C400.541016,571.848511 402.412628,573.084229 402.087585,577.327576 
	C401.846558,580.473755 402.042603,583.655212 402.080719,586.820557 
	C402.119110,590.008606 403.666962,591.847961 406.943420,591.902832 
	C410.607697,591.964294 414.274017,591.951416 417.938904,591.913635 
	C421.475159,591.877136 423.021759,589.938232 422.987274,586.507690 
	C422.958801,583.675598 423.204956,580.824158 422.954437,578.014709 
	C422.557190,573.559753 424.081512,571.676147 428.824188,571.904297 
	C435.805969,572.240112 442.816101,571.965820 449.813751,572.011841 
	C451.199188,572.020935 452.582825,572.303040 454.079041,572.471863 
	C453.876740,573.502197 453.855743,574.005554 453.679474,574.447021 
	C451.061554,581.004517 451.658508,581.916687 458.736511,581.952454 
	C465.067841,581.984436 471.405945,581.817749 477.725830,582.090759 
	C479.143402,582.151978 481.376343,583.406433 481.738525,584.575073 
	C484.111511,592.231873 483.975342,592.121155 491.688477,592.013916 
	C495.557312,591.960144 497.017883,590.418030 497.074890,586.617615 
	C497.097290,585.121582 498.363800,582.403015 499.182281,582.357239 
	C505.555145,582.000549 511.956940,582.160095 519.658325,582.160095 
	C516.864441,587.049988 514.546936,590.623474 512.747498,594.441101 
	C511.711060,596.640015 510.324371,599.986572 511.251770,601.450195 
	C512.297607,603.100708 515.754272,603.850708 518.181885,603.893799 
	C531.007446,604.121704 543.841064,604.127502 556.667664,603.933899 
	C560.840515,603.870850 562.357178,605.379150 562.117249,609.472839 
	C561.883789,613.456299 562.026428,617.468872 562.151062,621.464111 
	C562.260681,624.977722 563.906982,627.060425 567.732178,627.002258 
	C572.562927,626.928711 577.396118,626.938782 582.227234,626.998962 
	C585.570374,627.040588 587.116150,625.499695 587.070312,622.153442 
	C587.011108,617.822327 587.242188,613.480957 587.025330,609.160156 
	C586.828796,605.244507 588.375610,603.866638 592.269592,603.943176 
	C601.929749,604.132996 611.596191,603.982666 621.259827,604.031250 
	C622.610046,604.038025 623.958557,604.395386 625.614197,604.634766 
	C625.067566,605.928894 624.856079,606.554871 624.551453,607.131714 
	C620.854797,614.131042 621.373962,615.044128 629.175232,615.065002 
	C637.339478,615.086792 645.506165,615.188843 653.666992,615.021362 
	C657.382019,614.945129 659.112915,615.996887 659.079834,620.085449 
	C659.024963,626.858887 659.362671,626.966980 666.212952,627.000122 
	C667.545898,627.006592 668.891785,626.880432 670.209473,627.022278 
	C675.014893,627.539612 677.637939,625.831360 676.953857,620.622986 
	C676.359741,616.099548 678.562073,614.876526 682.773071,615.002380 
	C690.763611,615.241211 698.768616,615.174866 706.762573,615.001160 
	C708.947693,614.953674 711.114807,614.072876 713.290161,613.574524 
	C712.583130,611.303894 712.245972,608.824036 711.101685,606.800720 
	C707.249023,599.988586 703.088928,593.350952 699.098633,586.615540 
	C698.403625,585.442505 697.961731,584.119446 697.356995,582.762573 
	C706.193604,580.558533 706.444275,579.840210 702.051147,572.525818 
	C698.194336,566.104492 694.459412,559.609924 690.559631,552.489258 
M306.115051,299.436615 
	C303.807007,296.001038 301.498962,292.565430 298.430298,287.997650 
	C322.117584,287.997650 343.891571,287.997650 365.595886,287.997650 
	C367.740540,275.105377 365.044800,262.602509 357.731506,253.171371 
	C345.113831,236.899872 327.907532,233.207733 308.926666,237.258484 
	C292.256042,240.816223 280.547638,251.122238 275.940125,267.891785 
	C271.342560,284.625122 274.321350,299.966309 286.994812,312.571136 
	C302.614227,328.105927 334.805817,330.921326 352.943146,318.400360 
	C355.588593,316.574066 357.890503,314.250122 360.456360,312.067108 
	C355.541748,306.797638 351.176331,302.117065 346.866547,297.496124 
	C333.097809,307.814911 318.704163,308.544250 306.115051,299.436615 
M594.691772,252.887726 
	C589.855347,244.918823 582.746826,240.032745 573.801270,237.838379 
	C559.136230,234.241013 544.705750,235.350281 530.641418,240.684235 
	C526.856262,242.119766 523.336548,244.255325 519.524963,246.154251 
	C522.745056,252.465363 525.602722,258.066101 528.386780,263.522644 
	C528.901550,263.522644 529.102356,263.583923 529.229431,263.513062 
	C530.385010,262.868652 531.501953,262.150665 532.678406,261.548462 
	C542.148682,256.700836 552.044434,254.400635 562.588440,257.147888 
	C570.119385,259.110138 574.042114,264.721313 573.814026,273.158295 
	C568.541626,273.158295 563.211914,272.777679 557.957642,273.245270 
	C549.547180,273.993713 540.925476,274.366516 532.870361,276.611176 
	C522.388367,279.532104 516.715393,287.521027 516.374329,298.540283 
	C516.045715,309.157898 520.558167,317.639343 530.361877,321.894318 
	C546.402283,328.856140 561.928650,328.698151 576.014526,315.208160 
	C576.014526,318.673950 576.014526,321.552277 576.014526,324.502136 
	C584.085022,324.502136 591.644958,324.502136 599.312073,324.502136 
	C599.474487,323.552094 599.677856,322.914703 599.678589,322.277039 
	C599.698181,305.779663 600.126099,289.265564 599.484558,272.793243 
	C599.232910,266.330200 596.578064,259.960785 594.691772,252.887726 
M251.500061,210.827194 
	C227.044159,210.827194 202.588257,210.827194 178.095993,210.827194 
	C178.095993,218.161560 178.095993,225.032639 178.095993,232.369370 
	C190.244751,232.369370 201.997528,232.369370 214.259613,232.369370 
	C214.259613,263.395538 214.259613,293.948456 214.259613,324.584320 
	C223.210999,324.584320 231.634811,324.584320 240.680450,324.584320 
	C240.680450,293.791382 240.680450,263.246704 240.680450,232.043777 
	C253.154144,232.043777 265.020905,232.043777 276.747314,232.043777 
	C276.747314,224.623917 276.747314,217.874908 276.747314,210.827194 
	C268.445831,210.827194 260.472961,210.827194 251.500061,210.827194 
M383.283112,311.483948 
	C383.283112,315.768951 383.283112,320.053955 383.283112,324.507935 
	C392.099091,324.507935 400.313293,324.507935 408.939667,324.507935 
	C408.939667,322.370819 408.938538,320.570068 408.939850,318.769318 
	C408.949249,306.109802 408.772156,293.446655 409.019989,280.791809 
	C409.282257,267.400726 417.821991,259.214630 431.220612,259.016449 
	C433.324707,258.985321 435.429657,259.012085 437.658691,259.012085 
	C437.658691,251.121826 437.658691,243.714539 437.658691,235.948303 
	C426.202454,235.707901 416.355194,238.901520 407.557617,248.178619 
	C407.557617,243.486359 407.557617,240.408951 407.557617,237.357635 
	C399.288055,237.357635 391.535553,237.357635 383.283142,237.357635 
	C383.283142,261.929962 383.283142,286.209900 383.283112,311.483948 
M462.541260,237.070068 
	C459.447449,237.070068 456.353638,237.070068 453.288818,237.070068 
	C453.288818,266.636139 453.288818,295.515808 453.288818,324.545349 
	C461.645813,324.545349 469.708923,324.545349 478.303131,324.545349 
	C478.303131,322.135071 478.279846,320.012085 478.306854,317.889771 
	C478.476257,304.585083 478.129517,291.246246 478.993500,277.986450 
	C479.743256,266.478851 488.005890,259.509064 499.593719,259.032562 
	C502.027588,258.932465 504.469116,259.018005 507.005676,259.018005 
	C507.005676,251.122925 507.005676,243.728363 507.005676,235.988419 
	C495.479767,235.754196 485.659485,239.038376 476.979584,248.340195 
	C476.979584,243.773224 476.979584,240.565659 476.979584,237.070068 
	C472.132355,237.070068 467.827789,237.070068 462.541260,237.070068 
z"/>
<path fill="#AAA8A0" opacity="1.000000" stroke="none" 
	d="
M179.124481,618.301086 
	C168.986313,618.200684 158.846512,618.171448 148.711365,617.939880 
	C146.680725,617.893433 144.667694,617.076294 142.646545,616.614502 
	C143.242935,614.676453 143.545181,612.578674 144.493820,610.831909 
	C146.841293,606.509277 149.484543,602.347290 152.703262,596.958313 
	C117.665344,596.958313 83.839722,596.958313 49.553070,596.920410 
	C49.333111,593.857605 49.574188,590.832642 49.905006,587.413635 
	C55.022709,578.275513 60.190197,569.608215 65.053719,560.773682 
	C83.071999,528.043518 100.990021,495.258118 119.464844,462.200562 
	C124.674683,463.498352 126.629387,466.935699 127.023712,471.719757 
	C127.519180,477.730804 131.366974,481.112305 137.193298,481.043518 
	C142.912582,480.975983 146.560471,477.332520 147.079773,471.326752 
	C147.423218,467.354767 147.624451,463.334106 148.425354,459.445648 
	C150.103241,451.299652 155.904663,448.591217 163.430283,452.158752 
	C168.204239,454.421844 169.905960,458.426270 170.135666,463.485016 
	C170.460114,470.630096 174.806473,474.771942 181.936203,475.030975 
	C183.597122,475.091278 185.263794,474.993134 186.927826,474.967896 
	C193.150406,485.995270 199.373001,497.022614 206.212280,509.142853 
	C211.802261,499.984650 216.840866,491.729797 222.416992,483.194397 
	C228.171585,484.017029 230.195007,487.736633 230.853012,492.567078 
	C231.737335,499.058899 235.659744,502.259155 242.480026,502.043488 
	C248.904327,501.840332 252.513611,498.225006 253.116547,491.899261 
	C253.555939,487.289215 253.891586,482.532928 255.359604,478.210785 
	C256.178345,475.800201 258.897369,473.042725 261.311432,472.342407 
	C270.518005,469.671631 278.441986,475.643799 278.902283,485.203217 
	C279.133087,489.996521 281.372284,493.359741 285.729767,494.548126 
	C289.471771,495.568573 293.536743,495.404724 297.458923,495.764587 
	C319.301849,531.892029 341.171265,568.003601 362.965454,604.160461 
	C367.330933,611.402893 363.299866,617.821777 354.237762,617.950439 
	C342.269257,618.120300 330.296600,617.994324 318.325714,618.004333 
	C316.830017,618.005554 315.334412,618.060303 313.071625,617.990051 
	C307.923096,610.480164 303.623962,603.019775 299.106140,595.694214 
	C297.879425,593.705139 295.992493,592.123291 294.408569,590.354492 
	C292.946136,592.050110 291.242859,593.594055 290.063599,595.467896 
	C285.321594,603.003113 280.741608,610.640320 275.631348,618.164673 
	C268.746613,618.126709 262.332306,618.163818 255.633957,618.003174 
	C251.118149,610.555481 246.886383,603.305481 242.503494,595.796570 
	C249.947083,594.456299 250.052200,594.256165 246.822632,588.654663 
	C238.754196,574.660278 230.685699,560.665894 222.594406,546.684692 
	C218.958054,540.401367 216.502838,540.387085 212.916061,546.589905 
	C204.914612,560.427124 196.937759,574.278687 188.921722,588.107483 
	C185.308853,594.340210 185.331207,594.445007 193.244965,595.846863 
	C188.410248,603.534973 183.767365,610.918030 179.124481,618.301086 
z"/>
<path fill="#C3C4C3" opacity="1.000000" stroke="none" 
	d="
M211.987198,730.333984 
	C221.259476,728.675110 230.598969,727.036621 240.008255,726.097473 
	C258.555908,724.246094 277.143799,722.799316 295.710052,721.129578 
	C297.325897,720.984253 299.059601,720.732544 300.475555,720.012756 
	C309.224335,715.565430 317.974060,711.106689 326.543732,706.329346 
	C328.754242,705.097046 330.125824,702.442688 332.224030,700.908203 
	C336.145508,698.040344 340.271637,695.440552 344.414764,692.895508 
	C345.499725,692.229004 346.941528,692.028198 348.251068,691.859924 
	C366.550110,689.509338 379.111542,678.245117 390.304382,664.851318 
	C394.147034,660.252991 398.436584,655.937134 401.678162,650.944397 
	C412.093384,634.902649 428.500214,627.487671 445.473816,622.466309 
	C454.963867,619.658691 466.055878,620.800110 476.201538,622.023743 
	C490.854889,623.791077 505.298523,627.279968 519.843201,629.971863 
	C527.532410,631.394836 535.252808,632.648926 542.945923,634.051758 
	C546.658447,634.728760 549.771973,636.052063 551.445923,640.045349 
	C552.172424,641.778320 554.312134,643.226135 556.141296,644.140869 
	C570.408264,651.275269 585.563232,655.844727 601.353027,657.565247 
	C624.397339,660.076294 645.415100,668.684204 666.698975,677.830017 
	C648.928528,688.451050 630.858887,698.924866 612.745605,709.322693 
	C610.197571,710.785461 607.436157,711.876648 604.164551,712.855835 
	C576.896545,701.706787 550.121948,691.113647 523.635010,679.844421 
	C512.860168,675.260132 502.074127,675.306519 490.854279,676.163208 
	C479.801117,677.007141 471.747864,679.697693 470.074951,693.073792 
	C468.960815,701.982056 459.783752,704.996704 452.053253,706.782471 
	C437.291870,710.192566 423.771606,716.096069 410.548462,723.344421 
	C402.752502,727.617920 394.220245,731.182434 385.582794,733.161011 
	C364.479340,737.995056 346.441742,749.207947 327.705261,759.060791 
	C324.619385,760.683472 321.559753,762.361328 318.427124,763.888916 
	C309.949707,768.022583 301.439545,772.089050 292.942352,776.182190 
	C291.549774,775.727417 290.031006,775.494568 288.783203,774.785156 
	C263.709106,760.529968 238.665131,746.221741 213.623779,731.908997 
	C213.059540,731.586548 212.596313,731.087280 211.987198,730.333984 
z"/>
<path fill="#516A54" opacity="1.000000" stroke="none" 
	d="
M293.071320,776.486816 
	C301.439545,772.089050 309.949707,768.022583 318.427124,763.888916 
	C321.559753,762.361328 324.619385,760.683472 327.705261,759.060791 
	C346.441742,749.207947 364.479340,737.995056 385.582794,733.161011 
	C394.220245,731.182434 402.752502,727.617920 410.548462,723.344421 
	C423.771606,716.096069 437.291870,710.192566 452.053253,706.782471 
	C459.783752,704.996704 468.960815,701.982056 470.074951,693.073792 
	C471.747864,679.697693 479.801117,677.007141 490.854279,676.163208 
	C502.074127,675.306519 512.860168,675.260132 523.635010,679.844421 
	C550.121948,691.113647 576.896545,701.706787 603.781860,712.851379 
	C602.114929,714.659363 600.389160,716.480652 598.303833,717.673340 
	C541.075134,750.404907 483.807800,783.068909 426.552734,815.754395 
	C418.022461,820.624084 409.445038,825.418518 401.035583,830.489990 
	C395.925293,833.571899 391.287964,833.560730 386.071930,830.551697 
	C355.929108,813.162964 325.680176,795.958191 295.481445,778.666260 
	C294.639313,778.184021 293.957092,777.422607 293.071320,776.486816 
z"/>
<path fill="#334335" opacity="1.000000" stroke="none" 
	d="
M690.615112,552.818481 
	C694.459412,559.609924 698.194336,566.104492 702.051147,572.525818 
	C706.444275,579.840210 706.193604,580.558533 697.356995,582.762573 
	C697.961731,584.119446 698.403625,585.442505 699.098633,586.615540 
	C703.088928,593.350952 707.249023,599.988586 711.101685,606.800720 
	C712.245972,608.824036 712.583130,611.303894 713.290161,613.574524 
	C711.114807,614.072876 708.947693,614.953674 706.762573,615.001160 
	C698.768616,615.174866 690.763611,615.241211 682.773071,615.002380 
	C678.562073,614.876526 676.359741,616.099548 676.953857,620.622986 
	C677.637939,625.831360 675.014893,627.539612 670.209473,627.022278 
	C668.891785,626.880432 667.545898,627.006592 666.212952,627.000122 
	C659.362671,626.966980 659.024963,626.858887 659.079834,620.085449 
	C659.112915,615.996887 657.382019,614.945129 653.666992,615.021362 
	C645.506165,615.188843 637.339478,615.086792 629.175232,615.065002 
	C621.373962,615.044128 620.854797,614.131042 624.551453,607.131714 
	C624.856079,606.554871 625.067566,605.928894 625.614197,604.634766 
	C623.958557,604.395386 622.610046,604.038025 621.259827,604.031250 
	C611.596191,603.982666 601.929749,604.132996 592.269592,603.943176 
	C588.375610,603.866638 586.828796,605.244507 587.025330,609.160156 
	C587.242188,613.480957 587.011108,617.822327 587.070312,622.153442 
	C587.116150,625.499695 585.570374,627.040588 582.227234,626.998962 
	C577.396118,626.938782 572.562927,626.928711 567.732178,627.002258 
	C563.906982,627.060425 562.260681,624.977722 562.151062,621.464111 
	C562.026428,617.468872 561.883789,613.456299 562.117249,609.472839 
	C562.357178,605.379150 560.840515,603.870850 556.667664,603.933899 
	C543.841064,604.127502 531.007446,604.121704 518.181885,603.893799 
	C515.754272,603.850708 512.297607,603.100708 511.251770,601.450195 
	C510.324371,599.986572 511.711060,596.640015 512.747498,594.441101 
	C514.546936,590.623474 516.864441,587.049988 519.658325,582.160095 
	C511.956940,582.160095 505.555145,582.000549 499.182281,582.357239 
	C498.363800,582.403015 497.097290,585.121582 497.074890,586.617615 
	C497.017883,590.418030 495.557312,591.960144 491.688477,592.013916 
	C483.975342,592.121155 484.111511,592.231873 481.738525,584.575073 
	C481.376343,583.406433 479.143402,582.151978 477.725830,582.090759 
	C471.405945,581.817749 465.067841,581.984436 458.736511,581.952454 
	C451.658508,581.916687 451.061554,581.004517 453.679474,574.447021 
	C453.855743,574.005554 453.876740,573.502197 454.079041,572.471863 
	C452.582825,572.303040 451.199188,572.020935 449.813751,572.011841 
	C442.816101,571.965820 435.805969,572.240112 428.824188,571.904297 
	C424.081512,571.676147 422.557190,573.559753 422.954437,578.014709 
	C423.204956,580.824158 422.958801,583.675598 422.987274,586.507690 
	C423.021759,589.938232 421.475159,591.877136 417.938904,591.913635 
	C414.274017,591.951416 410.607697,591.964294 406.943420,591.902832 
	C403.666962,591.847961 402.119110,590.008606 402.080719,586.820557 
	C402.042603,583.655212 401.846558,580.473755 402.087585,577.327576 
	C402.412628,573.084229 400.541016,571.848511 396.514862,571.926453 
	C386.355011,572.123047 376.188446,572.033813 366.025116,571.971313 
	C358.968964,571.927979 357.685425,569.596069 361.220886,563.443848 
	C366.365631,554.491028 371.538574,545.554443 376.679626,536.599548 
	C377.471436,535.220459 378.157074,533.780396 379.127747,531.915100 
	C377.401093,531.491272 376.351044,531.096191 375.272797,530.991455 
	C368.721863,530.355286 367.844116,528.572327 371.244751,522.692566 
	C376.080811,514.330994 380.920288,505.971283 385.728729,497.593842 
	C386.365601,496.484222 386.828918,495.274963 387.532867,493.769165 
	C386.247528,493.450439 385.346985,493.140747 384.421387,493.013794 
	C381.683441,492.638428 380.968811,491.351196 382.382050,488.911407 
	C391.230957,473.635040 399.975342,458.296997 408.964844,443.103912 
	C411.487823,438.839783 414.187836,439.058868 416.755890,443.456787 
	C425.321472,458.125824 433.653748,472.932678 442.350555,487.522736 
	C445.384369,492.612305 441.227264,492.765839 437.838867,494.173065 
	C440.914276,499.662842 443.778992,504.852661 446.718292,509.999878 
	C449.195770,514.338379 451.593719,518.736511 454.331055,522.908569 
	C457.235077,527.334595 456.301331,531.995911 449.829620,531.009827 
	C448.917938,530.870911 447.920959,531.291382 445.929810,531.627258 
	C451.273895,540.917419 456.339417,549.723267 461.985657,559.538696 
	C463.478943,557.134033 464.422058,555.615234 465.435211,553.983765 
	C457.746063,551.329651 457.737793,551.257202 461.717316,544.305054 
	C464.935303,538.683350 468.098022,533.030029 471.571136,526.884766 
	C466.308105,525.316406 468.223083,522.490845 469.926270,519.573181 
	C475.383667,510.224335 480.736420,500.814209 486.217682,491.479523 
	C488.560425,487.489746 490.302765,487.378754 492.619843,491.266296 
	C498.502930,501.136841 504.305603,511.060913 509.822510,521.137695 
	C510.595490,522.549561 509.581512,524.939819 509.394714,526.877197 
	C508.807983,526.987366 508.221252,527.097473 507.634521,527.207642 
	C510.978333,533.118469 514.279602,539.053894 517.677856,544.933228 
	C521.118896,550.886719 520.968384,551.447571 513.706543,554.138489 
	C517.239441,560.329407 520.689758,566.375549 524.891602,573.738586 
	C528.622375,567.611389 531.710449,562.539734 535.400696,556.479126 
	C531.931824,556.286621 529.698792,556.138550 527.463501,556.043518 
	C522.027710,555.812317 520.833191,553.803772 523.591187,549.155579 
	C529.626038,538.985046 535.762268,528.874756 541.834351,518.726196 
	C542.743591,517.206604 543.530090,515.613525 544.599121,513.636963 
	C542.889038,513.285522 541.797913,513.090759 540.721497,512.834473 
	C537.454102,512.056519 536.691772,510.257446 538.449463,507.350952 
	C549.137207,489.677887 559.738525,471.951965 570.533447,454.344666 
	C573.252563,449.909637 576.773621,449.924957 579.496277,454.369751 
	C590.284058,471.981293 600.932922,489.678558 611.530151,507.405670 
	C613.696594,511.029633 612.689026,512.087891 605.600586,513.628113 
	C606.426147,515.306824 607.075684,516.893433 607.943665,518.349915 
	C613.911865,528.365784 619.939148,538.346497 625.920044,548.354858 
	C629.345886,554.087646 628.261841,555.934204 621.456421,556.040100 
	C619.660889,556.068054 617.864563,556.044312 614.366272,556.044312 
	C619.544617,564.628357 623.992859,572.002075 629.122314,580.504944 
	C635.114380,570.536377 640.458069,561.646545 646.066406,552.316345 
	C640.081482,550.393555 641.629883,547.449951 643.951172,543.736572 
	C650.660278,533.003906 656.997375,522.039490 663.563721,511.216553 
	C666.980103,505.585571 668.815918,505.629333 672.244751,511.268524 
	C678.821228,522.084534 685.180237,533.039246 692.019592,543.685791 
	C694.496216,547.540894 695.143799,550.219360 690.615112,552.818481 
M635.258301,588.320435 
	C636.451050,586.593018 637.643860,584.865540 639.373535,582.360596 
	C635.663452,582.006653 633.298584,581.781067 629.616150,581.429749 
	C631.709167,584.333008 633.162659,586.349060 635.258301,588.320435 
z"/>
<path fill="#334335" opacity="1.000000" stroke="none" 
	d="
M179.082184,618.648193 
	C183.767365,610.918030 188.410248,603.534973 193.244965,595.846863 
	C185.331207,594.445007 185.308853,594.340210 188.921722,588.107483 
	C196.937759,574.278687 204.914612,560.427124 212.916061,546.589905 
	C216.502838,540.387085 218.958054,540.401367 222.594406,546.684692 
	C230.685699,560.665894 238.754196,574.660278 246.822632,588.654663 
	C250.052200,594.256165 249.947083,594.456299 242.503494,595.796570 
	C246.886383,603.305481 251.118149,610.555481 255.720734,618.341064 
	C257.496735,621.516907 259.049561,624.091003 260.271393,626.813599 
	C261.957428,630.570679 260.748047,632.490967 256.706360,632.927002 
	C255.019958,633.108948 253.335403,633.308105 250.796600,633.596313 
	C256.424072,643.256531 261.527954,652.017944 267.214447,661.779541 
	C268.717133,658.986450 269.529419,657.476562 270.389496,655.877930 
	C262.836151,653.496155 262.745636,653.192932 266.505310,646.658447 
	C269.813568,640.908508 273.049622,635.117004 276.639282,628.775513 
	C271.434448,627.518738 273.109589,624.762939 274.681885,621.923157 
	C275.313171,620.782837 275.637604,619.472656 276.101746,618.239807 
	C280.741608,610.640320 285.321594,603.003113 290.063599,595.467896 
	C291.242859,593.594055 292.946136,592.050110 294.408569,590.354492 
	C295.992493,592.123291 297.879425,593.705139 299.106140,595.694214 
	C303.623962,603.019775 307.923096,610.480164 312.602966,618.071167 
	C313.406464,619.480469 313.797028,620.772156 314.439056,621.923645 
	C316.052124,624.816711 317.166809,627.526733 312.476746,628.862427 
	C315.987305,634.976807 319.179688,640.609924 322.443176,646.201599 
	C326.117279,652.496948 325.926300,653.241272 318.836853,656.271484 
	C321.204468,660.455811 323.530090,664.578247 325.868195,668.693542 
	C327.348114,671.298340 328.879669,673.874329 330.329834,676.495422 
	C333.395325,682.036011 332.281036,683.892822 325.805450,683.947327 
	C319.644409,683.999207 313.478546,684.097717 307.322693,683.912903 
	C303.620026,683.801819 301.562683,684.866821 301.932434,688.953247 
	C302.260590,692.580139 300.427856,694.154907 296.858032,693.964539 
	C295.197479,693.875916 293.526367,693.894165 291.863586,693.956970 
	C288.540497,694.082520 286.731934,692.596252 287.050476,689.206970 
	C287.456757,684.883667 285.348511,683.759277 281.411896,683.904480 
	C275.425140,684.125122 269.423950,683.990540 263.429291,683.950562 
	C256.755280,683.906006 256.155060,682.957886 258.599915,676.632080 
	C258.824890,676.049988 258.881683,675.402954 259.159607,674.131775 
	C249.377335,674.131775 239.957397,674.035706 230.547012,674.291321 
	C229.676086,674.314941 228.281906,676.511963 228.141983,677.808899 
	C227.786728,681.102234 227.887177,684.462341 228.024002,687.786682 
	C228.210678,692.321899 226.036560,694.015625 221.667282,693.988892 
	C205.787308,693.891724 206.830826,695.276550 207.134491,680.069946 
	C207.232971,675.139526 205.446304,673.773071 200.761490,673.905334 
	C190.777924,674.187073 180.780411,674.043701 170.789398,673.968323 
	C164.023865,673.917297 162.730011,671.618347 166.097458,665.688538 
	C170.782623,657.438416 175.581558,649.252930 180.287704,641.014587 
	C181.508652,638.877258 182.565628,636.646301 183.932129,634.005798 
	C182.440170,633.571472 181.430740,633.107849 180.384857,633.000916 
	C173.711441,632.318787 172.943832,630.852173 176.139999,624.774658 
	C177.143021,622.867310 178.075256,620.922791 179.082184,618.648193 
z"/>
<path fill="#FDFDFD" opacity="1.000000" stroke="none" 
	d="
M306.397705,299.666687 
	C318.704163,308.544250 333.097809,307.814911 346.866547,297.496124 
	C351.176331,302.117065 355.541748,306.797638 360.456360,312.067108 
	C357.890503,314.250122 355.588593,316.574066 352.943146,318.400360 
	C334.805817,330.921326 302.614227,328.105927 286.994812,312.571136 
	C274.321350,299.966309 271.342560,284.625122 275.940125,267.891785 
	C280.547638,251.122238 292.256042,240.816223 308.926666,237.258484 
	C327.907532,233.207733 345.113831,236.899872 357.731506,253.171371 
	C365.044800,262.602509 367.740540,275.105377 365.595886,287.997650 
	C343.891571,287.997650 322.117584,287.997650 298.430298,287.997650 
	C301.498962,292.565430 303.807007,296.001038 306.397705,299.666687 
M342.088440,271.854156 
	C339.419525,260.411407 329.824921,253.725616 318.112610,255.147079 
	C307.678619,256.413391 300.018402,263.962738 300.184448,272.711609 
	C314.080170,272.711609 327.973083,272.711609 342.088440,271.854156 
z"/>
<path fill="#FCFDFC" opacity="1.000000" stroke="none" 
	d="
M594.854736,253.218231 
	C596.578064,259.960785 599.232910,266.330200 599.484558,272.793243 
	C600.126099,289.265564 599.698181,305.779663 599.678589,322.277039 
	C599.677856,322.914703 599.474487,323.552094 599.312073,324.502136 
	C591.644958,324.502136 584.085022,324.502136 576.014526,324.502136 
	C576.014526,321.552277 576.014526,318.673950 576.014526,315.208160 
	C561.928650,328.698151 546.402283,328.856140 530.361877,321.894318 
	C520.558167,317.639343 516.045715,309.157898 516.374329,298.540283 
	C516.715393,287.521027 522.388367,279.532104 532.870361,276.611176 
	C540.925476,274.366516 549.547180,273.993713 557.957642,273.245270 
	C563.211914,272.777679 568.541626,273.158295 573.814026,273.158295 
	C574.042114,264.721313 570.119385,259.110138 562.588440,257.147888 
	C552.044434,254.400635 542.148682,256.700836 532.678406,261.548462 
	C531.501953,262.150665 530.385010,262.868652 529.229431,263.513062 
	C529.102356,263.583923 528.901550,263.522644 528.386780,263.522644 
	C525.602722,258.066101 522.745056,252.465363 519.524963,246.154251 
	C523.336548,244.255325 526.856262,242.119766 530.641418,240.684235 
	C544.705750,235.350281 559.136230,234.241013 573.801270,237.838379 
	C582.746826,240.032745 589.855347,244.918823 594.854736,253.218231 
M558.120728,308.935883 
	C571.240967,306.368408 575.933716,300.129181 573.432068,288.069794 
	C570.719849,288.069794 567.914246,287.961975 565.119812,288.092651 
	C559.647339,288.348602 554.115601,288.330688 548.732666,289.197632 
	C544.268188,289.916626 541.333984,293.007721 541.136230,297.841278 
	C540.945984,302.489594 543.003052,306.087952 547.478638,307.495178 
	C550.583374,308.471313 553.981201,308.515198 558.120728,308.935883 
z"/>
<path fill="#FDFDFD" opacity="1.000000" stroke="none" 
	d="
M252.000061,210.827194 
	C260.472961,210.827194 268.445831,210.827194 276.747314,210.827194 
	C276.747314,217.874908 276.747314,224.623917 276.747314,232.043777 
	C265.020905,232.043777 253.154144,232.043777 240.680450,232.043777 
	C240.680450,263.246704 240.680450,293.791382 240.680450,324.584320 
	C231.634811,324.584320 223.210999,324.584320 214.259613,324.584320 
	C214.259613,293.948456 214.259613,263.395538 214.259613,232.369370 
	C201.997528,232.369370 190.244751,232.369370 178.095993,232.369370 
	C178.095993,225.032639 178.095993,218.161560 178.095993,210.827194 
	C202.588257,210.827194 227.044159,210.827194 252.000061,210.827194 
z"/>
<path fill="#FBFCFB" opacity="1.000000" stroke="none" 
	d="
M383.283142,310.986877 
	C383.283142,286.209900 383.283142,261.929962 383.283142,237.357635 
	C391.535553,237.357635 399.288055,237.357635 407.557617,237.357635 
	C407.557617,240.408951 407.557617,243.486359 407.557617,248.178619 
	C416.355194,238.901520 426.202454,235.707901 437.658691,235.948303 
	C437.658691,243.714539 437.658691,251.121826 437.658691,259.012085 
	C435.429657,259.012085 433.324707,258.985321 431.220612,259.016449 
	C417.821991,259.214630 409.282257,267.400726 409.019989,280.791809 
	C408.772156,293.446655 408.949249,306.109802 408.939850,318.769318 
	C408.938538,320.570068 408.939667,322.370819 408.939667,324.507935 
	C400.313293,324.507935 392.099091,324.507935 383.283112,324.507935 
	C383.283112,320.053955 383.283112,315.768951 383.283142,310.986877 
z"/>
<path fill="#B8D2DA" opacity="1.000000" stroke="none" 
	d="
M297.712708,495.494873 
	C293.536743,495.404724 289.471771,495.568573 285.729767,494.548126 
	C281.372284,493.359741 279.133087,489.996521 278.902283,485.203217 
	C278.441986,475.643799 270.518005,469.671631 261.311432,472.342407 
	C258.897369,473.042725 256.178345,475.800201 255.359604,478.210785 
	C253.891586,482.532928 253.555939,487.289215 253.116547,491.899261 
	C252.513611,498.225006 248.904327,501.840332 242.480026,502.043488 
	C235.659744,502.259155 231.737335,499.058899 230.853012,492.567078 
	C230.195007,487.736633 228.171585,484.017029 222.597992,482.884705 
	C221.976273,481.567657 221.064697,479.932709 221.542114,479.043518 
	C229.727936,463.796967 237.981705,448.584412 246.444824,433.490143 
	C251.355698,424.731445 263.121521,424.658966 267.977905,433.417664 
	C278.469330,452.339294 288.656586,471.429382 299.070099,490.394653 
	C300.283905,492.605255 300.281708,494.055328 297.712708,495.494873 
z"/>
<path fill="#FEFEFE" opacity="1.000000" stroke="none" 
	d="
M463.032227,237.070068 
	C467.827789,237.070068 472.132355,237.070068 476.979584,237.070068 
	C476.979584,240.565659 476.979584,243.773224 476.979584,248.340195 
	C485.659485,239.038376 495.479767,235.754196 507.005676,235.988419 
	C507.005676,243.728363 507.005676,251.122925 507.005676,259.018005 
	C504.469116,259.018005 502.027588,258.932465 499.593719,259.032562 
	C488.005890,259.509064 479.743256,266.478851 478.993500,277.986450 
	C478.129517,291.246246 478.476257,304.585083 478.306854,317.889771 
	C478.279846,320.012085 478.303131,322.135071 478.303131,324.545349 
	C469.708923,324.545349 461.645813,324.545349 453.288818,324.545349 
	C453.288818,295.515808 453.288818,266.636139 453.288818,237.070068 
	C456.353638,237.070068 459.447449,237.070068 463.032227,237.070068 
z"/>
<path fill="#B8D2DA" opacity="1.000000" stroke="none" 
	d="
M187.097260,474.685699 
	C185.263794,474.993134 183.597122,475.091278 181.936203,475.030975 
	C174.806473,474.771942 170.460114,470.630096 170.135666,463.485016 
	C169.905960,458.426270 168.204239,454.421844 163.430283,452.158752 
	C155.904663,448.591217 150.103241,451.299652 148.425354,459.445648 
	C147.624451,463.334106 147.423218,467.354767 147.079773,471.326752 
	C146.560471,477.332520 142.912582,480.975983 137.193298,481.043518 
	C131.366974,481.112305 127.519180,477.730804 127.023712,471.719757 
	C126.629387,466.935699 124.674683,463.498352 119.635025,461.876343 
	C119.137352,460.431274 118.402679,458.734467 118.928246,457.646454 
	C126.236885,442.516296 133.716049,427.468475 141.158478,412.402954 
	C143.185699,408.299316 146.465088,405.986298 151.072220,406.058502 
	C155.689102,406.130859 158.876572,408.662018 160.853271,412.701355 
	C169.995148,431.382507 179.089920,450.086700 188.226166,468.770569 
	C189.282974,470.931763 190.515518,473.021881 187.097260,474.685699 
z"/>
<path fill="#506953" opacity="1.000000" stroke="none" 
	d="
M275.631348,618.164673 
	C275.637604,619.472656 275.313171,620.782837 274.681885,621.923157 
	C273.109589,624.762939 271.434448,627.518738 276.639282,628.775513 
	C273.049622,635.117004 269.813568,640.908508 266.505310,646.658447 
	C262.745636,653.192932 262.836151,653.496155 270.389496,655.877930 
	C269.529419,657.476562 268.717133,658.986450 267.214447,661.779541 
	C261.527954,652.017944 256.424072,643.256531 250.796600,633.596313 
	C253.335403,633.308105 255.019958,633.108948 256.706360,632.927002 
	C260.748047,632.490967 261.957428,630.570679 260.271393,626.813599 
	C259.049561,624.091003 257.496735,621.516907 256.004761,618.538696 
	C262.332306,618.163818 268.746613,618.126709 275.631348,618.164673 
z"/>
<path fill="#516A54" opacity="1.000000" stroke="none" 
	d="
M634.937195,588.342773 
	C633.162659,586.349060 631.709167,584.333008 629.616150,581.429749 
	C633.298584,581.781067 635.663452,582.006653 639.373535,582.360596 
	C637.643860,584.865540 636.451050,586.593018 634.937195,588.342773 
z"/>
<path fill="#546C56" opacity="1.000000" stroke="none" 
	d="
M341.977203,272.282898 
	C327.973083,272.711609 314.080170,272.711609 300.184448,272.711609 
	C300.018402,263.962738 307.678619,256.413391 318.112610,255.147079 
	C329.824921,253.725616 339.419525,260.411407 341.977203,272.282898 
z"/>
<path fill="#556D58" opacity="1.000000" stroke="none" 
	d="
M557.684448,308.955750 
	C553.981201,308.515198 550.583374,308.471313 547.478638,307.495178 
	C543.003052,306.087952 540.945984,302.489594 541.136230,297.841278 
	C541.333984,293.007721 544.268188,289.916626 548.732666,289.197632 
	C554.115601,288.330688 559.647339,288.348602 565.119812,288.092651 
	C567.914246,287.961975 570.719849,288.069794 573.432068,288.069794 
	C575.933716,300.129181 571.240967,306.368408 557.684448,308.955750 
z"/>
</svg>