<?xml version="1.0" encoding="UTF-8"?>
<svg version="1.1" xmlns="http://www.w3.org/2000/svg" width="800" height="600">
<path d="M0 0 C39.27 0 78.54 0 119 0 C119.01458252 9.59835938 119.02916504 19.19671875 119.04418945 29.0859375 C119.09305439 59.875636 119.15649299 90.66528928 119.22898628 121.45494086 C119.24025304 126.24583922 119.25139172 131.03673787 119.26245117 135.82763672 C119.26465486 136.78132861 119.26685854 137.7350205 119.269129 138.71761215 C119.30440135 154.11435597 119.32932209 169.51109975 119.35034702 184.90786886 C119.37218957 200.73271049 119.40531933 216.55750016 119.44870156 232.38229752 C119.47507345 242.12942236 119.49287497 251.87648261 119.49934604 261.62364131 C119.50464457 268.32795902 119.52100887 275.03219577 119.54566566 281.73646992 C119.55952967 285.59153972 119.56890925 289.44646514 119.56500816 293.30156136 C119.53314996 332.97781117 122.86942135 375.94950834 152 406 C166.80631883 419.71035038 183.85654061 427.44618508 203 433 C202.52691406 432.08863281 202.05382812 431.17726563 201.56640625 430.23828125 C174.06337515 376.6411858 160.75626193 315.74984421 173 256 C173.27287842 254.65929443 173.27287842 254.65929443 173.55126953 253.29150391 C182.46279946 211.13893203 203.29426864 172.1110596 233 141 C234.2589773 139.57035584 235.51003631 138.13366607 236.75 136.6875 C242.38824669 130.22479271 248.44432678 124.67880814 255.13671875 119.30859375 C256.9508469 117.84590652 258.74768189 116.3612826 260.51953125 114.84765625 C274.04623083 103.35723402 289.2877541 94.17007239 305 86 C305.60811523 85.68224609 306.21623047 85.36449219 306.84277344 85.03710938 C315.29278368 80.69138982 324.08561138 77.37635689 333 74.125 C334.07515869 73.73111084 335.15031738 73.33722168 336.25805664 72.93139648 C337.28664795 72.56473877 338.31523926 72.19808105 339.375 71.8203125 C340.29023438 71.49305176 341.20546875 71.16579102 342.1484375 70.82861328 C345.41327531 69.87990956 348.6291721 69.41351192 352 69 C352.09928585 74.4259718 352.17166467 79.85140841 352.21972656 85.27807617 C352.23977361 87.12191994 352.2670188 88.96570068 352.30175781 90.80932617 C352.35058208 93.4680949 352.37303772 96.12601915 352.390625 98.78515625 C352.41127014 99.60210464 352.43191528 100.41905304 352.45318604 101.26075745 C352.45540816 106.99973518 351.37254007 110.31511719 348 115 C346.01147461 116.67407227 346.01147461 116.67407227 343.90234375 117.81640625 C343.11029541 118.26306641 342.31824707 118.70972656 341.50219727 119.16992188 C340.65584717 119.62947266 339.80949707 120.08902344 338.9375 120.5625 C324.26240399 128.9612941 310.85692058 138.72792183 298.6640625 150.453125 C296.5392745 152.48444726 294.3961056 154.38909409 292.125 156.25 C288.31827773 159.47035674 285.20246559 163.1921903 282 167 C281.28328125 167.80566406 280.5665625 168.61132812 279.828125 169.44140625 C243.7103556 210.92962829 227.79707754 264.01835943 231.21826172 318.47412109 C236.10279715 379.02004096 263.83496057 434.37442931 310 474 C338.87277041 498.26934274 373.95516388 514.08212525 410.2578125 523.49438477 C412 524 412 524 414 525 C414 536.88 414 548.76 414 561 C402.15183624 558.72515256 390.36341875 556.24236065 378.59732056 553.57910156 C377.09967465 553.24048144 375.60161961 552.90366467 374.1031189 552.56884766 C358.84445116 549.15305081 343.93277814 545.11905346 329.4375 539.1875 C328.37104248 538.75518066 327.30458496 538.32286133 326.20581055 537.87744141 C317.5722483 534.33054663 309.20372947 530.44717767 301 526 C300.40719238 525.68353516 299.81438477 525.36707031 299.20361328 525.04101562 C281.8796983 515.73996462 267.03185648 503.67837505 252.83056641 490.16601562 C239.03737087 477.04936969 227.72856068 470.17493777 208.375 468.5625 C169.77709409 464.75873387 133.60811045 454.02203496 104 428 C103.14921875 427.27039063 102.2984375 426.54078125 101.421875 425.7890625 C66.8209043 395.53974762 57.46416897 354.02183763 54.47924805 309.88818359 C53.85131093 299.9651956 53.77163593 290.04130582 53.68359375 280.1015625 C53.66280461 278.0872874 53.64171453 276.07301538 53.62034607 274.05874634 C53.56481142 268.69364583 53.51510539 263.32850817 53.46736908 257.96333313 C53.43724153 254.59611143 53.40592643 251.22890254 53.37432861 247.86169434 C52.70631676 176.22698706 53.22469846 104.63232484 54 33 C36.18 33 18.36 33 0 33 C0 22.11 0 11.22 0 0 Z " fill="#000000" transform="translate(66,12)"/>
<path d="M0 0 C1.67409943 -0.01256836 1.67409943 -0.01256836 3.38201904 -0.02539062 C6.95274386 -0.04474381 10.52298196 -0.04500118 14.09375 -0.0390625 C15.92939514 -0.03824677 15.92939514 -0.03824677 17.80212402 -0.03741455 C36.73274334 0.00128508 54.97405708 0.7384847 73.59375 4.3359375 C74.73473145 4.55024414 75.87571289 4.76455078 77.05126953 4.98535156 C105.41780109 10.44794643 132.1348269 19.90124206 158.59375 31.3359375 C160.36524249 24.3562571 162.06887736 17.37381123 163.59375 10.3359375 C164.3465625 10.52929688 165.099375 10.72265625 165.875 10.921875 C172.99649323 12.66767795 179.89878935 13.88487517 187.2109375 14.42529297 C190.49181751 14.74171051 192.37354106 15.16370905 194.99609375 17.21484375 C199.06004909 22.61026612 197.35722791 29.02493688 196.59375 35.3359375 C195.73139077 40.74207629 194.63423117 46.1058313 193.55545044 51.47210693 C189.61145929 71.13810462 186.28292159 90.88552589 183.12084961 110.69042969 C182.87720169 112.21360306 182.87720169 112.21360306 182.62863159 113.76754761 C182.32456052 115.67292892 182.02238523 117.57861409 181.72244263 119.48464966 C181.58788666 120.33131195 181.45333069 121.17797424 181.31469727 122.05029297 C181.19892838 122.78520966 181.08315948 123.52012634 180.96388245 124.27731323 C180.59551095 126.32614336 180.12242051 128.32307085 179.59375 130.3359375 C169.47922426 128.82867484 159.55527053 126.61601887 149.59375 124.3359375 C149.42576904 123.41639282 149.42576904 123.41639282 149.25439453 122.47827148 C146.59925773 108.22230212 142.66627313 95.94679028 135.59375 83.3359375 C135.12195313 82.49417969 134.65015625 81.65242188 134.1640625 80.78515625 C119.64566785 57.28941106 94.79026387 43.61184477 68.59375 37.3359375 C60.8340532 35.63530934 53.08821593 35.15399511 45.17578125 34.7890625 C44.25204712 34.74475098 43.32831299 34.70043945 42.37658691 34.65478516 C40.1157244 34.54660292 37.85478838 34.44036829 35.59375 34.3359375 C35.59559359 35.51132395 35.59743717 36.6867104 35.59933662 37.89771461 C35.64279018 65.8913971 35.67569965 93.88507791 35.69588066 121.87878696 C35.69838163 125.33536975 35.70097032 128.79195247 35.70361328 132.24853516 C35.7041379 132.93658695 35.70466252 133.62463875 35.70520304 134.3335406 C35.71387086 145.42818177 35.72962052 156.5228019 35.74805559 167.61743064 C35.76685609 179.02840244 35.77773862 190.43935728 35.78192699 201.85034502 C35.78452019 208.24839166 35.79055745 214.64639082 35.80521011 221.04442215 C35.81892744 227.08377674 35.82294447 233.12306493 35.81996536 239.16243362 C35.82050927 241.36239993 35.82440148 243.56236878 35.83216095 245.76232147 C35.99261583 293.66086062 25.64958527 334.29478208 -8.40625 369.3359375 C-8.87659668 369.82674805 -9.34694336 370.31755859 -9.83154297 370.82324219 C-18.31120675 379.66508011 -18.31120675 379.66508011 -23.40625 382.3359375 C-24.06625 382.3359375 -24.72625 382.3359375 -25.40625 382.3359375 C-21.04770703 388.34772091 -15.51438166 392.19709419 -9.40625 396.3359375 C-8.66890625 396.8515625 -7.9315625 397.3671875 -7.171875 397.8984375 C25.78913755 419.40491377 71.35529809 422.19692825 108.96875 414.640625 C121.28585538 411.93927936 133.16195122 407.61558066 144.59375 402.3359375 C146.15565881 404.57407503 147.69258882 406.82362798 149.21875 409.0859375 C149.66476562 409.72015625 150.11078125 410.354375 150.5703125 411.0078125 C151.8203125 412.8828125 151.8203125 412.8828125 153.59375 416.3359375 C152.4987613 419.88025408 150.74478149 421.15860971 147.54296875 422.8515625 C146.29362549 423.51551025 146.29362549 423.51551025 145.01904297 424.19287109 C144.11557129 424.65258301 143.21209961 425.11229492 142.28125 425.5859375 C141.3442627 426.06756348 140.40727539 426.54918945 139.44189453 427.04541016 C96.96651241 448.41439521 48.04886057 453.99093448 1.59375 444.3359375 C0.76858887 444.16465332 -0.05657227 443.99336914 -0.90673828 443.81689453 C-41.11764821 434.9913501 -78.00471184 410.3476959 -103.40625 378.3359375 C-104.22480469 377.32273437 -105.04335938 376.30953125 -105.88671875 375.265625 C-128.11399353 347.41785852 -140.97932552 313.32541595 -146.40625 278.3359375 C-146.5101001 277.68359131 -146.6139502 277.03124512 -146.72094727 276.35913086 C-149.73217628 254.07169955 -148.74673431 229.11119956 -143.40625 207.3359375 C-143.19726074 206.47983887 -142.98827148 205.62374023 -142.77294922 204.74169922 C-134.14193607 170.76718679 -115.88917391 138.56477301 -88.40625 116.3359375 C-85.6915319 119.0506556 -86.15130927 120.48114804 -86.14123535 124.28157043 C-86.12882561 126.18384148 -86.12882561 126.18384148 -86.11616516 128.12454224 C-86.11698991 129.53851329 -86.11798761 130.95248425 -86.11914062 132.36645508 C-86.11311824 133.84990312 -86.10619446 135.33334775 -86.09843445 136.81678772 C-86.08351213 140.01976846 -86.07478743 143.2226865 -86.07072449 146.42569923 C-86.06400513 151.51023683 -86.04223464 156.59464183 -86.01818848 161.67912292 C-85.96914555 172.50219658 -85.93699236 183.32529884 -85.90625 194.1484375 C-85.87309565 205.7691164 -85.83669363 217.3897437 -85.78211927 229.01034468 C-85.76278609 233.22575973 -85.74743039 237.44110741 -85.74177551 241.65656471 C-85.68567185 281.91860155 -83.02724159 315.94371766 -58.40625 349.3359375 C-36.18257678 329.80604286 -30.58146052 294.34801647 -28.59708071 266.58181453 C-28.01349141 256.65542935 -28.09577714 246.70566311 -28.08740234 236.76586914 C-28.07807805 234.19107762 -28.06790578 231.61628905 -28.05696106 229.04150391 C-28.0349306 223.55034486 -28.01977369 218.05920367 -28.00959396 212.56801033 C-27.99486628 204.62915262 -27.96929256 196.69035734 -27.94126268 188.75153678 C-27.89604701 175.8642411 -27.85932939 162.97693629 -27.828125 150.08959961 C-27.79783513 137.58763026 -27.76343788 125.08568306 -27.72363281 112.58374023 C-27.72117126 111.81017703 -27.71870972 111.03661382 -27.71617357 110.23960931 C-27.70379696 106.35799109 -27.69134081 102.47637313 -27.67884517 98.59475529 C-27.57565608 66.5085129 -27.48632957 34.4222462 -27.40625 2.3359375 C-25.03709369 2.00524553 -22.66749545 1.67856327 -20.29748535 1.35409546 C-19.63450565 1.26113914 -18.97152596 1.16818281 -18.28845596 1.07240963 C-12.176509 0.24116082 -6.15984151 0.01449289 0 0 Z " fill="#000000" transform="translate(504.40625,65.6640625)"/>
<path d="M0 0 C35.64 0 71.28 0 108 0 C108 10.23 108 20.46 108 31 C72.36 31 36.72 31 0 31 C0 20.77 0 10.54 0 0 Z " fill="#000000" transform="translate(371,14)"/>
</svg>
