<?xml version="1.0" encoding="UTF-8"?>
<svg version="1.1" xmlns="http://www.w3.org/2000/svg" width="800" height="600">
<path d="M0 0 C53.13 0 106.26 0 161 0 C161 28.05 161 56.1 161 85 C150.44 85 139.88 85 129 85 C129.00222061 87.89666946 129.00444122 90.79333893 129.00672913 93.77778625 C129.02670812 120.45727294 129.04159603 147.13675951 129.05106533 173.81625189 C129.05231575 177.32647589 129.0536101 180.83669986 129.05493164 184.34692383 C129.05532511 185.39497788 129.05532511 185.39497788 129.05572652 186.46420475 C129.06005543 197.71712286 129.0679274 208.97003576 129.0771528 220.22295079 C129.08656715 231.80457805 129.09199727 243.38620231 129.09408849 254.96783322 C129.09538271 261.45824421 129.09838571 267.94864347 129.10573006 274.43905067 C129.11261152 280.57115539 129.11459281 286.70324374 129.11310768 292.83535194 C129.11337864 295.06385386 129.11531081 297.29235642 129.11920547 299.52085495 C129.15404577 320.51936021 129.04181727 341.66839399 126.75 362.5625 C126.61996582 363.75536621 126.48993164 364.94823242 126.35595703 366.17724609 C121.38429161 409.25931812 108.33620704 453.66302299 73.1875 481.75 C41.37410728 506.19758139 1.19894274 512.21849005 -37.875 512.25 C-38.63734955 512.25067474 -39.3996991 512.25134949 -40.18515015 512.25204468 C-80.97740353 512.1951443 -123.24990908 502.98012421 -155 476 C-156.22009766 474.96552734 -156.22009766 474.96552734 -157.46484375 473.91015625 C-181.92669938 452.53984636 -196.87821756 425.50095982 -203.1875 393.8125 C-203.34250977 393.04905273 -203.49751953 392.28560547 -203.65722656 391.49902344 C-207.17243648 372.54446014 -207.28335458 353.39598659 -207.22705078 334.18823242 C-207.22536385 331.45610444 -207.22671822 328.72397983 -207.22793579 325.99185181 C-207.22897501 320.15468168 -207.22280049 314.3175569 -207.21146011 308.48039818 C-207.1950755 300.04127378 -207.189984 291.6021709 -207.18748413 283.16303233 C-207.18312714 269.46487702 -207.16987276 255.76674579 -207.15087891 242.06860352 C-207.13246806 228.77693806 -207.11833717 215.48527918 -207.10986328 202.19360352 C-207.10933783 201.37172293 -207.10881239 200.54984235 -207.10827102 199.7030563 C-207.10566059 195.57915192 -207.10313326 191.45524751 -207.10064721 187.33134305 C-207.07997698 153.2208772 -207.04424878 119.11044327 -207 85 C-217.56 85 -228.12 85 -239 85 C-239 57.28 -239 29.56 -239 1 C-185.87 1 -132.74 1 -78 1 C-78 29.05 -78 57.1 -78 86 C-88.23 86 -98.46 86 -109 86 C-108.91530252 114.67062454 -108.82043111 143.34119565 -108.71247292 172.01174259 C-108.70249598 174.67457635 -108.69253438 177.33741016 -108.68261719 180.00024414 C-108.68015119 180.66201023 -108.6776852 181.32377631 -108.67514448 182.00559592 C-108.63812176 191.98980257 -108.60662935 201.97401679 -108.578125 211.95825195 C-108.54493992 223.57882481 -108.50496771 235.19935228 -108.45720994 246.8198747 C-108.43220519 252.95940784 -108.4103509 259.09891188 -108.39665604 265.23848152 C-111.70044968 334.84129934 -111.70044968 334.84129934 -85.3125 396.3125 C-70.84947645 409.83528875 -51.01021605 410.76812603 -32.33984375 410.32421875 C-25.27005869 410.03694716 -18.76215224 409.19108844 -12 407 C-10.64648438 406.58234375 -10.64648438 406.58234375 -9.265625 406.15625 C3.48588959 401.67389942 12.64828493 391.82407987 18.50732422 379.89038086 C30.56468717 353.54699416 30.12879541 322.3474359 30.20532227 293.97851562 C30.21492152 291.70032075 30.22493274 289.42212757 30.23532104 287.14393616 C30.26215459 281.00666064 30.28327963 274.86937759 30.30332303 268.73207664 C30.32531689 262.30057815 30.3526395 255.86910227 30.37937927 249.43762207 C30.42348662 238.6581314 30.46435145 227.87863368 30.50268555 217.09912109 C30.54214965 206.00438531 30.58360133 194.90965984 30.62768555 183.81494141 C30.63177196 182.7862528 30.63177196 182.7862528 30.63594092 181.73678261 C30.64962219 178.29579217 30.66334211 174.85480189 30.67708123 171.41381168 C30.79071085 142.94256271 30.89733379 114.47129048 31 86 C20.77 86 10.54 86 0 86 C0 57.62 0 29.24 0 0 Z " fill="#000000" transform="translate(258,46)"/>
<path d="M0 0 C114.51 0 229.02 0 347 0 C347 43.56 347 87.12 347 132 C317.96 132 288.92 132 259 132 C259 116.49 259 100.98 259 85 C216.1 85 173.2 85 129 85 C129 124.6 129 164.2 129 205 C168.27 205 207.54 205 248 205 C248 233.71 248 262.42 248 292 C208.73 292 169.46 292 129 292 C129 334.24 129 376.48 129 420 C139.23 420 149.46 420 160 420 C160 448.38 160 476.76 160 506 C107.2 506 54.4 506 0 506 C0 477.62 0 449.24 0 420 C10.56 420 21.12 420 32 420 C32 309.45 32 198.9 32 85 C21.44 85 10.88 85 0 85 C0 56.95 0 28.9 0 0 Z " fill="#000000" transform="translate(431,46)"/>
</svg>
