<?xml version="1.0" encoding="utf-8"?>
<!-- Generator: Adobe Illustrator 29.8.2, SVG Export Plug-In . SVG Version: 9.03 Build 0)  -->
<svg version="1.2" baseProfile="tiny" xmlns="http://www.w3.org/2000/svg" xmlns:xlink="http://www.w3.org/1999/xlink" x="0px"
	 y="0px" width="80px" height="93px" viewBox="0 0 80 93" overflow="visible" xml:space="preserve">
<g id="Layer_4">
	<g>
		<polygon fill="#FFFFFF" points="1,69.02 1,23.98 40,1.46 79,23.98 79,69.02 40,91.54 		"/>
		<path fill="#6A91C3" d="M40,2.62l38,21.94v43.88L40,90.38L2,68.44V24.56L40,2.62 M40,0.31L0,23.41v46.19l40,23.1l40-23.1V23.41
			L40,0.31L40,0.31z"/>
	</g>
</g>
<g id="Layer_7">
	<g>
		<path fill="#ABD9E9" d="M54.64,37.4l-1.16-1.01c-2.58-2.25-5.02-4.37-9.32-5.66c-3.6-1.08-6.92-1.08-9.47-0.05v16.82h34.28v-0.91
			c-1.79-0.57-3.38-1.26-4.9-2.12C60.36,42.37,57.45,39.85,54.64,37.4z"/>
		<path fill="#ABD9E9" d="M34.68,30.69c2.55-1.04,5.87-1.04,9.47,0.05c4.3,1.29,6.74,3.41,9.32,5.66l1.16,1.01
			c2.82,2.44,5.73,4.97,9.42,7.07c1.51,0.86,3.11,1.55,4.9,2.12v-1.27c-1.56-0.52-2.96-1.14-4.3-1.9c-3.59-2.04-6.46-4.53-9.23-6.93
			l-1.16-1.01c-2.68-2.33-5.22-4.54-9.77-5.91c-3.65-1.1-7.09-1.16-9.82-0.2V30.69z"/>
	</g>
	<g>
		<path fill="#74ADD1" d="M50.7,37.41l-1.22-1c-2.72-2.25-5.29-4.38-9.82-5.67c-3.79-1.08-7.29-1.09-9.98-0.05v16.82h39.28v-0.1
			c-3.26-0.68-5.91-1.61-8.35-2.92C56.72,42.38,53.66,39.85,50.7,37.41z"/>
		<path fill="#74ADD1" d="M29.67,30.68c2.69-1.03,6.19-1.03,9.98,0.05c4.53,1.29,7.1,3.42,9.82,5.67l1.22,1
			c2.96,2.44,6.03,4.97,9.92,7.07c2.44,1.32,5.08,2.24,8.35,2.92v-1.24c-3.03-0.65-5.5-1.53-7.77-2.75
			c-3.79-2.04-6.8-4.53-9.72-6.94l-1.22-1c-2.82-2.33-5.49-4.54-10.26-5.9c-3.84-1.1-7.44-1.16-10.31-0.19V30.68z"/>
	</g>
	<g>
		<path fill="#FFFFFF" d="M56.42,44.62c-4.09-2.1-7.3-4.64-10.41-7.08l-1.28-1c-2.84-2.24-5.53-4.36-10.26-5.65
			c-2.62-0.71-5.1-0.96-7.3-0.75v18.34h41.79v-0.3c-0.43-0.06-0.87-0.11-1.3-0.18C63.04,47.28,59.57,46.24,56.42,44.62z"/>
		<path fill="#4575B4" d="M27.17,30.13c2.2-0.21,4.68,0.03,7.3,0.75c4.73,1.29,7.42,3.41,10.26,5.65l1.28,1
			c3.11,2.45,6.33,4.98,10.41,7.08c3.15,1.62,6.62,2.66,11.24,3.37c0.43,0.07,0.87,0.12,1.3,0.18v-1.51
			c-0.36-0.05-0.72-0.1-1.08-0.15c-4.45-0.68-7.77-1.67-10.78-3.22c-3.96-2.04-7.12-4.52-10.17-6.93l-1.28-1
			c-2.97-2.34-5.77-4.55-10.79-5.92c-2.73-0.74-5.34-1-7.69-0.8V30.13z"/>
	</g>
</g>
<g id="Layer_8" display="none">
	<path display="inline" fill="#4575B4" stroke="#4575B4" stroke-miterlimit="10" d="M12.68,45.58c0,1.38,1.13,2.5,2.5,2.5
		c1.38,0,2.5-1.13,2.5-2.5c0-1.38-1.13-2.5-2.5-2.5C13.81,43.08,12.68,44.2,12.68,45.58"/>
	<path display="inline" fill="#6A91C3" stroke="#6A91C3" stroke-miterlimit="10" d="M12.68,38.72c0,1.38,1.13,2.5,2.5,2.5
		c1.38,0,2.5-1.13,2.5-2.5c0-1.38-1.13-2.5-2.5-2.5C13.81,36.22,12.68,37.35,12.68,38.72"/>
	<path display="inline" fill="#90BDDA" stroke="#90BDDA" stroke-miterlimit="10" d="M12.68,31.87c0,1.38,1.13,2.5,2.5,2.5
		c1.38,0,2.5-1.13,2.5-2.5c0-1.38-1.13-2.5-2.5-2.5C13.81,29.37,12.68,30.49,12.68,31.87"/>
	<path display="inline" fill="#6A91C3" stroke="#6A91C3" stroke-miterlimit="10" d="M19.48,45.58c0,1.38,1.13,2.5,2.5,2.5
		c1.38,0,2.5-1.13,2.5-2.5c0-1.38-1.13-2.5-2.5-2.5C20.61,43.08,19.48,44.2,19.48,45.58"/>
	<path display="inline" fill="#90BDDA" stroke="#90BDDA" stroke-miterlimit="10" d="M19.48,38.72c0,1.38,1.13,2.5,2.5,2.5
		c1.38,0,2.5-1.13,2.5-2.5c0-1.38-1.13-2.5-2.5-2.5C20.61,36.22,19.48,37.35,19.48,38.72"/>
	<path display="inline" fill="#90BDDA" stroke="#90BDDA" stroke-miterlimit="10" d="M26.28,45.58c0,1.38,1.13,2.5,2.5,2.5
		c1.38,0,2.5-1.13,2.5-2.5c0-1.38-1.13-2.5-2.5-2.5C27.41,43.08,26.28,44.2,26.28,45.58"/>
	<path display="inline" fill="#ABD9E9" stroke="#ABD9E9" stroke-miterlimit="10" d="M33.08,45.58c0,1.38,1.13,2.5,2.5,2.5
		c1.38,0,2.5-1.13,2.5-2.5c0-1.38-1.13-2.5-2.5-2.5C34.21,43.08,33.08,44.2,33.08,45.58"/>
	<path display="inline" fill="#DDF0F6" stroke="#DDF0F6" stroke-miterlimit="10" d="M39.88,45.58c0,1.38,1.13,2.5,2.5,2.5
		c1.38,0,2.5-1.13,2.5-2.5c0-1.38-1.13-2.5-2.5-2.5C41.01,43.08,39.88,44.2,39.88,45.58"/>
	<path display="inline" fill="#ABD9E9" stroke="#ABD9E9" stroke-miterlimit="10" d="M26.28,38.72c0,1.38,1.13,2.5,2.5,2.5
		c1.38,0,2.5-1.13,2.5-2.5c0-1.38-1.13-2.5-2.5-2.5C27.41,36.22,26.28,37.35,26.28,38.72"/>
	<path display="inline" fill="#DDF0F6" stroke="#DDF0F6" stroke-miterlimit="10" d="M33.08,38.72c0,1.38,1.13,2.5,2.5,2.5
		c1.38,0,2.5-1.13,2.5-2.5c0-1.38-1.13-2.5-2.5-2.5C34.21,36.22,33.08,37.35,33.08,38.72"/>
	<path display="inline" fill="#ABD9E9" stroke="#ABD9E9" stroke-miterlimit="10" d="M19.48,31.87c0,1.38,1.13,2.5,2.5,2.5
		c1.38,0,2.5-1.13,2.5-2.5c0-1.38-1.13-2.5-2.5-2.5C20.61,29.37,19.48,30.49,19.48,31.87"/>
	<g display="inline">
		<path fill="#DDF0F6" d="M26.78,31.87c0,1.1,0.9,2,2,2c1.01,0,1.83-0.75,1.97-1.72c-1.11-0.77-2.34-1.36-3.31-1.77
			C27.04,30.76,26.78,31.28,26.78,31.87z"/>
		<path fill="#DDF0F6" d="M31.63,32.81c-0.27-0.23-0.57-0.45-0.86-0.65c-0.14,0.97-0.97,1.72-1.97,1.72c-1.1,0-2-0.9-2-2
			c0-0.59,0.26-1.11,0.67-1.48c-0.38-0.16-0.72-0.29-0.99-0.39c-0.41,0.51-0.67,1.16-0.67,1.87c0,1.66,1.35,3,3,3
			C30.11,34.87,31.23,34,31.63,32.81z"/>
	</g>
</g>
<g id="tidybayes" display="none">
	<g display="inline">
		<path fill="#E0E0E0" d="M8.53,53.55H6.19v-1.63h6.63v1.63h-2.34v6.89H8.53V53.55z"/>
		<path fill="#E0E0E0" d="M14.82,51.92h1.95v8.52h-1.95V51.92z"/>
		<path fill="#E0E0E0" d="M19.49,51.92h2.41c2.6,0,4.29,1.29,4.29,4.22s-1.68,4.3-4.18,4.3h-2.52V51.92z M21.79,58.88
			c1.43,0,2.41-0.7,2.41-2.73s-0.98-2.66-2.41-2.66h-0.35v5.39H21.79z"/>
		<path fill="#E0E0E0" d="M29.72,57.41l-2.57-5.49h2.08l0.75,1.95c0.23,0.64,0.45,1.23,0.69,1.89h0.05
			c0.24-0.66,0.48-1.25,0.72-1.89l0.75-1.95h2.03l-2.57,5.49v3.03h-1.95V57.41z"/>
		<path fill="#E0E0E0" d="M36.02,51.92h2.93c1.77,0,3.15,0.48,3.15,2.11c0,0.76-0.43,1.58-1.12,1.84v0.05
			c0.87,0.23,1.54,0.87,1.54,2c0,1.74-1.47,2.51-3.32,2.51h-3.17V51.92z M38.86,55.33c0.92,0,1.33-0.39,1.33-1.01
			c0-0.65-0.43-0.9-1.32-0.9h-0.91v1.91H38.86z M39.03,58.94c1.04,0,1.58-0.37,1.58-1.14c0-0.74-0.53-1.04-1.58-1.04h-1.07v2.18
			H39.03z"/>
		<path fill="#E0E0E0" d="M46.42,51.92h2.33l2.67,8.52h-2.06l-1.11-4.31c-0.24-0.85-0.46-1.86-0.69-2.75h-0.05
			c-0.2,0.9-0.43,1.9-0.67,2.75l-1.11,4.31h-1.99L46.42,51.92z M45.51,56.92h4.1v1.51h-4.1V56.92z"/>
		<path fill="#E0E0E0" d="M54.13,57.41l-2.57-5.49h2.08l0.75,1.95c0.23,0.64,0.45,1.23,0.69,1.89h0.05
			c0.24-0.66,0.48-1.25,0.72-1.89l0.75-1.95h2.03l-2.57,5.49v3.03h-1.95V57.41z"/>
		<path fill="#E0E0E0" d="M60.44,51.92h5.35v1.63h-3.4v1.69h2.9v1.63h-2.9v1.94h3.53v1.63h-5.48V51.92z"/>
		<path fill="#E0E0E0" d="M67.83,59.37l1.12-1.33c0.61,0.52,1.39,0.89,2.09,0.89c0.8,0,1.19-0.31,1.19-0.81c0-0.53-0.48-0.7-1.22-1
			l-1.11-0.47c-0.88-0.36-1.72-1.09-1.72-2.33c0-1.41,1.26-2.55,3.04-2.55c0.98,0,2.01,0.39,2.75,1.12l-0.98,1.23
			c-0.56-0.43-1.09-0.67-1.77-0.67c-0.66,0-1.08,0.27-1.08,0.75c0,0.52,0.55,0.7,1.3,1l1.08,0.44c1.04,0.42,1.69,1.12,1.69,2.32
			c0,1.42-1.18,2.65-3.22,2.65C69.88,60.6,68.7,60.18,67.83,59.37z"/>
	</g>
</g>
<g id="tidybayes_copy">
	<g>
		<path fill="#4575B4" d="M12.27,55.39c0-3.68,2.46-5.8,5.42-5.8c1.61,0,2.76,0.68,3.52,1.44l-1.37,1.67
			c-0.55-0.5-1.13-0.87-2.06-0.87c-1.66,0-2.85,1.3-2.85,3.47c0,2.23,1,3.51,3.06,3.51c0.41,0,0.84-0.1,1.1-0.3v-1.82h-1.79v-2.12
			h4.09v5.14c-0.77,0.75-2.12,1.34-3.67,1.34C14.67,61.05,12.27,59.13,12.27,55.39z"/>
		<path fill="#4575B4" d="M23.56,55.39c0-3.68,2.46-5.8,5.42-5.8c1.61,0,2.76,0.68,3.52,1.44l-1.37,1.67
			c-0.55-0.5-1.13-0.87-2.06-0.87c-1.66,0-2.84,1.3-2.84,3.47c0,2.23,1,3.51,3.06,3.51c0.41,0,0.84-0.1,1.1-0.3v-1.82H28.6v-2.12
			h4.09v5.14c-0.77,0.75-2.12,1.34-3.67,1.34C25.96,61.05,23.56,59.13,23.56,55.39z"/>
		<path fill="#4575B4" d="M35.46,49.79h3.16c3.38,0,5.58,1.65,5.58,5.48c0,3.83-2.21,5.58-5.44,5.58h-3.31V49.79z M38.47,58.76
			c1.81,0,3.08-0.86,3.08-3.49c0-2.63-1.27-3.39-3.08-3.39h-0.41v6.88H38.47z"/>
		<path fill="#4575B4" d="M46.71,49.79h2.6v11.06h-2.6V49.79z"/>
		<path fill="#4575B4" d="M51.5,59.46l1.49-1.78c0.79,0.67,1.8,1.14,2.69,1.14c1.01,0,1.49-0.38,1.49-1c0-0.66-0.61-0.87-1.57-1.26
			l-1.42-0.61c-1.16-0.47-2.23-1.42-2.23-3.03c0-1.85,1.65-3.33,3.98-3.33c1.27,0,2.62,0.5,3.59,1.46l-1.31,1.64
			c-0.73-0.55-1.42-0.85-2.28-0.85c-0.83,0-1.35,0.34-1.35,0.94c0,0.64,0.7,0.88,1.68,1.26l1.39,0.56c1.36,0.55,2.19,1.46,2.19,3.01
			c0,1.84-1.54,3.45-4.2,3.45C54.19,61.05,52.64,60.52,51.5,59.46z"/>
		<path fill="#4575B4" d="M64.37,51.97h-3.02v-2.18h8.63v2.18h-3.02v8.88h-2.6V51.97z"/>
	</g>
</g>
<g id="Layer_1">
</g>
<g id="Layer_3">
</g>
<g id="Layer_5">
</g>
<g id="Layer_6">
</g>
</svg>
