<svg xmlns="http://www.w3.org/2000/svg" viewBox="0 0 24 24"><title>CSS</title><path d="M0 0v20.16A3.84 3.84 0 0 0 3.84 24h16.32A3.84 3.84 0 0 0 24 20.16V3.84A3.84 3.84 0 0 0 20.16 0Zm14.26 13.08c1.56 0 2.28 1.08 2.3 2.64h-1.6a2 2 0 0 0-.15-.84q-.15-.28-.55-.26-.7-.02-.7.84c-.02.57.29.88.77 1.08.72.28 1.6.74 1.92 1.3q.43.64.43 1.65c0 1.6-.91 2.59-2.5 2.59-1.65 0-2.4-1.03-2.42-2.69h1.68q0 1.19.8 1.18.4 0 .54-.24c.2-.31.24-1.18-.04-1.51-.32-.41-.92-.6-1.32-.82q-.83-.4-1.23-.94a3 3 0 0 1-.36-1.53c0-1.44.94-2.47 2.43-2.45m5.4 0c1.58 0 2.3 1.08 2.32 2.64h-1.6c0-.29-.05-.6-.17-.84q-.14-.28-.53-.26-.72-.02-.72.84c0 .86.29.88.8 1.08.69.28 1.6.74 1.91 1.3q.4.64.41 1.65c.02 1.6-.89 2.59-2.47 2.59-1.68 0-2.43-1.06-2.45-2.69h1.68c0 .75.26 1.18.8 1.18q.4 0 .54-.24c.22-.31.27-1.18-.04-1.51-.3-.41-.9-.6-1.32-.82q-.84-.4-1.2-.94c-.36-.54-.36-.88-.36-1.53-.03-1.44.9-2.47 2.4-2.45m-11.04.02c.72 0 1.42.2 1.84.63.44.43.68 1.13.65 1.99H9.34c.02-.46-.1-.8-.44-.96-.3-.14-.76-.05-.88.24-.12.26-.2.58-.17.86v3.5q0 1.13.77 1.14a.7.7 0 0 0 .55-.27c.17-.24.19-.55.17-.84h1.77c.1 1.63-.98 2.71-2.57 2.69-1.53 0-2.5-.86-2.47-2.47v-4.03q0-1.23.7-1.85a2.8 2.8 0 0 1 1.85-.63"/></svg>