<svg xmlns="http://www.w3.org/2000/svg" width="1em" height="1em" viewBox="0 0 24 24"><path fill="none" d="M0 0h24v24H0z"/><path fill="#715cd7" d="M4.2 24q-1.26 0-2.13-.87T1.2 21v-.6q0-.51.35-.85t.85-.35.86.35.34.85v.6q0 .24.18.42t.42.18.42-.18.18-.42V7.2q0-3 2.1-5.1T12 0t5.1 2.1 2.1 5.1V21q0 .24.18.42t.42.18.42-.18.18-.42v-.6q0-.51.35-.85t.85-.35.86.35.34.85v.6q0 1.26-.87 2.13T19.8 24t-2.13-.87T16.8 21v-5.4h-1.62v4.8q0 .51-.34.86t-.86.34-.86-.35-.34-.85v-4.8h-1.59v4.8q0 .51-.35.86t-.85.34-.86-.35-.34-.85v-4.8H7.2V21q0 1.26-.87 2.13T4.2 24m4.2-11.4q.54 0 .87-.45t.33-1.05-.33-1.05-.87-.45-.87.45-.33 1.05.33 1.05.87.45m7.2 0q.54 0 .87-.45t.33-1.05-.33-1.05-.87-.45-.87.45-.33 1.05.33 1.05.87.45"/></svg>